<?xml version="1.0" encoding="utf-8" ?>
<svg baseProfile="full" height="200mm" version="1.1" viewBox="0,0,200,200" width="200mm" xmlns="http://www.w3.org/2000/svg" xmlns:ev="http://www.w3.org/2001/xml-events" xmlns:xlink="http://www.w3.org/1999/xlink"><defs /><rect fill="#1a1a1a" height="200" width="200" x="0" y="0" /><text alignment-baseline="middle" fill="#e1ed5e" style="dominant-baseline: central; font-size:9.0px; font-family:Arial;" text-anchor="middle" x="100.0" y="100.0">2024</text><line stroke="#e1ed5e" stroke-width="0.3" x1="100.0" x2="100.0" y1="15.0" y2="10.0" /><path d="M 100.0 14.0 a86.0,86.0 0 0,1 42.35913384403234,11.155469271406648" fill="none" id="id73" stroke="none" /><text fill="#e1ed5e" style="font-size:6.75px; font-family:Arial;" text-anchor="middle"><textPath startOffset="22.145653131862478" xlink:href="#id73">January</textPath></text><path d="M 100.0 79.0 l 0.0 -25.752417279123264 a46.752417279123264,46.752417279123264 0 0,0 0.8025674118431086,0.006889075981618408 l -0.4420744869942539 25.74862260133608" fill="#c3ff1e" stroke="none" /><path d="M 101.08105385017728 79.02784411241856 l 0.4939112799182138 -9.5817468809542 a30.594468283500966,30.594468283500966 0 0,0 0.5242662954915273,0.031538558468714 l -0.6583219275422034 9.571856344660793" fill="#ff6d0a" stroke="none" /><path d="M 101.80034050326958 79.07731436759882 l 1.6382300854653469 -19.03871684799878 a40.10906949673888,40.10906949673888 0 0,0 0.6854839311714498,0.06491604097689237 l -1.9648135800218096 19.007789051516706" fill="#ffeb16" stroke="none" /><path d="M 102.51750503828377 79.15144685158666 l 0.8934998870246841 -7.3994608151547565 a28.453211549602212,28.453211549602212 0 0,0 0.4844121032102793,0.06271684502873877 l -1.020389812125755 7.38303237392562" fill="#ff4f07" stroke="none" /><path d="M 102.87502721639298 79.19773525538626 l 1.0294990246979208 -7.448942098348643 a28.519747776781124,28.519747776781124 0 0,0 0.4843941917323311,0.07118926515454528 l -1.1572183220379337 7.430171759895216" fill="#ff5007" stroke="none" /><path d="M 103.58742460773223 79.30868818359171 l 1.1435722173762328 -6.595820657335262 a27.694221953303114,27.694221953303114 0 0,0 0.46772279086497653,0.0852346731615254 l -1.256629741792263 6.57521781024237" fill="#ff4406" stroke="none" /><path d="M 104.29559338865022 79.4440306129975 l 2.94206987947681 -14.078869414581835 a35.38298783871323,35.38298783871323 0 0,0 0.5934865775763293,0.12934763729763696 l -3.1833188736722735 14.02629031915048" fill="#ffae10" stroke="none" /><path d="M 104.64783097203109 79.52079915486377 l 3.8877910774419653 -17.130324832804643 a38.565959932188186,38.565959932188186 0 0,0 0.6443597762076553,0.15206715268429796 l -4.1812830073895055 17.061061536474117" fill="#ffd714" stroke="none" /><path d="M 104.9986988182912 79.60360301121754 l 2.351522262467289 -9.595013289806229 a30.8789643679101,30.8789643679101 0 0,0 0.513759366706164,0.1305956219763317 l -2.5158869223988476 9.553232435994628" fill="#ff710a" stroke="none" /><path d="M 106.04205211174951 79.88797359093562 l 3.576644994085892 -11.905487944570984 a33.43113159016687,33.43113159016687 0 0,0 0.5482058722273865,0.16983558054876224 l -3.780491499184909 11.842335776215574" fill="#ff940d" stroke="none" /><path d="M 106.38641147887787 79.99465700312896 l 2.5530965665306047 -7.997538631280417 a29.395172793746,29.395172793746 0 0,0 0.47938944308446163,0.15758483182610897 l -2.6900087472628087 7.952532878052286" fill="#ff5c08" stroke="none" /><path d="M 106.72888874123014 80.10723608172694 l 2.390823286896693 -7.068044226252266 a28.461453288296156,28.461453288296156 0 0,0 0.4614743125654845,0.16052472089722106 l -2.511803371507196 7.025961072786455" fill="#ff4f07" stroke="none" /><path d="M 107.06938296918511 80.22567764915836 l 10.560634905377604 -29.539975378156445 a52.3709603765452,52.3709603765452 0 0,0 0.8439476728435659,0.30990927536148277 l -11.066171729875295 29.35433525378624" fill="#84ff25" stroke="none" /><path d="M 108.07796709384702 80.6158196554323 l 4.810304719422085 -11.542980196666868 a33.50517586099203,33.50517586099203 0 0,0 0.5290067197976832,0.22580151199763138 l -5.007746514390198 11.458704035009834" fill="#ff950d" stroke="none" /><path d="M 109.06512990194946 81.05736502329252 l 7.276981399735859 -15.20609234268586 a37.85763039772765,37.85763039772765 0 0,0 0.5838002662632816,0.2855659648337849 l -7.536941915261207 15.078932627754854" fill="#ffce13" stroke="none" /><path d="M 110.34350942703115 81.72400993836675 l 5.159866371483951 -9.11698946956568 a31.47586359016489,31.47586359016489 0 0,0 0.4679524615927692,0.27017247966853336 l -5.3156113009371175 9.027070092620976" fill="#ff790b" stroke="none" /><line stroke="#e1ed5e" stroke-width="0.3" x1="143.13028292997686" x2="145.6673583964461" y1="26.7553504044142" y2="22.446841604673864" /><path d="M 143.63769802327073 25.89364864446614 a86.0,86.0 0 0,1 29.32050498858742,28.57503671076993" fill="none" id="id74" stroke="none" /><text fill="#e1ed5e" style="font-size:6.75px; font-family:Arial;" text-anchor="middle"><textPath startOffset="20.669276256404974" xlink:href="#id74">February</textPath></text><path d="M 110.65571695917076 81.90426304109057 l 7.826806216545422 -13.29162805897062 a36.42485889755135,36.42485889755135 0 0,0 0.5360824158214577,0.3219020878019103 l -8.053821388924314 13.155311970632788" fill="#ffbb11" stroke="none" /><path d="M 111.5731344415666 82.4767994020092 l 9.263392319098573 -14.025956636470072 a37.80886363873755,37.80886363873755 0 0,0 0.5385129265324158,0.3623355300393276 l -9.50280153372799 13.864871432373626" fill="#ffcd13" stroke="none" /><path d="M 112.16784306229584 82.88440491214696 l 6.8046509697770095 -9.57159375877872 a32.74387848641065,32.74387848641065 0 0,0 0.4553254434304385,0.3296205073467136 l -6.967957423581416 9.453372480058931" fill="#ff8a0c" stroke="none" /><path d="M 112.45986205192187 83.09580414077388 l 10.546274134134805 -14.308046333547232 a38.774816117058855,38.774816117058855 0 0,0 0.5324096348994555,0.3995301156699118 l -10.790336757945026 14.124897190613305" fill="#ffda14" stroke="none" /><path d="M 113.31354834802062 83.75963576809568 l 5.891721867963917 -7.18694269834048 a30.293251956052508,30.293251956052508 0 0,0 0.3993309353874182,0.33313606899705867 l -6.014227137513228 7.084744445431551" fill="#ff6909" stroke="none" /><path d="M 114.13192950727249 84.46653392183569 l 9.979735176289047 -10.969477151026938 a35.82985310634475,35.82985310634475 0 0,0 0.4514053538158417,0.4178140564013157 l -10.166570301418853 10.796545348493249" fill="#ffb410" stroke="none" /><path d="M 114.65682725009322 84.96080404539774 l 15.974553771765711 -16.391299451208805 a43.888011401304226,43.888011401304226 0 0,0 0.5350326441982004,0.5304597430935009 l -16.253578336093874 16.114659697886644" fill="#e5ff1a" stroke="none" /><path d="M 115.8921839302757 86.27271002978787 l 10.291113796234683 -8.889218990741515 a34.5987219043707,34.5987219043707 0 0,0 0.38438428171405925,0.4528037173386363 l -10.442192641455854 8.711248490953327" fill="#ffa30f" stroke="none" /><path d="M 116.1254893667686 86.54754324733833 l 10.100438474295714 -8.426145009800186 a34.1536602168071,34.1536602168071 0 0,0 0.3717108417711622,0.45342678762336647 l -10.243596135305504 8.251515940478324" fill="#ff9d0e" stroke="none" /><path d="M 116.7966241395341 87.39550010848427 l 17.70084204795195 -13.283041867205583 a43.13049955270961,43.13049955270961 0 0,0 0.4393107975554901,0.596009468965616 l -17.926254865091266 12.977226088971092" fill="#eeff19" stroke="none" /><path d="M 117.01052211995028 87.68569379921539 l 9.460005034587557 -6.848314110255873 a32.67866008612082,32.67866008612082 0 0,0 0.32505136629820264,0.4572254539962599 l -9.57617149941572 6.684911429550109" fill="#ff8a0c" stroke="none" /><path d="M 117.62189284568427 88.57770195909679 l 10.296485801597528 -6.674057697983262 a33.27031645959097,33.27031645959097 0 0,0 0.30653417280661,0.48192263362479404 l -10.40953766603003 6.496321389679795" fill="#ff920d" stroke="none" /><line stroke="#e1ed5e" stroke-width="0.3" x1="172.87174338648825" x2="177.1583165268699" y1="56.24261187166439" y2="53.66864786411523" /><path d="M 173.72905801456457 55.72781907015455 a86.0,86.0 0 0,1 12.242430191666344,42.057860355516425" fill="none" id="id75" stroke="none" /><text fill="#e1ed5e" style="font-size:6.75px; font-family:Arial;" text-anchor="middle"><textPath startOffset="22.145653131862474" xlink:href="#id75">March</textPath></text><path d="M 118.18653347947321 89.5 l 26.950833164741603 -15.560070782548262 a52.12014156509652,52.12014156509652 0 0,0 0.4407046739201763,0.7786829313106948 l -27.213971203683155 15.09513108113845" fill="#86ff25" stroke="none" /><path d="M 118.53625476483649 90.13048839642627 l 10.74974447303313 -5.72363345012478 a33.178546140935445,33.178546140935445 0 0,0 0.26336171070649667,0.5050308058228937 l -10.846414252714572 5.538256401197388" fill="#ff900d" stroke="none" /><path d="M 118.8641267826498 90.77261029715802 l 5.901471604049203 -2.8867054880538014 a27.56966023993319,27.56966023993319 0 0,0 0.20430528496816733,0.42691946820662247 l -5.950156146977282 2.7849735177820754" fill="#ff4306" stroke="none" /><path d="M 119.4528033332814 92.08871423366111 l 23.8654620717118 -9.705875660193874 a46.76362362377347,46.76362362377347 0 0,0 0.29603895656809004,0.7462115575111512 l -24.028559703246017 9.294763085469157" fill="#c3ff1e" stroke="none" /><path d="M 120.16314734710363 94.1308016681162 l 24.764291228706217 -7.208524258028875 a46.79211007340746,46.79211007340746 0 0,0 0.21787633723761526,0.7731662580633517 l -24.884386058018414 6.78235007606251" fill="#c3ff1e" stroke="none" /><path d="M 120.592083275326 95.88100663000786 l 7.37210968951987 -1.4746284058773262 a28.51814672706865,28.51814672706865 0 0,0 0.09190136791724797,0.4808667907646946 l -7.396337349719275 1.3478590500793173" fill="#ff5007" stroke="none" /><path d="M 120.77682067341334 96.94652285012252 l 51.305065925809885 -7.540077904117635 a72.85617190317717,72.85617190317717 0 0,0 0.17123102791513573,1.238942419352809 l -51.426941470280234 6.658247176564741" fill="#3fffbd" stroke="none" /><path d="M 120.86939407059847 97.66154086499901 l 13.003753497693255 -1.4570977026507295 a34.08513426541125,34.08513426541125 0 0,0 0.06016449424571332,0.5820369049978843 l -13.026850384420634 1.2336562753699138" fill="#ff9c0e" stroke="none" /><path d="M 120.93736805541906 98.37931529534042 l 6.243439225956533 -0.4832816823583731 a27.262115820768237,27.262115820768237 0 0,0 0.03211222646023759,0.4669047250669266 l -6.250815413581837 0.37603353313711235" fill="#ff3e05" stroke="none" /><path d="M 120.96210409425399 98.7389718711861 l 6.779452565653565 -0.40783503148389605 a27.79170865856687,27.79170865856687 0 0,0 0.024560473285190853,0.47646662034953413 l -6.785454628395328 0.2913966177576313" fill="#ff4606" stroke="none" /><path d="M 120.98066250479742 99.09900007780936 l 18.345604487292608 -0.7878391929621543 a39.362513297425764,39.362513297425764 0 0,0 0.023196353459351015,0.6753365215273347 l -18.356425527748808 0.4727964068706996" fill="#ffe115" stroke="none" /><path d="M 120.99303781780057 99.45929381324524 l 10.499351102343539 -0.2704260406339973 a31.502833132718784,31.502833132718784 0 0,0 0.009283687508459065,0.5407282551619221 l -10.502446221450663 0.0901508695030088" fill="#ff7a0b" stroke="none" /><line stroke="#e1ed5e" stroke-width="0.3" x1="184.99686870605535" x2="189.99668451229388" y1="99.2704041080226" y2="99.22748670261217" /><path d="M 185.99683186730306 99.26182062694052 a86.0,86.0 0 0,1 -10.086455211305974,41.156179273409016" fill="none" id="id76" stroke="none" /><text fill="#e1ed5e" style="font-size:6.75px; font-family:Arial;" text-anchor="middle"><textPath startOffset="21.40746469413373" xlink:href="#id76">April</textPath></text><path d="M 120.99922638620191 100.18025310272382 l 9.845441481513154 0.0845112739912504 a30.845804188654757,30.845804188654757 0 0,0 -0.009090065195979618,0.5294507261530835 l -9.842539984718506 -0.253508916113405" fill="#ff700a" stroke="none" /><path d="M 120.99303781780057 100.54070618675476 l 6.60824904710103 0.17020505438017125 a27.61044062291223,27.61044062291223 0 0,0 -0.01627084975540679,0.4737080375742795 l -6.604353510348777 -0.2836193565185614" fill="#ff4306" stroke="none" /><path d="M 120.98066250479742 100.90099992219065 l 13.014905214729692 0.5589160296110145 a34.02690081625535,34.02690081625535 0 0,0 -0.03007072356516901,0.5833640037059178 l -13.00339290170795 -0.782251826693663" fill="#ff9c0e" stroke="none" /><path d="M 120.93736805541906 101.62068470465957 l 23.54752747496653 1.8227275515344328 a44.61796743819049,44.61796743819049 0 0,0 -0.06566570171926812,0.7631349910798231 l -23.51276815054952 -2.2266835899899133" fill="#dcff1b" stroke="none" /><path d="M 120.9064616781168 101.97986365728391 l 7.978352438253508 0.7555582709643613 a29.01404866030949,29.01404866030949 0 0,0 -0.05121339848848546,0.49544317332618837 l -7.964206647283357 -0.8924059665734811" fill="#ff5708" stroke="none" /><path d="M 120.86939407059847 102.33845913500097 l 9.002860176858677 1.0087892609863394 a30.059202345524092,30.059202345524092 0 0,0 -0.06186171495581791,0.5123037421953228 l -8.984216375643195 -1.1631866801050708" fill="#ff6609" stroke="none" /><path d="M 120.7213421655516 103.40968896794604 l 14.364726278760616 2.363710242750617 a35.55790119403893,35.55790119403893 0 0,0 -0.10427808736323745,0.601448297087808 l -14.322033373905144 -2.6099515727590132" fill="#ffb010" stroke="none" /><path d="M 120.65975698304385 103.76489593502545 l 9.703021873594613 1.768213810033752 a30.862819756917876,30.862819756917876 0 0,0 -0.0994572115989553,0.5204021577030363 l -9.671238369713498 -1.934518532770103" fill="#ff710a" stroke="none" /><path d="M 120.592083275326 104.11899336999214 l 2.188732479875095 0.43780779500316164 a23.232089947521317,23.232089947521317 0 0,0 -0.08158035690783295,0.3903915402256141 l -2.180894412142898 -0.4753157865141848" fill="#ff0300" stroke="none" /><path d="M 120.51834098615036 104.47187691870673 l 10.227839922944737 2.229110107416389 a31.46793395854063,31.46793395854063 0 0,0 -0.11956187329106106,0.5268116743665411 l -10.188067188096012 -2.404356115721947" fill="#ff790b" stroke="none" /><path d="M 120.43855184770803 104.8234425847677 l 8.323400457935097 1.9642998446282438 a29.552044729932177,29.552044729932177 0 0,0 -0.12075876451316873,0.4927369682431742 l -8.288454166905632 -2.1068926374795174" fill="#ff5f08" stroke="none" /><path d="M 120.26092885502905 105.52220625578681 l 6.5801590811007005 1.7934516182217024 a27.82018784488331,27.82018784488331 0 0,0 -0.12953809134481611,0.45968498750973086 l -6.5484024976813044 -1.9061445296344417" fill="#ff4606" stroke="none" /><path d="M 120.05942366710727 106.21446072829308 l 11.75060778619874 3.640368329258061 a33.30158790228886,33.30158790228886 0 0,0 -0.17385852641600813,0.5446093577568759 l -11.686384544005477 -3.8415467207063205" fill="#ff920d" stroke="none" /><path d="M 119.83427380445688 106.89939002012753 l 24.29496413776715 8.451049671090127 a46.72285993039313,46.72285993039313 0 0,0 -0.27001325410538896,0.7552751278228095 l -24.146310713617815 -8.866859755293858" fill="#c3ff1e" stroke="none" /><path d="M 119.4528033332814 107.91128576633889 l 5.646562533267447 2.296407825280048 a27.095667095741625,27.095667095741625 0 0,0 -0.17892708339154798,0.4293598640221181 l -5.606309605339415 -2.3930001987434437" fill="#ff3c05" stroke="none" /><path d="M 119.16976305983485 108.57439118712176 l 6.278232400591505 2.8081734968923446 a27.877647887503805,27.877647887503805 0 0,0 -0.1991466793536285,0.4351714346411024 l -6.229101256382821 -2.9155339137481358" fill="#ff4706" stroke="none" /><path d="M 118.8641267826498 109.22738970284198 l 31.89693441931873 15.602389000255851 a56.50843516498051,56.50843516498051 0 0,0 -0.4337159278171788,0.8677223904163134 l -31.62439857828982 -16.147643246835912" fill="#58ff2a" stroke="none" /><line stroke="#e1ed5e" stroke-width="0.3" x1="174.33088141563837" x2="178.70328620479359" y1="141.23008692659167" y2="143.65538615756765" /><path d="M 175.20536237346943 141.71514677278685 a86.0,86.0 0 0,1 -30.301960400862466,31.631185727798858" fill="none" id="id77" stroke="none" /><text fill="#e1ed5e" style="font-size:6.75px; font-family:Arial;" text-anchor="middle"><textPath startOffset="22.145653131862474" xlink:href="#id77">May</textPath></text><path d="M 118.36410011445183 110.18625677009912 l 13.32508877215207 7.391202121071499 a36.237711756699724,36.237711756699724 0 0,0 -0.30640993028392416,0.5413969871792365 l -13.196245476846768 -7.618855878349859" fill="#ffb911" stroke="none" /><path d="M 118.00360718960297 110.81064883170644 l 5.433897211812844 3.2628991471454603 a27.338276560153396,27.338276560153396 0 0,0 -0.24504473548565578,0.40026215958900896 l -5.377084511871783 -3.3556984228590263" fill="#ff3f05" stroke="none" /><path d="M 117.62189284568427 111.42229804090321 l 24.452414702314673 15.849759784347182 a50.139929135045676,50.139929135045676 0 0,0 -0.4743608834942954,0.7182428372607285 l -24.17672937989965 -16.26718249994697" fill="#9cff22" stroke="none" /><path d="M 116.79662413953412 112.60449989151573 l 5.505891171118272 4.1317233803972355 a27.883747212116326,27.883747212116326 0 0,0 -0.29058585434876594,0.3803862112737771 l -5.434153339415201 -4.22563050491189" fill="#ff4706" stroke="none" /><path d="M 116.57777611688842 112.89097897827486 l 4.910682234932506 3.818576207879476 a27.220636966409863,27.220636966409863 0 0,0 -0.29000810803357774,0.3664157706829903 l -4.844407696257366 -3.9023119224771494" fill="#ff3e05" stroke="none" /><path d="M 116.1254893667686 113.45245675266167 l 23.353525404802483 19.48234148959948 a51.41297056767267,51.41297056767267 0 0,0 -0.5711869304612737,0.6728567678542725 l -23.015643910834093 -19.88036503990331" fill="#8eff24" stroke="none" /><path d="M 115.89218393027572 113.72728997021213 l 5.329498024915748 4.6034934597199815 a28.042421545978733,28.042421545978733 0 0,0 -0.3177993365596341,0.3615973073852903 l -5.249687624397528 -4.694303044916564" fill="#ff4906" stroke="none" /><path d="M 114.39649973595853 115.28858382429668 l 12.01145251677545 12.755746328783166 a38.52096047501439,38.52096047501439 0 0,0 -0.4853094915276279,0.4491952201079546 l -11.790713253933855 -12.9600592950235" fill="#ffd614" stroke="none" /><path d="M 112.7482090630111 116.68781488649013 l 4.237576698856049 5.547123926842057 a27.980518615291516,27.980518615291516 0 0,0 -0.38419518625933197,0.2883072302682913 l -4.14172852368595 -5.619050184374363" fill="#ff4806" stroke="none" /><path d="M 112.45986205192187 116.90419585922612 l 21.07735675024274 28.5954824552755 a56.524028268581425,56.524028268581425 0 0,0 -0.7860042678373536,0.5690064749935476 l -20.583371472031416 -28.953089701642124" fill="#57ff2a" stroke="none" /><path d="M 110.96478420261333 117.91015095944535 l 2.8788402663247337 4.702369221796177 a26.513619281117318,26.513619281117318 0 0,0 -0.3902138678524062,0.2343122158902938 l -2.7976936419148912 -4.751095438222395" fill="#ff3304" stroke="none" /><line stroke="#e1ed5e" stroke-width="0.3" x1="143.1302829299769" x2="145.66735839644613" y1="173.24464959558577" y2="177.55315839532614" /><path d="M 143.63769802327073 174.10635135553383 a86.0,86.0 0 0,1 -40.68552437913181,11.842963189579606" fill="none" id="id78" stroke="none" /><text fill="#e1ed5e" style="font-size:6.75px; font-family:Arial;" text-anchor="middle"><textPath startOffset="21.407464694133747" xlink:href="#id78">June</textPath></text><path d="M 110.65571695917076 118.09573695890943 l 7.409080539967971 12.582238536586345 a35.60161638447232,35.60161638447232 0 0,0 -0.5292901329322335,0.30558580072783903 l -7.191997939175339 -12.707571234590356" fill="#ffb110" stroke="none" /><path d="M 110.34350942703117 118.27599006163325 l 4.427527805294325 7.823017394434691 a29.989026845008425,29.989026845008425 0 0,0 -0.4502007144967528,0.24971874730399105 l -4.2925829026414775 -7.8978690571718255" fill="#ff6509" stroke="none" /><path d="M 109.71004243097381 118.62028667847754 l 4.072608442904945 7.809763682821817 a29.807868545269237,29.807868545269237 0 0,0 -0.4557378651726625,0.23270300121801302 l -3.9379433560187 -7.878524635712666" fill="#ff6209" stroke="none" /><path d="M 109.3889696526874 118.78422872680471 l 3.27694487728087 6.5560848929100635 a28.32943496129005,28.32943496129005 0 0,0 -0.43686653125764696,0.2136933120991698 l -3.163918096761154 -6.611371955106456" fill="#ff4d07" stroke="none" /><path d="M 109.06512990194946 118.94263497670748 l 4.059426511835916 8.482640123219868 a30.403942102387482,30.403942102387482 0 0,0 -0.4727252494869904,0.2212592860570557 l -3.9132125484774196 -8.551075640847458" fill="#ff6a09" stroke="none" /><path d="M 108.73861861582097 119.09545874513695 l 2.579887993342711 5.637520861107139 a27.199795441594187,27.199795441594187 0 0,0 -0.4262422916617743,0.1906527554772389 l -2.4827322988253098 -5.680977367494228" fill="#ff3d05" stroke="none" /><path d="M 108.4095320186766 119.2426549942271 l 8.297086427353484 18.98535747581026 a41.71920465817349,41.71920465817349 0 0,0 -0.6586964264969852,0.2811583359609063 l -7.969954925686069 -19.12499046143057" fill="#ffff18" stroke="none" /><path d="M 108.07796709384702 119.3841803445677 l 5.01895579930383 12.043666831624474 a34.04759855554029,34.04759855554029 0 0,0 -0.5414306497524509,0.2201951317483279 l -4.811470688360939 -12.128049219952093" fill="#ff9c0e" stroke="none" /><path d="M 106.72888874123015 119.89276391827305 l 2.011839978667439 5.947647416393215 a27.278694919288043,27.278694919288043 0 0,0 -0.4448729884047824,0.1462385875889937 l -1.9094442526149225 -5.981306925384228" fill="#ff3e05" stroke="none" /><path d="M 106.38641147887787 120.00534299687104 l 2.2368710981685433 7.006966855588821 a28.355350217708335,28.355350217708335 0 0,0 -0.4649728788415948,0.14404978643632071 l -2.116257586455324 -7.0443332298317864" fill="#ff4e07" stroke="none" /><path d="M 106.0420521117495 120.11202640906438 l 5.264457070696286 17.52366541647913 a39.29735931433579,39.29735931433579 0 0,0 -0.6477327364999876,0.18854555943709514 l -4.962864321814692 -17.611454670218745" fill="#ffe015" stroke="none" /><path d="M 103.58742460773223 120.69131181640829 l 3.1605436334742527 18.229175796092708 a39.501132026553044,39.501132026553044 0 0,0 -0.6691162531769383,0.11010282483166506 l -2.847149877244242 -18.28074461942004" fill="#ffe315" stroke="none" /><path d="M 103.2317021107853 120.74984581791261 l 3.378088619547825 21.68975221476387 a42.95123763844246,42.95123763844246 0 0,0 -0.7295061023195556,0.10721227511865704 l -3.0052574116205837 -21.74454556318141" fill="#f0ff19" stroke="none" /><path d="M 102.875027216393 120.80226474461374 l 1.0150817221002788 7.344625678723334 a28.414439780799643,28.414439780799643 0 0,0 -0.48375201905642323,0.06263138391967725 l -0.8888518811530801 -7.360968658843406" fill="#ff4f07" stroke="none" /><path d="M 102.15924093988457 120.88869738790638 l 0.8131781784972164 7.86676122118422 a28.908678199365042,28.908678199365042 0 0,0 -0.4940636775102002,0.046788343936285 l -0.6780149376020009 -7.8795613206256885" fill="#ff5507" stroke="none" /><path d="M 101.44090949804482 120.95050786540614 l 0.508777391532893 7.397511611599609 a28.41498701805243,28.41498701805243 0 0,0 -0.48691874107280236,0.02929182233704263 l -0.38171429832762555 -7.405155411761343" fill="#ff4f07" stroke="none" /><path d="M 101.08105385017728 120.97215588758144 l 0.6331170738835351 12.282302094754568 a33.298608944756936,33.298608944756936 0 0,0 -0.5711095785584878,0.024525902636573442 l -0.42218173472421777 -12.291360565816973" fill="#ff920d" stroke="none" /><path d="M 100.72087961077811 120.9876233191556 l 0.9766424255856995 28.433878610569124 a49.45064644727839,49.45064644727839 0 0,0 -0.8486359328663811,0.021857851311744097 l -0.4883931786485745 -28.446454179230912" fill="#a4ff21" stroke="none" /><line stroke="#e1ed5e" stroke-width="0.3" x1="101.45913802915013" x2="101.54496967792366" y1="184.9874750549273" y2="189.98673829345242" /><path d="M 101.47630435890484 185.9873277026323 a86.0,86.0 0 0,1 -42.54439059252881,-10.42667462771756" fill="none" id="id79" stroke="none" /><text fill="#e1ed5e" style="font-size:6.75px; font-family:Arial;" text-anchor="middle"><textPath startOffset="22.145653131862474" xlink:href="#id79">July</textPath></text><path d="M 99.63950707515114 120.99690560180557 l -0.1272515981795116 7.411767639474171 a28.41285994139885,28.41285994139885 0 0,0 -0.4876007824787071,-0.012558866517598993 l 0.2544656947289626 -7.4084910556065235" fill="#ff4f07" stroke="none" /><path d="M 98.55909050195518 120.95050786540614 l -0.5965499879782282 8.673705900477758 a29.694196106376914,29.694196106376914 0 0,0 -0.5082387978979201,-0.03934089728410425 l 0.7453577806513846 -8.6621872361986" fill="#ff6008" stroke="none" /><path d="M 98.19965949673042 120.92268563240118 l -0.7452756747215572 8.661233040836548 a29.693238385032956,29.693238385032956 0 0,0 -0.507472200995293,-0.04805814505111259 l 0.8938474391018655 -8.647163140280252" fill="#ff6008" stroke="none" /><path d="M 97.48249496171623 120.84855314841334 l -1.7835934783901768 14.770712615824976 a35.87800917043161,35.87800917043161 0 0,0 -0.6108182849921322,-0.07908265600032366 l 2.036889585273103 -14.737918363624257" fill="#ffb410" stroke="none" /><path d="M 96.76829788921471 120.74984581791261 l -1.2971736007498509 8.328785046368468 a29.429194486965724,29.429194486965724 0 0,0 -0.4985060260019269,-0.08202897687482476 l 1.4399571298048413 -8.305290070997975" fill="#ff5d08" stroke="none" /><path d="M 96.05791012581884 120.62667999033965 l -5.017752579381869 26.255001795744082 a47.73018818194923,47.73018818194923 0 0,0 -0.8034661556470373,-0.16071573351146615 l 5.467715220559865 -26.164996665569753" fill="#b8ff1f" stroke="none" /><path d="M 93.95794788825049 120.11202640906438 l -1.9510344944008375 6.494359292280797 a27.78109417539499,27.78109417539499 0 0,0 -0.45555619087488397,-0.14113247243314123 l 2.0622313181473553 -6.459910232041007" fill="#ff4606" stroke="none" /><path d="M 93.61358852112213 120.00534299687104 l -4.608390403025265 14.435717300853886 a36.15345492278469,36.15345492278469 0 0,0 -0.5896064888824291,-0.1938153639686023 l 4.855519629555437 -14.354481015483262" fill="#ffb811" stroke="none" /><path d="M 93.27111125876986 119.89276391827306 l -3.039845031364301 8.986761690164387 a30.48696703327868,30.48696703327868 0 0,0 -0.49431601441357603,-0.17194876960243985 l 3.193666817822899 -8.933254487993358" fill="#ff6c09" stroke="none" /><path d="M 92.59220618246901 119.65005319985036 l -2.146243047642442 5.693164672884951 a27.08428165128298,27.08428165128298 0 0,0 -0.43364222579042494,-0.16774212863174665 l 2.2436575359263955 -5.655482656115163" fill="#ff3c05" stroke="none" /><path d="M 92.25597844496254 119.51999308798841 l -2.980737267247834 7.513405075162619 a29.08307184675724,29.08307184675724 0 0,0 -0.46248390943345075,-0.18808817974331798 l 3.109275637871726 -7.461129638840009" fill="#ff5808" stroke="none" /><path d="M 90.93487009805054 118.94263497670748 l -8.633230812595087 18.04013199165341 a40.999475906628604,40.999475906628604 0 0,0 -0.6322504789518285,-0.3092653917308748 l 8.941641540808984 -17.889272849825314" fill="#fff617" stroke="none" /><line stroke="#e1ed5e" stroke-width="0.3" x1="58.13341422392154" x2="55.67067388415222" y1="173.97424548756322" y2="178.32567169271397" /><path d="M 57.64086615596768 174.84453072859336 a86.0,86.0 0 0,1 -31.369924170532247,-30.572349798747897" fill="none" id="id80" stroke="none" /><text fill="#e1ed5e" style="font-size:6.75px; font-family:Arial;" text-anchor="middle"><textPath startOffset="22.145653131862474" xlink:href="#id80">August</textPath></text><path d="M 89.34428304082925 118.09573695890944 l -5.108074497769373 8.674627228963242 a31.06685564792862,31.06685564792862 0 0,0 -0.45722606845398195,-0.2745511169346272 l 5.256233322780782 -8.585662111492697" fill="#ff740a" stroke="none" /><path d="M 89.03521579738668 117.91015095944536 l -15.41256672237438 25.175269441641902 a50.51849258398726,50.51849258398726 0 0,0 -0.7357317710311518,-0.45915103960994813 l 15.842462622195244 -24.906982605190407" fill="#98ff23" stroke="none" /><path d="M 88.4268655584334 117.5232005979908 l -3.1518839102142007 4.772353963321512 a26.719242479096135,26.719242479096135 0 0,0 -0.3805630764158961,-0.256059821803091 l 3.2333432747271025 -4.717544467461299" fill="#ff3605" stroke="none" /><path d="M 87.54013794807813 116.9041958592261 l -5.207117472303946 7.064454907046689 a29.776137846687977,29.776137846687977 0 0,0 -0.40885049285111846,-0.3068090319803393 l 5.327620954065831 -6.974026847802334" fill="#ff6209" stroke="none" /><path d="M 86.68645165197938 116.24036423190432 l -11.664898010916637 14.229278887432567 a39.39951693011045,39.39951693011045 0 0,0 -0.5193713098989337,-0.43327801879842875 l 11.907443654977463 -14.02693868472227" fill="#ffe215" stroke="none" /><path d="M 85.86807049272751 115.53346607816431 l -8.277254143901681 9.09815226565314 a33.29997198418545,33.29997198418545 0 0,0 -0.4195324382425918,-0.3883129615817155 l 8.432216353458239 -8.954721557939047" fill="#ff920d" stroke="none" /><path d="M 85.34317274990678 115.03919595460226 l -8.50881747269892 8.730796312895677 a33.19125830425142,33.19125830425142 0 0,0 -0.40463001461627823,-0.40117165920395326 l 8.657439407445162 -8.583444643463064" fill="#ff900d" stroke="none" /><path d="M 85.08716467003676 114.78537596483092 l -9.52761702967711 9.446184894810939 a34.416627569219756,34.416627569219756 0 0,0 -0.4123656074425059,-0.4231234406632595 l 9.688369438270424 -9.281238762079942" fill="#ffa10e" stroke="none" /><path d="M 84.83555147118756 114.52719865689866 l -8.792752626349086 8.42325811593122 a33.17636136272942,33.17636136272942 0 0,0 -0.3904449604122168,-0.4146390175055233 l 8.936053420497556 -8.271077638481207" fill="#ff900d" stroke="none" /><path d="M 84.58840730492382 114.26474011684316 l -1.8491526961698643 1.7115481293280146 a23.519675116509767,23.519675116509767 0 0,0 -0.2717108218436808,-0.2986577899363971 l 1.878261218855425 -1.6795527638339436" fill="#ff0801" stroke="none" /><path d="M 84.3458050057657 113.99807769240083 l -2.475006274899672 2.213165872661328 a24.32020469861506,24.32020469861506 0 0,0 -0.27561617335869704,-0.3136006111190899 l 2.5126335122169614 -2.1703529837309383" fill="#ff1402" stroke="none" /><path d="M 84.1078160697243 113.72728997021213 l -3.9220665571990203 3.3877876791102843 a26.182635568688042,26.182635568688042 0 0,0 -0.2908833914231892,-0.34265990368063226 l 3.9796445121293216 -3.3199609929800977" fill="#ff2f04" stroke="none" /><path d="M 83.4222238831116 112.89097897827486 l -7.223496367276474 5.617034466121366 a30.150408513375332,30.150408513375332 0 0,0 -0.31420748976725804,-0.41130769030125974 l 7.318855834398026 -5.492205862579236" fill="#ff6709" stroke="none" /><path d="M 83.20337586046588 112.60449989151573 l -26.279832860224882 19.720876509709388 a53.85639337286676,53.85639337286676 0 0,0 -0.5485606559502372,-0.744227883920917 l 26.614495535758948 -19.26684231651959" fill="#74ff27" stroke="none" /><path d="M 82.18462484594161 111.11811171558189 l -3.592031389735392 2.2416932526878237 a25.23413251374948,25.23413251374948 0 0,0 -0.22618438706024385,-0.3694551978463093 l 3.6299837412510403 -2.1797009387169575" fill="#ff2103" stroke="none" /><path d="M 81.99639281039703 110.81064883170644 l -21.979853434204394 13.198270454755503 a46.63802449460525,46.63802449460525 0 0,0 -0.4062533708416688,-0.6899070391593098 l 22.20318051517583 -12.819012247302634" fill="#c4ff1e" stroke="none" /><line stroke="#e1ed5e" stroke-width="0.3" x1="26.387840678322732" x2="22.057713659400548" y1="142.50000000000003" y2="145.00000000000006" /><path d="M 25.521815274538298 143.00000000000003 a86.0,86.0 0 0,1 -11.493303480769221,-40.785679425670985" fill="none" id="id81" stroke="none" /><text fill="#e1ed5e" style="font-size:6.75px; font-family:Arial;" text-anchor="middle"><textPath startOffset="21.40746469413373" xlink:href="#id81">September</textPath></text><path d="M 81.81346652052679 110.50000000000001 l -12.435985877447028 7.179919793982434 a35.359839587964856,35.359839587964856 0 0,0 -0.2989870347151796,-0.5282814419573829 l 12.557406277183587 -6.96538158192593" fill="#ffad10" stroke="none" /><path d="M 81.4637452351635 109.86951160357371 l -5.442965961581405 2.898072798265097 a27.166417469080233,27.166417469080233 0 0,0 -0.21563917080731695,-0.41351654311347424 l 5.491913201363671 -2.80421001204712" fill="#ff3d05" stroke="none" /><path d="M 81.1358732173502 109.22738970284198 l -8.13401660933756 3.978755124397231 a30.05498307789123,30.05498307789123 0 0,0 -0.22272279850398674,-0.46540498797976515 l 8.20111866580146 -3.838537634352361" fill="#ff6609" stroke="none" /><path d="M 80.83023694016515 108.57439118712176 l -11.844382391122576 5.297841589087258 a33.97522715524461,33.97522715524461 0 0,0 -0.233565316761636,-0.5344431532075649 l 11.933581589901179 -5.093736366103844" fill="#ff9b0e" stroke="none" /><path d="M 80.68587082218212 108.24405325689762 l -23.76804797909615 10.145166346780353 a46.8426876493228,46.8426876493228 0 0,0 -0.3093271499719542,-0.7422725533376682 l 23.938700973604586 -9.735661284001404" fill="#c2ff1e" stroke="none" /><path d="M 80.41425534168474 107.57618678355246 l -7.33876956900945 2.838793724019121 a28.868690398951372,28.868690398951372 0 0,0 -0.17481960081940018,-0.4637297609914782 l 7.386419853643287 -2.712395682833498" fill="#ff5507" stroke="none" /><path d="M 80.28708602549918 107.23885506374661 l -4.777943726076782 1.7545271176319361 a26.08990291224325,26.08990291224325 0 0,0 -0.1507745800476129,-0.4217433347677228 l 4.807358476168339 -1.6722488264832918" fill="#ff2d04" stroke="none" /><path d="M 80.16572619554312 106.89939002012753 l -1.8859525073948609 0.6560321812755622 a22.996796204678418,22.996796204678418 0 0,0 -0.12649834375093386,-0.3739698760169826 l 1.896936272718162 -0.6235606307844179" fill="#ff0000" stroke="none" /><path d="M 79.94057633289273 106.21446072829308 l -14.092107263931346 4.365770852838468 a35.75287911824809,35.75287911824809 0 0,0 -0.17659143774333694,-0.5878154629951199 l 14.164975021678313 -4.123217786252625" fill="#ffb310" stroke="none" /><path d="M 79.83685265289637 105.86919833188381 l -20.415981107494204 5.942794554694796 a42.26332739015393,42.26332739015393 0 0,0 -0.1967891372454841,-0.6983352244703286 l 20.514988736814264 -5.591451406321472" fill="#f9ff18" stroke="none" /><path d="M 79.73907114497094 105.5222062557868 l -4.69487770883713 1.2796097967373876 a25.866135831729533,25.866135831729533 0 0,0 -0.1130849219183999,-0.42940186797533936 l 4.7161521115602625 -1.1988274243892456" fill="#ff2a04" stroke="none" /><path d="M 79.2786578344484 103.40968896794605 l -41.1487616924538 6.771013077553014 a62.70212472906803,62.70212472906803 0 0,0 -0.16564858665375862,-1.0635827545953482 l 41.25893177124583 -6.063642141026215" fill="#32ff4a" stroke="none" /><path d="M 79.13060592940153 102.33845913500099 l -6.0870219345424195 0.6820635040782415 a27.12511605238595,27.12511605238595 0 0,0 -0.047879197891385804,-0.4631878070922031 l 6.097833524915471 -0.577471174703107" fill="#ff3c05" stroke="none" /><path d="M 79.0935383218832 101.97986365728391 l -7.363286928906357 0.6973109277479873 a28.396231265134965,28.396231265134965 0 0,0 -0.0417916494020224,-0.48568231448998367 l 7.37417220100612 -0.5708075658823417" fill="#ff4e07" stroke="none" /><path d="M 79.06263194458094 101.62068470465958 l -4.449136444756805 0.34439129912962274 a25.462445570646146,25.462445570646146 0 0,0 -0.029992382974661624,-0.43608266602833334 l 4.4543927888965325 -0.2679652089469461" fill="#ff2403" stroke="none" /><path d="M 79.03789590574601 101.26102812881392 l -28.694121498711592 1.7261670955731048 a49.745995571986406,49.745995571986406 0 0,0 -0.0439622194626877,-0.8528553129748265 l 28.719525307630853 -1.2333399892215475" fill="#a1ff22" stroke="none" /><line stroke="#e1ed5e" stroke-width="0.3" x1="15.003131293944662" x2="10.003315487706104" y1="100.72959589197737" y2="100.7725132973878" /><path d="M 14.003168132696942 100.73817937305945 a86.0,86.0 0 0,1 10.791469493833604,-42.45332614584628" fill="none" id="id82" stroke="none" /><text fill="#e1ed5e" style="font-size:6.75px; font-family:Arial;" text-anchor="middle"><textPath startOffset="22.145653131862435" xlink:href="#id82">October</textPath></text><path d="M 79.00077361379809 100.18025310272382 l -2.5090388130186554 0.0215370805849437 a23.5091312462831,23.5091312462831 0 0,0 0.0,-0.40358036661752156 l 2.5090388130186554 0.021537080584942782" fill="#ff0801" stroke="none" /><path d="M 79.00077361379809 99.81974689727619 l -19.012904581384593 -0.16320291898173322 a40.013605018870024,40.013605018870024 0 0,0 0.011791758649677974,-0.6868108253451383 l 19.00730139113625 0.4895606602959239" fill="#ffe915" stroke="none" /><path d="M 79.00696218219943 99.45929381324524 l -18.423352040732247 -0.4745201964404671 a39.429462006080996,39.429462006080996 0 0,0 0.02323580637481165,-0.676485150114157 l 18.412491547360585 0.7907116111187626" fill="#ffe215" stroke="none" /><path d="M 79.03789590574601 98.7389718711861 l -9.73606761157357 -0.5856976507236105 a30.75366875976394,30.75366875976394 0 0,0 0.03622494975039459,-0.526702819087086 l 9.724578700658112 0.7527438939650214" fill="#ff6f0a" stroke="none" /><path d="M 79.06263194458094 98.37931529534042 l -30.875293214434915 -2.389942963798801 a51.96765342171638,51.96765342171638 0 0,0 0.07648247162688032,-0.8888422536359863 l 30.82971712011029 2.919606264810468" fill="#88ff25" stroke="none" /><path d="M 79.0935383218832 98.0201363427161 l -2.8412893054620048 -0.2690730513046036 a23.854001616024618,23.854001616024618 0 0,0 0.04210527474497903,-0.4073303383315485 l 2.836251638235362 0.31780791191906493" fill="#ff0d01" stroke="none" /><path d="M 79.17382384314186 97.30363454192245 l -8.620535170479155 -1.1161008669451948 a29.692485707245304,29.692485707245304 0 0,0 0.06978509460755583,-0.5049301811742715 l 8.600105559316392 1.2639193563195334" fill="#ff6008" stroke="none" /><path d="M 79.22317932658666 96.9465228501225 l -7.433121433822257 -1.0924128771773283 a28.512966134901095,28.512966134901095 0 0,0 0.07532651504173439,-0.48365026216381507 l 7.413273426642255 1.2198513212725932" fill="#ff5007" stroke="none" /><path d="M 79.34024301695615 96.23510406497455 l -7.206528731803728 -1.3132695970373682 a28.325212174184127,28.325212174184127 0 0,0 0.09127962522483625,-0.47761357027455864 l 7.182922814296733 1.4367857323452413" fill="#ff4d07" stroke="none" /><path d="M 79.407916724674 95.88100663000787 l -15.71687226450128 -3.1438146295797313 a37.02821400542834,37.02821400542834 0 0,0 0.13002596499264416,-0.6222213124189937 l 15.66058858868427 3.4131523932841343" fill="#ffc312" stroke="none" /><path d="M 79.48165901384962 95.52812308129327 l -7.606448992023926 -1.6577901548527532 a28.785007030554855,28.785007030554855 0 0,0 0.10936813862022007,-0.4818961985365404 l 7.576869991846045 1.788120687328302" fill="#ff5407" stroke="none" /><path d="M 79.56144815229197 95.17655741523228 l -12.247768066988025 -2.890439914865739 a33.584214934757775,33.584214934757775 0 0,0 0.1372354549314211,-0.5599674878340238 l 12.196345085540305 3.1002632273078805" fill="#ff960d" stroke="none" /><path d="M 80.05021161711548 93.44210830539832 l -25.697330151315334 -8.447222834570342 a48.05010814253035,48.05010814253035 0 0,0 0.26430895168984125,-0.7813824510480746 l 25.54853577805313 8.887106960092577" fill="#b4ff20" stroke="none" /><path d="M 80.5471966667186 92.08871423366112 l -3.894708844529642 -1.5839441810962844 a25.204478107029004,25.204478107029004 0 0,0 0.16643855787576492,-0.3993919490723165 l 3.8669444421173984 1.6505686396098647" fill="#ff2003" stroke="none" /><path d="M 80.83023694016515 91.42560881287825 l -16.407831377483404 -7.339014275958677 a38.974372341048635,38.974372341048635 0 0,0 0.278417205889575,-0.608391841174453 l 16.27942970673878 7.619595099347801" fill="#ffdc14" stroke="none" /><path d="M 80.9802524753101 91.09779779509293 l -14.787906975123533 -6.921487149554143 a37.32755882140225,37.32755882140225 0 0,0 0.2766163048729482,-0.5780216884357181 l 14.66691141229068 7.174321340054949" fill="#ffc712" stroke="none" /><line stroke="#e1ed5e" stroke-width="0.3" x1="26.387840678322718" x2="22.05771365940052" y1="57.49999999999999" y2="54.99999999999999" /><path d="M 25.521815274538284 56.99999999999999 a86.0,86.0 0 0,1 29.574782752854787,-30.34633250058573" fill="none" id="id83" stroke="none" /><text fill="#e1ed5e" style="font-size:6.75px; font-family:Arial;" text-anchor="middle"><textPath startOffset="21.40746469413373" xlink:href="#id83">November</textPath></text><path d="M 81.81346652052679 89.5 l -54.55960043841963 -31.500000000000007 a84.0,84.0 0 0,0 0.7317051594808825,-1.2425953268257088 l 54.01082156880897 32.43194649511929" fill="#4dd2ff" stroke="none" /><path d="M 82.576782715395 88.27688183743585 l -5.3039915215149 -3.568762205295958 a27.39283894199211,27.39283894199211 0 0,0 0.2658543673401498,-0.3878894671033026 l 5.2419474173594365 3.659286407469295" fill="#ff4006" stroke="none" /><path d="M 83.2033758604659 87.39550010848427 l -4.8898973241387225 -3.6694701137331753 a27.113600146901987,27.113600146901987 0 0,0 0.28255989423597516,-0.36987997184934795 l 4.826185452548441 3.7528709988234077" fill="#ff3c05" stroke="none" /><path d="M 83.42222388311158 87.10902102172516 l -17.93848870160454 -13.949077314346603 a43.723691047433576,43.723691047433576 0 0,0 0.4658313077889481,-0.5885626398831239 l 17.696390963174032 14.25495989814441" fill="#e7ff1a" stroke="none" /><path d="M 83.64595745247003 86.82634096563983 l -10.476353953147475 -8.439009162470393 a34.452541313665904,34.452541313665904 0 0,0 0.3749637096452788,-0.4573947575208792 l 10.329943424263567 8.617606201689764" fill="#ffa10e" stroke="none" /><path d="M 84.10781606972428 86.27271002978789 l -5.019744357081636 -4.335935618937938 a27.633111720906534,27.633111720906534 0 0,0 0.31316070752247105,-0.3563193990423878 l 4.944572585600572 4.421467295791627" fill="#ff4306" stroke="none" /><path d="M 84.34580500576568 86.00192230759919 l -5.390897404876066 -4.820573701363184 a28.23185354111751,28.23185354111751 0 0,0 0.32614821802718186,-0.35849402437026284 l 5.307351486007018 4.912405301291105" fill="#ff4c07" stroke="none" /><path d="M 84.58840730492382 85.73525988315684 l -4.590297099865879 -4.248710466479269 a27.25478761374098,27.25478761374098 0 0,0 0.3207553219758574,-0.3406310365059466 l 4.51668594415375 4.326882962929727" fill="#ff3e05" stroke="none" /><path d="M 85.34317274990677 84.96080404539775 l -17.921010517260044 -18.388535545566125 a46.676854508882,46.676854508882 0 0,0 0.578631881044014,-0.5543162528574763 l 17.602706150350727 18.69346392872917" fill="#c4ff1e" stroke="none" /><path d="M 85.86807049272753 84.46653392183569 l -5.633771183605868 -6.192501422233001 a29.371765143241035,29.371765143241035 0 0,0 0.3758676437104054,-0.3361031647207491 l 5.52663851307207 6.28830011683715" fill="#ff5c08" stroke="none" /><path d="M 86.40962598614128 83.9905735841838 l -4.842717065129233 -5.704708525883384 a28.483021310819613,28.483021310819613 0 0,0 0.3754681590213416,-0.31322889224342904 l 4.7440745719459825 5.786999602038695" fill="#ff4f07" stroke="none" /><path d="M 86.96720088162412 83.53348406188908 l -3.933617245765078 -4.969996888887099 a27.338313159802684,27.338313159802684 0 0,0 0.37048628836796504,-0.28809237870121174 l 3.8477210127618684 5.036790319209116" fill="#ff3f05" stroke="none" /><path d="M 87.25179093698888 83.31218511350988 l -24.37239579647199 -31.904248461997437 a61.1484090193466,61.1484090193466 0 0,0 0.8396171892186374,-0.6300643916602361 l 23.821125618342602 32.31793188092168" fill="#30ff37" stroke="none" /><path d="M 88.12776184653039 82.6780497279521 l -3.5087753017896532 -5.119408026331406 a27.206435584014024,27.206435584014024 0 0,0 0.38750218432517847,-0.2607287632870037 l 3.4203768293674854 5.17888646367552" fill="#ff3d05" stroke="none" /><line stroke="#e1ed5e" stroke-width="0.3" x1="56.869717070023135" x2="54.33264160355391" y1="26.7553504044142" y2="22.446841604673864" /><path d="M 56.362301976729285 25.89364864446614 a86.0,86.0 0 0,1 42.16139366436587,-11.88097634709845" fill="none" id="id84" stroke="none" /><text fill="#e1ed5e" style="font-size:6.75px; font-family:Arial;" text-anchor="middle"><textPath startOffset="22.145653131862474" xlink:href="#id84">December</textPath></text></svg>