<?xml version="1.0" encoding="utf-8" ?>
<svg baseProfile="full" height="200mm" version="1.1" viewBox="0,0,200,200" width="200mm" xmlns="http://www.w3.org/2000/svg" xmlns:ev="http://www.w3.org/2001/xml-events" xmlns:xlink="http://www.w3.org/1999/xlink"><defs /><rect fill="#1a1a1a" height="200" width="200" x="0" y="0" /><text alignment-baseline="middle" fill="#e1ed5e" style="dominant-baseline: central; font-size:9.0px; font-family:Arial;" text-anchor="middle" x="100.0" y="100.0">2023</text><line stroke="#e1ed5e" stroke-width="0.3" x1="100.0" x2="100.0" y1="15.0" y2="10.0" /><path d="M 100.0 14.0 a86.0,86.0 0 0,1 42.46469731375804,11.215312516191453" fill="none" id="id61" stroke="none" /><text fill="#e1ed5e" style="font-size:6.75px; font-family:Arial;" text-anchor="middle"><textPath startOffset="22.20632615414155" xlink:href="#id61">January</textPath></text><path d="M 100.0 79.0 l 0.0 -10.39321809908484 a31.39321809908484,31.39321809908484 0 0,0 0.5403826440173429,0.004651244021946643 l -0.1789021647448145 10.391678231671452" fill="#ff7e0b" stroke="none" /><path d="M 100.36148047927253 79.00311137660856 l 0.026221695594055783 -1.5231085867012282 a22.52333428511369,22.52333428511369 0 0,0 0.38758729034487294,0.010010236215718265 l -0.0524356211337965 1.5224315583431505" fill="#ff0000" stroke="none" /><path d="M 100.72285384407766 79.0124445844662 l 0.2785164025939603 -8.086528807264473 a29.091323719715586,29.091323719715586 0 0,0 0.5003142028240465,0.02154458201248554 l -0.41767143780733834 8.080536498727794" fill="#ff5e08" stroke="none" /><path d="M 101.44485096284872 79.0497635885617 l 0.6719623156262265 -9.743405883324296 a30.766549624141593,30.766549624141593 0 0,0 0.5280269678100479,0.04098505519528364 l -0.8395794727986156 9.73039556594055" fill="#ff750a" stroke="none" /><path d="M 102.16513564639614 79.11191278185805 l 1.0541846064734046 -10.17021729825161 a31.224706601080626,31.224706601080626 0 0,0 0.5341406802022779,0.06001692905299315 l -1.2290919901854078 10.150564415728015" fill="#ff7b0b" stroke="none" /><path d="M 103.2404852339499 79.25152402106235 l 1.3550262704238325 -8.67608644784616 a29.781262565487864,29.781262565487864 0 0,0 0.5058145981628169,0.08346374268358199 l -1.5041700747255247 8.651476442222952" fill="#ff6809" stroke="none" /><path d="M 105.01212808612495 79.60689891045804 l 4.615611035032091 -18.77977194716653 a40.33865816478209,40.33865816478209 0 0,0 0.6728701617855432,0.17152958631825124 l -4.93819008550266 18.69753936467941" fill="#fff216" stroke="none" /><path d="M 105.71112130821622 79.79150937346287 l 1.91783706851463 -6.78616165385014 a28.051956396175097,28.051956396175097 0 0,0 0.46353825149850647,0.13531952666820007 l -2.0343655377365635 6.752143798263236" fill="#ff4f07" stroke="none" /><path d="M 106.40334571778207 80.00007090966166 l 3.5157817030860206 -10.981038328691795 a32.53013112501123,32.53013112501123 0 0,0 0.5318168004725213,0.17533163768565352 l -3.7042813258009595 10.918892966746906" fill="#ff8d0d" stroke="none" /><path d="M 106.74666289553966 80.11325718540242 l 3.2882958716406105 -9.692717023234211 a31.235314017261167,31.235314017261167 0 0,0 0.5076749896583771,0.1771178354320785 l -3.4546528653622617 9.634678334629925" fill="#ff7b0b" stroke="none" /><path d="M 107.4271985657038 80.35727306442388 l 4.093762230438043 -10.826781177358972 a32.574890058301875,32.574890058301875 0 0,0 0.5227755403777481,0.20282878786125053 l -4.279520935815458 10.754709685607175" fill="#ff8e0d" stroke="none" /><path d="M 108.09893153111575 80.62456947434976 l 1.825231212891451 -4.366581001797237 a25.732705212219514,25.732705212219514 0 0,0 0.40720932847687413,0.17434578306614026 l -1.9001242991586405 4.334515690768305" fill="#ff2f04" stroke="none" /><path d="M 108.76106565485865 80.91482961587045 l 4.359941378662797 -9.497728627390215 a31.45064294217938,31.45064294217938 0 0,0 0.49006360187226716,0.2300914321145142 l -4.522783191834662 9.421272212635698" fill="#ff7e0b" stroke="none" /><path d="M 109.08828744355905 81.06846463323043 l 3.569050898582292 -7.434581457939811 a29.246885822625018,29.246885822625018 0 0,0 0.4519740380908125,0.22178169758946542 l -3.6964962036835365 7.3720446002155136" fill="#ff6008" stroke="none" /><path d="M 109.41281617654863 81.2277094730956 l 3.0847796616509844 -6.152078074601396 a27.8821457552806,27.8821457552806 0 0,0 0.42718038001348707,0.21881838241888465 l -3.190220529253227 6.098067166870011" fill="#ff4d07" stroke="none" /><path d="M 110.05341064243156 81.56283822128135 l 4.366262308085096 -8.007380520469422 a30.12043800168598,30.12043800168598 0 0,0 0.4530628948253262,0.25212901044950564 l -4.503449291982458 7.931036112459736" fill="#ff6c0a" stroke="none" /><line stroke="#e1ed5e" stroke-width="0.3" x1="143.23703022742887" x2="145.7803849466894" y1="26.81831364943548" y2="22.513508569990506" /><path d="M 143.74570117128098 25.957352633546492 a86.0,86.0 0 0,1 28.547481713284135,27.462654790039103" fill="none" id="id62" stroke="none" /><text fill="#e1ed5e" style="font-size:6.75px; font-family:Arial;" text-anchor="middle"><textPath startOffset="19.985693538727396" xlink:href="#id62">February</textPath></text><path d="M 111.2981086023043 82.29822771554956 l 2.3250704858715636 -3.6428989784892543 a25.32165081094587,25.32165081094587 0 0,0 0.3653950074901343,0.23766307699496145 l -2.387432519145978 3.602336977334765" fill="#ff2904" stroke="none" /><path d="M 111.60114157652 82.49532879139004 l 4.483832409198232 -6.765542128748726 a29.116484052202054,29.116484052202054 0 0,0 0.4153886636869774,0.28047227997648677 l -4.5996257672917515 6.687357936473569" fill="#ff5e08" stroke="none" /><path d="M 111.90073688211348 82.69761687909136 l 6.486474123612048 -9.4306311871559 a32.446010271900256,32.446010271900256 0 0,0 0.45744063267898405,0.3204663962966263 l -6.647845895874683 9.317579948095338" fill="#ff8c0c" stroke="none" /><path d="M 112.48926042617603 83.11751280151076 l 4.830657070431524 -6.529890751651328 a29.12248243830737,29.12248243830737 0 0,0 0.40043946743643805,0.30160270489234065 l -4.9423426916263455 6.44577145725314" fill="#ff5e08" stroke="none" /><path d="M 113.6212207817346 84.01681056812373 l 7.9939716344994025 -9.380155053252034 a33.32440227013995,33.32440227013995 0 0,0 0.4333857579221462,0.37582785861591034 l -8.154251191068314 9.241162201216452" fill="#ff980e" stroke="none" /><path d="M 113.89432698308785 84.25364557470407 l 6.060332669387839 -6.8681373530028305 a30.159636606512414,30.159636606512414 0 0,0 0.38631480310712385,0.3468372445538348 l -6.177658460090953 6.762801099679698" fill="#ff6d0a" stroke="none" /><path d="M 114.42810811169701 84.74124197986012 l 1.5391428049200542 -1.6277537870453447 a23.240210473410396,23.240210473410396 0 0,0 0.28830782144274203,0.27735189580193026 l -1.5669338699752142 1.6010188044811124" fill="#ff0b01" stroke="none" /><path d="M 114.68862486808459 84.99185889309783 l 5.068462353144202 -5.178714745196499 a28.24626780055469,28.24626780055469 0 0,0 0.34455631378041024,0.3430766794694012 l -5.156854467091935 5.09070221507698" fill="#ff5207" stroke="none" /><path d="M 115.19652480421416 85.50635884689758 l 6.785395034716914 -6.471550698746446 a30.376702737295588,30.376702737295588 0 0,0 0.357624455592798,0.3814888345823311 l -6.895786812280175 6.35379244728606" fill="#ff700a" stroke="none" /><path d="M 115.4437574822437 85.77008943001954 l 5.002161007989781 -4.609001655340469 a27.801802041281746,27.801802041281746 0 0,0 0.32125162226909987,0.3547340650402479 l -5.080756270874917 4.522214803030672" fill="#ff4c07" stroke="none" /><path d="M 115.68641384162765 86.03803664274999 l 4.947990128791063 -4.404044006979184 a27.624062947317384,27.624062947317384 0 0,0 0.3130834163094869,0.35790846678264804 l -5.023065408678398 4.318219983993588" fill="#ff4906" stroke="none" /><path d="M 116.15771136456269 86.58626213691792 l 8.124378077402211 -6.744660513608168 a31.559164956965056,31.559164956965056 0 0,0 0.3433960372131367,0.42096293801881857 l -8.239272606691756 6.603813405981248" fill="#ff800b" stroke="none" /><path d="M 116.82858285166822 87.43820079747576 l 9.551504721058775 -7.129779461852233 a32.91910221497651,32.91910221497651 0 0,0 0.33504966218218923,0.45700736268012243 l -9.67281699575459 6.9643096555006165" fill="#ff920d" stroke="none" /><path d="M 117.04232023915458 87.72973835380427 l 3.461333473524952 -2.49211766759956 a25.265147111660532,25.265147111660532 0 0,0 0.25107225528580623,0.3551238996467108 l -3.5037183486146413 2.4321672676210557" fill="#ff2803" stroke="none" /><path d="M 117.2510076193507 88.02491185347247 l 22.74498124447559 -15.788825864767796 a48.68792505767644,48.68792505767644 0 0,0 0.4719843028141498,0.6925787245757817 l -23.01339001295847 15.394969116921606" fill="#aaff21" stroke="none" /><path d="M 117.65298651832404 88.62581576622439 l 8.34761417701002 -5.378540422224451 a30.93032524752946,30.93032524752946 0 0,0 0.2845183465218891,0.4500396969689192 l -8.438960119777864 5.234053077541326" fill="#ff770b" stroke="none" /><line stroke="#e1ed5e" stroke-width="0.3" x1="172.23445277983987" x2="176.4835382374775" y1="55.19839476539836" y2="52.563006222186495" /><path d="M 173.08426987136738 54.67131705675599 a86.0,86.0 0 0,1 12.851231095245387,41.99856678651699" fill="none" id="id63" stroke="none" /><text fill="#e1ed5e" style="font-size:6.75px; font-family:Arial;" text-anchor="middle"><textPath startOffset="22.20632615414155" xlink:href="#id63">March</textPath></text><path d="M 117.84615892207809 88.93136811851018 l 7.824457782509555 -4.852923435513797 a30.20722572011968,30.20722572011968 0 0,0 0.27026002335297766,0.4442364183038516 l -7.906833604148757 4.7175192440028635" fill="#ff6d0a" stroke="none" /><path d="M 118.03404312379186 89.2402003453031 l 6.354564085205624 -3.791375898371946 a28.399663229886944,28.399663229886944 0 0,0 0.24686113194841136,0.42196569571146647 l -6.418884891624363 3.6814307903065844" fill="#ff5407" stroke="none" /><path d="M 118.3937258080291 89.86733742301442 l 12.740639367282153 -7.0185127837111105 a35.545907093827324,35.545907093827324 0 0,0 0.29061639780681275,0.5384680481544823 l -12.85956386430743 6.79816375222417" fill="#ffb510" stroke="none" /><path d="M 118.56541770881063 90.18545643968196 l 16.316102507025462 -8.625450894854911 a39.455720093220854,39.455720093220854 0 0,0 0.3122461184461029,0.6031601148945002 l -16.462158058631683 8.343318057700065" fill="#ffe715" stroke="none" /><path d="M 118.89224826269711 90.83032412892265 l 6.155840797612227 -2.9878426348818152 a27.842629577608644,27.842629577608644 0 0,0 0.2055605513289231,0.4329629455751962 l -6.206359542782907 2.8814372736660787" fill="#ff4d07" stroke="none" /><path d="M 119.47837535516314 92.15188598940014 l 5.737988803291781 -2.3119171644796634 a27.186232818292368,27.186232818292368 0 0,0 0.17115215871409756,0.4355635754690167 l -5.776934511887579 2.212804584114862" fill="#ff4306" stroke="none" /><path d="M 119.61058180528143 92.48833698450437 l 25.96886891344993 -9.947149661764803 a48.80877449722468,48.80877449722468 0 0,0 0.29377167320514724,0.7871620301029875 l -26.136245175156706 9.498664494632482" fill="#a8ff21" stroke="none" /><path d="M 119.85752413597 93.16781622104841 l 3.106619097776306 -1.0688639964315312 a24.285354236842057,24.285354236842057 0 0,0 0.13260116373845335,0.39646060178328557 l -3.1245575552865295 1.0152302917259317" fill="#ff1a02" stroke="none" /><path d="M 120.08093135843002 93.85539295169968 l 10.851146588626953 -3.3203655059866715 a32.34778433797614,32.34778433797614 0 0,0 0.1583410224498278,0.533847212162066 l -10.906693508188484 3.1330889070780756" fill="#ff8a0c" stroke="none" /><path d="M 120.37134235888165 94.90015583598534 l 18.948022548381235 -4.743524531207424 a40.532756678772465,40.532756678772465 0 0,0 0.1636118229223386,0.678276633260785 l -19.026867171564394 4.416662666287232" fill="#fff417" stroke="none" /><path d="M 120.73433829027371 96.67025291283417 l 8.213112381059384 -1.318951521121202 a29.31834407192795,29.31834407192795 0 0,0 0.0757308276200443,0.49897153307149456 l -8.234599102118727 1.1773808756576254" fill="#ff6109" stroke="none" /><path d="M 120.83666639777658 97.38593545837742 l 55.05201307233522 -6.90655177608882 a76.48355252462088,76.48355252462088 0 0,0 0.15263803273039653,1.3077094499583402 l -55.162741458069206 5.957898587805627" fill="#44ffe4" stroke="none" /><path d="M 120.94382443527127 98.46500227214037 l 6.526249615131687 -0.478316573061084 a27.543754333948623,27.543754333948623 0 0,0 0.030585908218440514,0.4731504624958639 l -6.533516114354542 0.36590704631218485" fill="#ff4806" stroke="none" /><path d="M 120.98425023603335 99.18683210126433 l 8.575524308135623 -0.33231309214131155 a29.581960682188743,29.581960682188743 0 0,0 0.015337972690893592,0.508992642484511 l -8.579973975282162 0.1846503022318014" fill="#ff6509" stroke="none" /><line stroke="#e1ed5e" stroke-width="0.3" x1="184.98032266829074" x2="189.97916517819016" y1="98.17113171792111" y2="98.06355123074" /><path d="M 185.9800911702706 98.14961562048488 a86.0,86.0 0 0,1 -9.607161424134198,41.387399972396054" fill="none" id="id64" stroke="none" /><text fill="#e1ed5e" style="font-size:6.75px; font-family:Arial;" text-anchor="middle"><textPath startOffset="21.466115282336823" xlink:href="#id64">April</textPath></text><path d="M 120.99513854157772 99.54816195383933 l 11.440674451581458 -0.2462156646752174 a32.44332355832868,32.44332355832868 0 0,0 0.007210131434493872,0.5584326254451728 l -11.443217590133667 0.049246781169581935" fill="#ff8c0c" stroke="none" /><path d="M 120.99980553446 99.90962569577887 l 19.15598753620338 -0.08243928937399743 a40.15616492734419,40.15616492734419 0 0,0 -0.0029748121247920663,0.691241572044026 l -19.154568426789083 -0.24731176087371334" fill="#ffef16" stroke="none" /><path d="M 120.9764740272857 100.99374915477107 l 5.35716833884797 0.2537929635729797 a26.363176622032345,26.363176622032345 0 0,0 -0.025376000082278687,0.45310552810172505 l -5.3520059878781625 -0.3459702080101281" fill="#ff3805" stroke="none" /><path d="M 120.92983693683757 101.71520430193887 l 8.079335754045708 0.662103172803867 a29.10642010002185,29.10642010002185 0 0,0 -0.04521946222344105,0.49899299755865917 l -8.066741695545192 -0.8010775589110968" fill="#ff5e08" stroke="none" /><path d="M 120.89721153311464 102.0752229133903 l 28.685243337079424 2.8486228487926493 a49.82633930005895,49.82633930005895 0 0,0 -0.09210208648837989,0.8527509338789311 l -28.63195894908999 -3.341970104556372" fill="#9dff22" stroke="none" /><path d="M 120.76222939487914 103.15116336523771 l 8.932813672482776 1.3557674687943138 a30.035112923297426,30.035112923297426 0 0,0 -0.08197904668209535,0.5104836019445187 l -8.908152871439393 -1.5093303004320373" fill="#ff6b09" stroke="none" /><path d="M 120.70491114924044 103.5080841355445 l 7.7137792979556 1.3069646416349074 a28.823716995907525,28.823716995907525 0 0,0 -0.08709368516184401,0.48846763871503507 l -7.690139170454568 -1.439551031083161" fill="#ff5a08" stroke="none" /><path d="M 120.64145759157962 103.86396538481128 l 9.61310739640554 1.799519925149905 a30.780087206964897,30.780087206964897 0 0,0 -0.10197013000016435,0.5199434960153503 l -9.580707333429713 -1.9647271482332003" fill="#ff750a" stroke="none" /><path d="M 120.5718875245553 104.21870165774334 l 7.196789077351967 1.4758541711261959 a28.346558279788105,28.346558279788105 0 0,0 -0.10213664671875067,0.4771484104294889 l -7.170318391908773 -1.5995164009718539" fill="#ff5407" stroke="none" /><path d="M 120.41448212921028 104.9243191809786 l 10.050903136472133 2.4244482317907488 a31.339178066334803,31.339178066334803 0 0,0 -0.1310107263579328,0.5233227278110174 l -10.007681095819141 -2.5970987989991623" fill="#ff7d0b" stroke="none" /><path d="M 120.23288151984713 105.62410040840565 l 9.163003420233883 2.5470248134161566 a30.510413612423775,30.510413612423775 0 0,0 -0.14500780619859407,0.5047911966142802 l -9.11780297714919 -2.7043734855350188" fill="#ff720a" stroke="none" /><path d="M 119.54520255179757 107.68017299344265 l 5.540131904857596 2.1769624194497816 a26.952497534557885,26.952497534557885 0 0,0 -0.1733910455310879,0.4303423553120128 l -5.5018382450691155 -2.272004142604608" fill="#ff4006" stroke="none" /><path d="M 119.12269723197855 108.67885076344098 l 9.800545467803873 4.447985055850157 a31.76267915175201,31.76267915175201 0 0,0 -0.23024219066995003,0.49592119539621615 l -9.722528660294092 -4.616026318525203" fill="#ff830c" stroke="none" /><path d="M 118.97047184881838 109.00673069616215 l 7.699830616251384 3.655697197165929 a29.523585719421668,29.523585719421668 0 0,0 -0.2219143742317637,0.4572093397838955 l -7.635762985404906 -3.7876954929150997" fill="#ff6409" stroke="none" /><path d="M 118.64920377521936 109.65438752849418 l 19.319861389590116 10.001575997562995 a42.755196311410366,42.755196311410366 0 0,0 -0.34397062748405166,0.6506627984843546 l -19.144838253881172 -10.332653811133484" fill="#efff19" stroke="none" /><line stroke="#e1ed5e" stroke-width="0.3" x1="174.80103733775053" x2="179.2010983576182" y1="140.37084112569926" y2="142.7455964860345" /><path d="M 175.68104954172406 140.8457921977663 a86.0,86.0 0 0,1 -30.038265399797805,32.042727171017184" fill="none" id="id65" stroke="none" /><text fill="#e1ed5e" style="font-size:6.75px; font-family:Arial;" text-anchor="middle"><textPath startOffset="22.206326154141568" xlink:href="#id65">May</textPath></text><path d="M 118.30583269289576 110.29060199501025 l 6.31680237306142 3.550982913087495 a28.24647996404832,28.24647996404832 0 0,0 -0.24190823986932838,0.42178740671839454 l -6.254742137039712 -3.6591901656642047" fill="#ff5207" stroke="none" /><path d="M 118.12598468904814 110.60418214915192 l 13.460210780849142 7.874580572295425 a36.59443148865838,36.59443148865838 0 0,0 -0.3227613597452631,0.5409666041317869 l -13.322668545405651 -8.105109270313315" fill="#ffc212" stroke="none" /><path d="M 117.35343817320211 111.8261652097733 l 42.42739389999445 28.913772860083157 a72.34286721784991,72.34286721784991 0 0,0 -0.7101282391227437,1.0229926923230834 l -41.92340475370957 -29.63980681459326" fill="#3effb9" stroke="none" /><path d="M 116.498646956653 112.99209946851258 l 7.605740227840076 5.989250744705417 a30.680826870486797,30.680826870486797 0 0,0 -0.33030406660777123,0.41210510966518293 l -7.50151824917745 -6.11928368794885" fill="#ff740a" stroke="none" /><path d="M 116.0416608686014 113.55231037782055 l 5.752525141892921 4.859846297570188 a28.53058108940584,28.53058108940584 0 0,0 -0.3201640542865132,0.37242312623024676 l -5.668018578035628 -4.958146522961963" fill="#ff5608" stroke="none" /><path d="M 115.80600337817218 113.82643327865902 l 11.77858604877035 10.303416380713193 a36.649136667006154,36.649136667006154 0 0,0 -0.41944265075921544,0.47124826460899 l -11.599484548362796 -10.50463881506305" fill="#ffc312" stroke="none" /><path d="M 115.32070863581623 114.36230785411682 l 5.796664300239367 5.434048723593587 a28.945451688863173,28.945451688863173 0 0,0 -0.3438905030356214,0.360567817576736 l -5.702267245824782 -5.53302365775283" fill="#ff5c08" stroke="none" /><path d="M 114.81725581225074 114.88116024355365 l 9.54519141621954 9.586358285230915 a34.52807984693639,34.52807984693639 0 0,0 -0.42477767013468554,0.41573435407519443 l -9.37876379370906 -9.749242742228681" fill="#ffa70f" stroke="none" /><path d="M 114.55890576462653 115.13401014063108 l 1.3055740262686761 1.357146675191873 a22.883180988660346,22.883180988660346 0 0,0 -0.2862186495652668,0.2706375980313072 l -1.2820195423126017 -1.3794189099691019" fill="#ff0500" stroke="none" /><path d="M 114.29624159901734 115.38237550388516 l 6.368107474055275 6.851914171746297 a30.354224747037907,30.354224747037907 0 0,0 -0.38578839336040405,0.3524085503802091 l -6.249219531228007 -6.96051548871309" fill="#ff6f0a" stroke="none" /><path d="M 114.0293411484842 115.62618273729858 l 6.863668839534224 7.644902379927652 a31.27397110845736,31.27397110845736 0 0,0 -0.40366900113932414,0.35619095971547815 l -6.731057485488312 -7.76191648141542" fill="#ff7c0b" stroke="none" /><path d="M 113.20401910651253 116.32954008644616 l 6.229084684502052 7.7035701960832785 a30.906891024568736,30.906891024568736 0 0,0 -0.4165697108526444,0.33094817214118444 l -6.095557480932056 -7.809652282229589" fill="#ff770b" stroke="none" /><path d="M 112.63410532772338 116.77436683061366 l 7.151522930837461 9.495113894307682 a32.88702940587634,32.88702940587634 0 0,0 -0.45511738207782376,0.3366849589412418 l -6.987020578341073 -9.616808801988693" fill="#ff920d" stroke="none" /><path d="M 112.34349029814194 116.9893568818739 l 8.309133699357764 11.436541398573782 a35.13634259612771,35.13634259612771 0 0,0 -0.49236502025616957,0.35128936885068546 l -8.111041351252709 -11.577875029268686" fill="#ffaf10" stroke="none" /><path d="M 112.04921762599082 117.19931262002967 l 6.207220817851784 8.860320616792752 a31.818265651847124,31.818265651847124 0 0,0 -0.4512786365544216,0.31039356120043526 l -6.053785296674479 -8.96585496735828" fill="#ff830c" stroke="none" /><path d="M 111.1453310114006 117.79835938074945 l 3.4749503499119943 5.549266782182581 a27.547491256518676,27.547491256518676 0 0,0 -0.4040571569852673,0.24820490741322604 l -3.3789139929944185 -5.608260156424185" fill="#ff4806" stroke="none" /><line stroke="#e1ed5e" stroke-width="0.3" x1="143.8653032363475" x2="146.44561519142675" y1="172.8068346515853" y2="177.08958963109032" /><path d="M 144.38136562736335 173.6633856474863 a86.0,86.0 0 0,1 -40.68145358897372,12.25698825130547" fill="none" id="id66" stroke="none" /><text fill="#e1ed5e" style="font-size:6.75px; font-family:Arial;" text-anchor="middle"><textPath startOffset="21.466115282336833" xlink:href="#id66">June</textPath></text><path d="M 110.21172684928248 118.3499491758327 l 13.50770925974046 24.272660447784894 a48.77805347138527,48.77805347138527 0 0,0 -0.7371924501556646,0.4019761020088095 l -13.087893997716147 -24.501577201553474" fill="#a9ff21" stroke="none" /><path d="M 109.2508944713604 118.85261126421891 l 4.836089061591316 9.855577468706636 a31.978167636419162,31.978167636419162 0 0,0 -0.49625141587018784,0.23823083676656903 l -4.665724977720896 -9.937362581972765" fill="#ff850c" stroke="none" /><path d="M 108.59647513512805 119.15986991738527 l 4.782576239468459 10.659431590018599 a32.683172399165166,32.683172399165166 0 0,0 -0.5152725079980917,0.22588032504319952 l -4.598383056812613 -10.740176468356253" fill="#ff8f0d" stroke="none" /><path d="M 107.93186726928326 119.44442032107085 l 12.545443674805094 30.75428163957068 a54.21466537786797,54.21466537786797 0 0,0 -0.8671220699937421,0.34504576701052847 l -12.014200528769486 -30.965674250987277" fill="#6dff28" stroke="none" /><path d="M 106.91757812671514 119.82793768551818 l 4.073852624921406 11.676932953597653 a33.367175846263116,33.367175846263116 0 0,0 -0.543933058027703,0.18453162563952819 l -3.8722498339564755 -11.745327566135304" fill="#ff980e" stroke="none" /><path d="M 106.57524785965236 119.94407469862006 l 2.713946367130656 8.231955696490514 a29.667790922296426,29.667790922296426 0 0,0 -0.4863803406119725,0.15572362567903492 l -2.571844681427743 -8.277452168829257" fill="#ff6609" stroke="none" /><path d="M 106.2309692047433 120.05430185196036 l 2.5830055880611122 8.313373416906801 a29.705406104076225,29.705406104076225 0 0,0 -0.4896087831922029,0.14751511005371978 l -2.439521830428663 -8.356603896066247" fill="#ff6609" stroke="none" /><path d="M 105.53697534728816 120.25689768951611 l 5.524796000795029 20.212339828886066 a41.95380758260357,41.95380758260357 0 0,0 -0.6982503195508293,0.18441425569177156 l -5.176055238432702 -20.30444543388142" fill="#f9ff18" stroke="none" /><path d="M 105.18746579009965 120.34920634021253 l 1.6471668612504289 6.461447591676799 a27.66809295442014,27.66809295442014 0 0,0 -0.46251395947946156,0.11367467833132491 l -1.5356996170277561 -6.488843528322154" fill="#ff4a06" stroke="none" /><path d="M 104.48393922423573 120.51570834832081 l 1.5704283916512871 7.185300525684949 a28.354915973531774,28.354915973531774 0 0,0 -0.47772435151847914,0.10011178268756406 l -1.4465125787034299 -7.2112682890990545" fill="#ff5407" stroke="none" /><path d="M 104.13013068566511 120.58985236759428 l 2.5229812212895992 12.577764440448934 a33.82831214783931,33.82831214783931 0 0,0 -0.5719117312790658,0.10960824446102554 l -2.3061018754388294 -12.619329883258429" fill="#ff9e0e" stroke="none" /><path d="M 103.7750983002368 120.6578951692458 l 2.132394643755392 11.668778269269664 a32.86201893499149,32.86201893499149 0 0,0 -0.5573258020572471,0.09689823452972779 l -1.931219870226095 -11.703755082320399" fill="#ff910d" stroke="none" /><path d="M 103.06178313531738 120.77559828337769 l 3.0010506760769653 20.363500783268616 a41.58345134593719,41.58345134593719 0 0,0 -0.7090402384168392,0.09826651625520731 l -2.6500818464732956 -20.412141865016427" fill="#fdff18" stroke="none" /><path d="M 102.70371172650421 120.8252237178851 l 1.0430431351660265 8.033995053652387 a29.101420585547203,29.101420585547203 0 0,0 -0.4973191332571873,0.06021842118505439 l -0.9045965788574589 -8.050759003562792" fill="#ff5e08" stroke="none" /><path d="M 101.98527174616119 120.90594882070398 l 0.7949509995673586 8.371249399009631 a29.40890977428895,29.40890977428895 0 0,0 -0.5043707602017372,0.04351923147168348 l -0.6507359216240797 -8.383692882759979" fill="#ff6209" stroke="none" /><path d="M 101.62511606390274 120.93702456842531 l 0.8306009400882353 10.700966334319247 a31.733153237045922,31.733153237045922 0 0,0 -0.5449598464374948,0.037583621653511264 l -0.6462783328718101 -10.713678300489043" fill="#ff820c" stroke="none" /><path d="M 101.26447882468166 120.96189622390904 l 0.5244200797390154 8.693573252988896 a29.709376115722492,29.709376115722492 0 0,0 -0.5107352027508291,0.026399176156847875 l -0.3746968085747066 -8.701312235907945" fill="#ff6709" stroke="none" /><line stroke="#e1ed5e" stroke-width="0.3" x1="102.19456741930631" x2="102.32365962044197" y1="184.97166512339345" y2="189.96999836594603" /><path d="M 102.22038585953345 185.97133177190398 a86.0,86.0 0 0,1 -42.740103519485714,-10.115201625700543" fill="none" id="id67" stroke="none" /><text fill="#e1ed5e" style="font-size:6.75px; font-family:Arial;" text-anchor="middle"><textPath startOffset="22.20632615414155" xlink:href="#id67">July</textPath></text><path d="M 100.54218724476979 120.99299961872073 l 0.24632896948866828 9.537634852976113 a30.540815297966628,30.540815297966628 0 0,0 -0.525651512010848,0.009049567481170742 l -0.0821177675851523 -9.540461897736444" fill="#ff720a" stroke="none" /><path d="M 100.18074693466247 120.99922214144158 l 0.2465158648506934 28.64027219635266 a49.641333096641894,49.641333096641894 0 0,0 -0.854525599026278,0.0 l 0.24651586485067367 -28.64027219635266" fill="#9fff22" stroke="none" /><path d="M 99.45781275523022 120.99299961872073 l -0.26935816684618347 10.429304540910545 a31.43278232443791,31.43278232443791 0 0,0 -0.5407630735266868,-0.018624973642461774 l 0.4488415920475134 -10.42312276884199" fill="#ff7e0b" stroke="none" /><path d="M 99.09653310690486 120.98055641714683 l -0.49725959669569164 11.547498975530297 a32.55820053885462,32.55820053885462 0 0,0 -0.5597094697863282,-0.02893058635857189 l 0.6959571348955088 -11.537228582409524" fill="#ff8d0d" stroke="none" /><path d="M 98.37488393609728 120.93702456842531 l -0.7218659476509607 9.300089647001677 a30.32806292263543,30.32806292263543 0 0,0 -0.5201344854037722,-0.04487939201241146 l 0.8818447507962746 -9.286286002710604" fill="#ff6f0a" stroke="none" /><path d="M 98.01472825383883 120.90594882070398 l -2.5940748881114786 27.31696401401822 a48.439856914136726,48.439856914136726 0 0,0 -0.8293996938767971,-0.08597066948106956 l 3.063907178593869 -27.268263976081393" fill="#acff20" stroke="none" /><path d="M 97.2962882734958 120.8252237178851 l -1.2725059922234996 9.801422877529772 a30.883681597684575,30.883681597684575 0 0,0 -0.5265982561438217,-0.07298171992729233 l 1.4410328395541523 -9.778066592109875" fill="#ff770a" stroke="none" /><path d="M 95.86986931433489 120.58985236759428 l -2.655505683319386 13.238435812848577 a34.50214402252669,34.50214402252669 0 0,0 -0.5812930073410947,-0.12181560149437481 l 2.8829901520898678 -13.19076423062766" fill="#ffa70f" stroke="none" /><path d="M 95.51606077576429 120.51570834832081 l -3.07363455415745 14.063034070932018 a35.395004572861566,35.395004572861566 0 0,0 -0.5940964725752946,-0.1352144229460795 l 3.315251176125607 -14.00804291440825" fill="#ffb310" stroke="none" /><path d="M 94.11515582081647 120.15858648285463 l -3.0299084509830663 10.378978556531349 a31.812194092702747,31.812194092702747 0 0,0 -0.5243331663546952,-0.15797728185212015 l 3.208116591778007 -10.325285905573503" fill="#ff830c" stroke="none" /><path d="M 93.76903079525671 120.05430185196036 l -1.873700956581773 6.030484717368432 a27.314863514052355,27.314863514052355 0 0,0 -0.44780592712583306,-0.14337331662060168 l 1.9772282287985463 -5.997338554088123" fill="#ff4506" stroke="none" /><path d="M 93.42475214034765 119.94407469862007 l -2.5610499924411516 7.7681896479636725 a29.17947109968076,29.17947109968076 0 0,0 -0.4756674349668674,-0.1613722198766412 l 2.694387160345245 -7.722954441188908" fill="#ff5f08" stroke="none" /><path d="M 92.7421414339146 119.70592522655815 l -4.567817893220985 12.402153752755835 a34.21659479641505,34.21659479641505 0 0,0 -0.5509356973736511,-0.2083167390530444 l 4.7806238113549195 -12.321688763596157" fill="#ffa30f" stroke="none" /><path d="M 92.06813273071674 119.44442032107085 l -3.485195801294649 8.543714835476326 a30.22722346989061,30.22722346989061 0 0,0 -0.4800781774931747,-0.2006727171276408 l 3.631745438285286 -8.482457075328712" fill="#ff6e0a" stroke="none" /><path d="M 91.40352486487194 119.15986991738527 l -3.1082574065149666 6.9277007892711095 a28.593043021794536,28.593043021794536 0 0,0 -0.447320463383741,-0.20534288505622308 l 3.2270458656661267 -6.873170833880812" fill="#ff5708" stroke="none" /><path d="M 90.42595943632237 118.69057910512821 l -12.54640128610945 24.493264276774056 a48.51966896901169,48.51966896901169 0 0,0 -0.7400614941513015,-0.3871651962736802 l 12.966153682787247 -24.273669661555658" fill="#abff21" stroke="none" /><line stroke="#e1ed5e" stroke-width="0.3" x1="58.666819895761336" x2="56.23545636021788" y1="174.27360380694188" y2="178.64263932499728" /><path d="M 58.180547188652646 175.14741091055294 a86.0,86.0 0 0,1 -31.652253787137756,-30.449443065178592" fill="none" id="id68" stroke="none" /><text fill="#e1ed5e" style="font-size:6.75px; font-family:Arial;" text-anchor="middle"><textPath startOffset="22.20632615414155" xlink:href="#id68">August</textPath></text><path d="M 89.7882731507175 118.34994917583269 l -7.284640981218052 13.090126062168565 a35.98056723053924,35.98056723053924 0 0,0 -0.5385969369425911,-0.30582939731260095 l 7.50888668508185 -12.96279349906133" fill="#ffba11" stroke="none" /><path d="M 89.4739219176387 118.17145234162733 l -3.6806496346009134 6.354004682280953 a28.34306184334138,28.34306184334138 0 0,0 -0.42006054662273173,-0.24817917511048404 l 3.7894780522520275 -6.28970693487672" fill="#ff5407" stroke="none" /><path d="M 88.8546689885994 117.79835938074946 l -4.859518156232722 7.760330354785746 a30.156289855949545,30.156289855949545 0 0,0 -0.4375795381835994,-0.2792839646280603 l 4.992379496463244 -7.675531961333881" fill="#ff6d0a" stroke="none" /><path d="M 88.54995079064634 117.60387380957326 l -17.04831589836617 26.210926805049116 a52.267519232425954,52.267519232425954 0 0,0 -0.7499774275631234,-0.4970441439696684 l 17.496968024669254 -25.91358463998813" fill="#82ff25" stroke="none" /><path d="M 87.95078237400918 117.19931262002967 l -5.23093274695682 7.466746008072266 a30.11674028105706,30.11674028105706 0 0,0 -0.42202541138036787,-0.30110392555025095 l 5.358685486186075 -7.375597820677796" fill="#ff6c0a" stroke="none" /><path d="M 87.07902340077011 116.55440617244103 l -8.12547607348438 10.410391987934487 a34.20604493265178,34.20604493265178 0 0,0 -0.46103641533145084,-0.3662752114938114 l 8.30346998153319 -10.268982862435545" fill="#ffa30f" stroke="none" /><path d="M 86.51685102203217 116.09983520530335 l -16.610219641685916 19.833779141060973 a46.870411507384915,46.870411507384915 0 0,0 -0.6140794444153139,-0.5233318246997747 l 16.949164562678288 -19.544922926138245" fill="#beff1e" stroke="none" /><path d="M 85.44109423537348 115.13401014063109 l -6.5677774407152505 6.8272170997009365 a30.473467888646535,30.473467888646535 0 0,0 -0.374896280014597,-0.36691491520174546 l 6.684323673105642 -6.713152081576622" fill="#ff710a" stroke="none" /><path d="M 84.9287848128048 114.62390073753433 l -4.703027441257508 4.563441342492664 a27.55312627679281,27.55312627679281 0 0,0 -0.3273487854803859,-0.3432238928529864 l 4.780882778116852 -4.481810333057177" fill="#ff4806" stroke="none" /><path d="M 84.43433777217949 114.09645910891817 l -20.604543267235982 18.659733031171907 a48.79807259588347,48.79807259588347 0 0,0 -0.5584849953637396,-0.6274638127499532 l 20.92268711224806 -18.30229504868109" fill="#a8ff21" stroke="none" /><path d="M 83.72743513129214 113.27417163493432 l -7.6895171087292296 6.272641757128293 a30.923442345210105,30.923442345210105 0 0,0 -0.33291601961220135,-0.4153639226443428 l 7.796351040396292 -6.13935000090569" fill="#ff770b" stroke="none" /><path d="M 83.50135304334701 112.99209946851258 l -9.297857700642815 7.321733255351326 a32.83460754245448,32.83460754245448 0 0,0 -0.34584720703386296,-0.44705413576393843 l 9.422511724894747 -7.160601125474135" fill="#ff910d" stroke="none" /><path d="M 83.06392112726016 112.41649034213515 l -6.301810764933374 4.620099675297521 a28.81397081685838,28.81397081685838 0 0,0 -0.2898139475438102,-0.4025262252941841 l 6.380404504852792 -4.510939844552198" fill="#ff5a08" stroke="none" /><path d="M 82.44556493220864 111.52570212397912 l -7.507492185414672 4.929188452549688 a29.98105437656468,29.98105437656468 0 0,0 -0.2795306970361764,-0.4338378493627874 l 7.5912277458278945 -4.799229003265453" fill="#ff6a09" stroke="none" /><path d="M 82.05923443525364 110.91462005526583 l -6.87276331570939 4.18118168090546 a29.04469737420247,29.04469737420247 0 0,0 -0.2561730196790307,-0.4293607160266182 l 6.9437172110866525 -4.06225887099273" fill="#ff5d08" stroke="none" /><line stroke="#e1ed5e" stroke-width="0.3" x1="26.63291911575756" x2="22.317208475507996" y1="142.92168965132927" y2="145.44649492493687" /><path d="M 25.769776987707644 143.4266507060508 a86.0,86.0 0 0,1 -11.730757126820373,-40.83630448921669" fill="none" id="id69" stroke="none" /><text fill="#e1ed5e" style="font-size:6.75px; font-family:Arial;" text-anchor="middle"><textPath startOffset="21.46611528233685" xlink:href="#id69">September</textPath></text><path d="M 81.69416730710424 110.29060199501025 l -16.316729416246595 9.172429962611467 a39.718149755304864,39.718149755304864 0 0,0 -0.32989439477441157,-0.5988541508199919 l 16.472200220472523 -8.890205293393652" fill="#ffea16" stroke="none" /><path d="M 81.35079622478065 109.6543875284942 l -6.382820007478042 3.3042814384762886 a28.187396404298354,28.187396404298354 0 0,0 -0.2193534197929638,-0.4328051073158517 l 6.4387520970572725 -3.193922119457752" fill="#ff5107" stroke="none" /><path d="M 80.87730276802145 108.67885076344099 l -8.257835567721534 3.7478249878599894 a30.068519195720686,30.068519195720686 0 0,0 -0.2098480741457863,-0.4731520089251051 l 8.321124726598601 -3.6051246424421883" fill="#ff6b09" stroke="none" /><path d="M 80.58989483394504 108.01547362559985 l -25.621119608378716 10.5803346618878 a48.719762833480246,48.719762833480246 0 0,0 -0.31342440918110775,-0.7778936798387868 l 25.79944663181721 -10.137741614206208" fill="#a9ff21" stroke="none" /><path d="M 80.32549172779594 107.34259656027581 l -9.692953971415006 3.6174449447345975 a31.345978185756813,31.345978185756813 0 0,0 -0.18430799147621132,-0.5071364354099559 l 9.753786223896443 -3.4500607123185247" fill="#ff7d0b" stroke="none" /><path d="M 79.97269907076064 106.31721596034903 l -6.243791834613067 1.9694806389576074 a27.547044406540227,27.547044406540227 0 0,0 -0.1387495140379385,-0.4534414398691399 l 6.276768121157136 -1.8617122265364197" fill="#ff4806" stroke="none" /><path d="M 79.76711848015287 105.62410040840567 l -26.503967047033314 7.367263617264381 a48.50885025653554,48.50885025653554 0 0,0 -0.2167004074768755,-0.8064228307517448 l 26.626855530851966 -6.909949853337097" fill="#acff21" stroke="none" /><path d="M 79.67330655649465 105.27499134158121 l -12.630723563067466 3.2778059854282344 a34.049106858507095,34.049106858507095 0 0,0 -0.14233934954930696,-0.5685749461267507 l 12.685274226911833 -3.0599031999040918" fill="#ffa10e" stroke="none" /><path d="M 79.50377843672027 104.57218783832718 l -6.4329160000613195 1.4350206065860946 a27.591031209543136,27.591031209543136 0 0,0 -0.09941437614543036,-0.46443086860146787 l 6.456664414931191 -1.324075918568463" fill="#ff4906" stroke="none" /><path d="M 79.4281124754447 104.21870165774334 l -7.014560006108918 1.4384842368396888 a28.16053691973856,28.16053691973856 0 0,0 -0.09329192575940148,-0.475693519555872 l 7.038281864843986 -1.317526990215862" fill="#ff5107" stroke="none" /><path d="M 79.35854240842038 103.8639653848113 l -12.532472545234993 2.3460087489480492 a33.75016176945256,33.75016176945256 0 0,0 -0.10197942075712699,-0.5719547492128052 l 12.57099840833131 -2.1299352490020302" fill="#ff9d0e" stroke="none" /><path d="M 79.23777060512086 103.15116336523772 l -7.734917374262206 1.1739581429019128 a28.823498227004915,28.823498227004915 0 0,0 -0.07022769713362297,-0.4911723501856478 l 7.753979122412428 -1.0406403207358643" fill="#ff5a08" stroke="none" /><path d="M 79.18660465613746 102.79330883721812 l -38.851812702180794 5.214195472193673 a60.200142661316704,60.200142661316704 0 0,0 -0.1289959791849373,-1.028224874379974 l 38.93581019061258 -4.54465284352629" fill="#31ff2f" stroke="none" /><path d="M 79.07016306316243 101.71520430193888 l -8.584522802002652 0.703503351914415 a29.613300685814835,29.613300685814835 0 0,0 -0.03726120540128696,-0.5083995435350072 l 8.595360566068276 -0.5556306718826473" fill="#ff6509" stroke="none" /><path d="M 79.04373962182676 101.35467743843564 l -10.837059648159006 0.7005410287625953 a31.859678611760845,31.859678611760845 0 0,0 -0.030666684014007004,-0.54757424378321 l 10.847512683060545 -0.5138950686439477" fill="#ff840c" stroke="none" /><path d="M 79.0235259727143 100.99374915477108 l -13.098465071268281 0.6205327252063279 a34.11315553504522,34.11315553504522 0 0,0 -0.022738639009804048,-0.5867832359718452 l 13.107205843129286 -0.3949722422204858" fill="#ffa20f" stroke="none" /><path d="M 79.0095281055655 100.63252640178507 l -37.65173745308533 1.1345965984914814 a58.66882852807314,58.66882852807314 0 0,0 -0.021729641458828535,-1.009691053605155 l 37.66568915722917 -0.48631572909619725" fill="#40ff2d" stroke="none" /><line stroke="#e1ed5e" stroke-width="0.3" x1="15.007084014347285" x2="10.007500721073583" y1="101.09737516637583" y2="101.16192664675087" /><path d="M 14.007167355692545 101.11028546245083 a86.0,86.0 0 0,1 10.666146001902534,-42.60595125391555" fill="none" id="id70" stroke="none" /><text fill="#e1ed5e" style="font-size:6.75px; font-family:Arial;" text-anchor="middle"><textPath startOffset="22.20632615414155" xlink:href="#id70">October</textPath></text><path d="M 79.00486145842228 99.54816195383935 l -11.908839724973047 -0.2562910867540187 a32.911597236149554,32.911597236149554 0 0,0 0.017064358412378276,-0.5662829798736133 l 11.902663672105025 0.4612442140526264" fill="#ff920d" stroke="none" /><path d="M 79.03285615573316 98.82574320788736 l -14.878303609129894 -0.8332536466530716 a35.90161836597315,35.90161836597315 0 0,0 0.03986688201331425,-0.6167230192463053 l 14.861756136112167 1.0892357301523887" fill="#ffb911" stroke="none" /><path d="M 79.05617556472873 98.46500227214037 l -6.566810742332986 -0.48128934617068686 a27.5844242542805,27.5844242542805 0 0,0 0.03878306498331505,-0.47325162669778426 l 6.557553193530174 0.5942548900762495" fill="#ff4906" stroke="none" /><path d="M 79.16333360222342 97.38593545837743 l -7.590708793918058 -0.9522925752691951 a28.650210529323868,28.650210529323868 0 0,0 0.06560079762310796,-0.48880213945917655 l 7.5731919972371164 1.0828130567930312" fill="#ff5808" stroke="none" /><path d="M 79.21141760316559 97.0276538004421 l -5.214447105628601 -0.7455603148568233 a26.267477460842894,26.267477460842894 0 0,0 0.06785027840317567,-0.44704855998695076 l 5.200840933786123 0.8352079872358661" fill="#ff3605" stroke="none" /><path d="M 79.26566170972629 96.67025291283419 l -7.058548436640641 -1.133539000255826 a28.148987109899068,28.148987109899068 0 0,0 0.08094594912657342,-0.4777475738325046 l 7.037990625993845 1.2548723624041587" fill="#ff5107" stroke="none" /><path d="M 79.3925641242962 95.95851677861259 l -8.094504587856267 -1.5874757381064644 a29.248701942845482,29.248701942845482 0 0,0 0.10114577755532882,-0.4932227325515415 l 8.065979514385944 1.7265741268214083" fill="#ff6008" stroke="none" /><path d="M 79.46518482838121 95.60439243477599 l -16.433692703494284 -3.517736262456535 a37.805972875292966,37.805972875292966 0 0,0 0.14169248905401297,-0.6351796453240693 l 16.370705827438233 3.8000940773305634" fill="#ffd213" stroke="none" /><path d="M 79.54389044137918 95.25157060432595 l -14.19615564814469 -3.295320774071921 a35.57360539435525,35.57360539435525 0 0,0 0.14359404351934613,-0.5952900142236849 l 14.13732880436453 3.539196019955003" fill="#ffb510" stroke="none" /><path d="M 79.71946130924805 94.55025226153421 l -6.6037988541221635 -1.7745602530245626 a27.838071613936183,27.838071613936183 0 0,0 0.12833779115000396,-0.4616993179879984 l 6.572274292405798 1.8879708744315036" fill="#ff4c07" stroke="none" /><path d="M 79.81627453868168 94.20196356495316 l -6.558798174638869 -1.8840996851426193 a27.824050492134468,27.824050492134468 0 0,0 0.13619753852654912,-0.4591903924883 l 6.525394739000613 1.9967194643774584" fill="#ff4c07" stroke="none" /><path d="M 80.02781315780177 93.51064311812611 l -8.685995246643143 -2.8222509370197564 a30.132995881758415,30.132995881758415 0 0,0 0.16453004069364083,-0.4919238798951277 l 8.636127912177729 2.971347919837206" fill="#ff6c0a" stroke="none" /><path d="M 80.2630227832202 92.82701384747504 l -25.658117630584982 -9.324899169847171 a48.30005027234844,48.30005027234844 0 0,0 0.29070974902693125,-0.7789575955982893 l 25.493803293056423 9.765179902474802" fill="#aeff20" stroke="none" /><path d="M 80.65960295795068 91.81776055985345 l -4.827170310674521 -2.042205401183448 a26.24139066554673,26.24139066554673 0 0,0 0.1795776964422202,-0.4144900824285276 l 4.791301904389621 2.1249946281985745" fill="#ff3605" stroke="none" /><path d="M 80.95270993114464 91.15688171328213 l -4.755650577979046 -2.2079141147816936 a26.243195319467382,26.243195319467382 0 0,0 0.1937520191282817,-0.4080911652094743 l 4.716940365009013 2.2894476956317003" fill="#ff3605" stroke="none" /><path d="M 81.26839172434947 90.50648371742162 l -50.54193635715633 -25.615563207321035 a77.66254855862998,77.66254855862998 0 0,0 0.6146087127232803,-1.1872284069572137 l 50.09351821127294 26.481764336538586" fill="#45fff0" stroke="none" /><line stroke="#e1ed5e" stroke-width="0.3" x1="26.266209847984243" x2="21.928928074336255" y1="57.711370442889674" y2="55.22380399835377" /><path d="M 25.398753493254645 57.213857153982495 a86.0,86.0 0 0,1 29.58750427330803,-30.492523968695096" fill="none" id="id71" stroke="none" /><text fill="#e1ed5e" style="font-size:6.75px; font-family:Arial;" text-anchor="middle"><textPath startOffset="21.46611528233685" xlink:href="#id71">November</textPath></text><path d="M 81.78341655067845 89.55222093294921 l -4.54042134771558 -2.6040733293498084 a26.234178437866095,26.234178437866095 0 0,0 0.22803787962150754,-0.3897906558378971 l 4.494923793623748 2.681843397541597" fill="#ff3605" stroke="none" /><path d="M 82.54541684631803 88.32363383020206 l -7.25283218826233 -4.851833106102195 a29.726044879586823,29.726044879586823 0 0,0 0.2881664509484234,-0.4228487088944053 l 7.168241271645166 4.975959838267016" fill="#ff6709" stroke="none" /><path d="M 82.7489923806493 88.02491185347247 l -8.56313096208624 -5.944246872061917 a31.42407227286236,31.42407227286236 0 0,0 0.312276538938916,-0.44169301840988884 l 8.459541803343445 6.090766390803592" fill="#ff7e0b" stroke="none" /><path d="M 83.17141714833178 87.43820079747576 l -5.941890692414025 -4.435360863083817 a28.414748207887577,28.414748207887577 0 0,0 0.29595186121613803,-0.3894379582732077 l 5.8646628909737775 4.536983597238051" fill="#ff5507" stroke="none" /><path d="M 84.07557802195018 86.31012108654704 l -26.756992350628863 -23.00240384694674 a56.28522668751955,56.28522668751955 0 0,0 0.6379210434283407,-0.7292540284411914 l 26.357079443622677 23.459573431590876" fill="#58ff2a" stroke="none" /><path d="M 84.80347519578584 85.50635884689758 l -6.7004340893225045 -6.390519445190804 a30.259295640852866,30.259295640852866 0 0,0 0.36273076514167224,-0.37382593841291906 l 6.589439060477714 6.504909579153846" fill="#ff6e0a" stroke="none" /><path d="M 85.05521093208273 85.24692304244772 l -5.706329035630417 -5.633128110753786 a29.01837411044429,29.01837411044429 0 0,0 0.3539746944975008,-0.3524546146665411 l 5.608518540965603 5.730518576070437" fill="#ff5d08" stroke="none" /><path d="M 85.31137513191541 84.99185889309783 l -8.644927692112399 -8.832977615494638 a33.35946068231463,33.35946068231463 0 0,0 0.4138427853235886,-0.3981164315940789 l 8.49160166317638 8.98047713385103" fill="#ff980e" stroke="none" /><path d="M 85.57189188830299 84.74124197986013 l -8.874807730792485 -9.385745004893877 a33.91721415613384,33.91721415613384 0 0,0 0.42766718629455913,-0.3974700408070753 l 8.711932660703068 9.5371196317756" fill="#ff9f0e" stroke="none" /><path d="M 85.83668400450813 84.49514656593479 l -13.14532317343428 -14.390437183805933 a40.49061835024976,40.49061835024976 0 0,0 0.5186443543648629,-0.46564402224429274 l 12.895667831473444 14.614580214819503" fill="#fff417" stroke="none" /><path d="M 86.37877921826538 84.01681056812374 l -6.677043546680521 -7.834866900813216 a31.294078388944126,31.294078388944126 0 0,0 0.41299609349079286,-0.3458723511667257 l 6.541189916230618 7.948640409373754" fill="#ff7c0b" stroke="none" /><path d="M 86.93701828274178 83.55741782278169 l -8.684381054906542 -10.931168108803679 a34.96097813656859,34.96097813656859 0 0,0 0.47441621946214935,-0.37028938435558634 l 8.494932280284967 11.079035882382486" fill="#ffad10" stroke="none" /><path d="M 87.51073957382395 83.11751280151077 l -15.794373312221268 -21.350207790756897 a47.55736434652927,47.55736434652927 0 0,0 0.6623035211910552,-0.48119167459300277 l 15.424524474676431 21.618918700166567" fill="#b6ff1f" stroke="none" /><path d="M 88.09926311788651 82.69761687909137 l -3.4172446811145294 -4.968303834983231 a27.03005839170025,27.03005839170025 0 0,0 0.38562279067002464,-0.2603742296434502 l 3.331217196037965 5.026389976925346" fill="#ff4106" stroke="none" /><path d="M 89.00827224532344 82.1063720568725 l -6.408007662479623 -10.431708965893558 a33.242675939168755,33.242675939168755 0 0,0 0.4901520710095468,-0.2953111384343005 l 6.227493525252426 10.540466713786477" fill="#ff960d" stroke="none" /><line stroke="#e1ed5e" stroke-width="0.3" x1="56.762969772571076" x2="54.21961505331055" y1="26.818313649435495" y2="22.513508569990535" /><path d="M 56.25429882871897 25.957352633546506 a86.0,86.0 0 0,1 42.265352541879196,-11.944610805530505" fill="none" id="id72" stroke="none" /><text fill="#e1ed5e" style="font-size:6.75px; font-family:Arial;" text-anchor="middle"><textPath startOffset="22.20632615414155" xlink:href="#id72">December</textPath></text><path d="M 89.3179101791058 81.91981866633112 l -4.1415671365141495 -7.009890956662196 a29.14193770367647,29.14193770367647 0 0,0 0.4340806350477183,-0.25144752178592433 l 4.020289769001111 7.080142635838167" fill="#ff5f08" stroke="none" /><path d="M 89.63071344664047 81.73862282372117 l -9.938192478757298 -17.502176294495925 a41.126943254961574,41.126943254961574 0 0,0 0.618619555444918,-0.34426111283991756 l 9.635448834240334 17.670652804896026" fill="#fffb17" stroke="none" /><path d="M 89.94658935756843 81.56283822128135 l -13.947004759408717 -25.577706136112173 a50.133108192300384,50.133108192300384 0 0,0 0.761199518097494,-0.4066064205589609 l 13.504660194782916 25.813991283172886" fill="#99ff23" stroke="none" /><path d="M 91.23893434514133 80.91482961587045 l -5.4209288103203574 -11.80899151552696 a33.9937965883859,33.9937965883859 0 0,0 0.5338934274310871,-0.2395424182684615 l 5.216853264422496 11.90055426431195" fill="#ffa00e" stroke="none" /><path d="M 91.56875222667455 80.76684994638697 l -5.156939510545506 -11.763880518079857 a33.844567332498364,33.844567332498364 0 0,0 0.5355761635785118,-0.22930576266491115 l 4.953679589176686 11.850905808707555" fill="#ff9e0e" stroke="none" /><path d="M 91.90106846888425 80.62456947434976 l -2.3110822780628957 -5.528903898697389 a26.992485262143543,26.992485262143543 0 0,0 0.4302295341493979,-0.1755014293998066 l 2.2155688743251174 5.567866214280772" fill="#ff4106" stroke="none" /><path d="M 92.23578459929587 80.48803036053334 l -10.16672280282503 -25.54962432438504 a48.49810094655066,48.49810094655066 0 0,0 0.7783179278348906,-0.30197526410543096 l 9.725421709990462 25.720842292381022" fill="#acff21" stroke="none" /><path d="M 92.91201910852362 80.23233633223022 l -1.7685310275021942 -4.932254625533676 a26.23973641382239,26.23973641382239 0 0,0 0.42648067841302356,-0.14879073453066996 l 1.6833683450258854 4.961966213236555" fill="#ff3605" stroke="none" /><path d="M 93.25333710446033 80.11325718540243 l -1.8962471112054993 -5.589456476089564 a26.90235349711069,26.90235349711069 0 0,0 0.43981143226976627,-0.14499891433331114 l 1.7997528566933236 5.62126911468211" fill="#ff3f05" stroke="none" /><path d="M 94.28887869178378 79.79150937346287 l -3.816205813774022 -13.503435709838886 a35.03232706228139,35.03232706228139 0 0,0 0.5817069710486871,-0.15900248929574307 l 3.5832009535016125 13.567124739960924" fill="#ffae10" stroke="none" /><path d="M 94.63758080256005 79.69619591428918 l -6.267917801717638 -23.732306331472568 a45.54606195258094,45.54606195258094 0 0,0 0.7597324122567355,-0.19367270803203882 l 5.858476500775903 23.83668203567347" fill="#ceff1d" stroke="none" /><path d="M 94.98787191387505 79.60689891045804 l -1.4052470972923354 -5.717600511886357 a26.88775636537142,26.88775636537142 0 0,0 0.45040360952666736,-0.1065959824179756 l 1.306619800803134 5.740942406445204" fill="#ff3f05" stroke="none" /><path d="M 96.40284397218896 79.31037775812273 l -1.8545593487056917 -10.666796784239567 a31.82681596842466,31.82681596842466 0 0,0 0.5405569389299816,-0.089196526594026 l 1.6706732036368246 10.69713957377322" fill="#ff830c" stroke="none" /><path d="M 97.11714578562143 79.19881850522333 l -8.648562643135705 -62.403544484330034 a84.0,84.0 0 0,0 1.433941085968569,-0.1861667073434532 l 7.573106828659279 62.54316951483762" fill="#4dd2ff" stroke="none" /><path d="M 99.63851952072746 79.00311137660856 l -0.12741512378699726 -7.401011441821557 a28.40210814401838,28.40210814401838 0 0,0 0.48889560305953117,-0.004208078805383721 l 1.812993609102933e-15 7.402108144018381" fill="#ff5407" stroke="none" /></svg>