<?xml version="1.0" encoding="utf-8" ?>
<svg baseProfile="full" height="200mm" version="1.1" viewBox="0,0,200,200" width="200mm" xmlns="http://www.w3.org/2000/svg" xmlns:ev="http://www.w3.org/2001/xml-events" xmlns:xlink="http://www.w3.org/1999/xlink"><defs /><rect fill="#1a1a1a" height="200" width="200" x="0" y="0" /><text alignment-baseline="middle" fill="#e1ed5e" style="dominant-baseline: central; font-size:9.0px; font-family:Arial;" text-anchor="middle" x="100.0" y="100.0">2020</text><line stroke="#e1ed5e" stroke-width="0.3" x1="100.0" x2="100.0" y1="15.0" y2="10.0" /><path d="M 100.0 14.0 a86.0,86.0 0 0,1 42.35913384403234,11.155469271406648" fill="none" id="id25" stroke="none" /><text fill="#e1ed5e" style="font-size:6.75px; font-family:Arial;" text-anchor="middle"><textPath startOffset="22.145653131862478" xlink:href="#id25">January</textPath></text><line stroke="#e1ed5e" stroke-width="0.3" x1="143.13028292997686" x2="145.6673583964461" y1="26.7553504044142" y2="22.446841604673864" /><path d="M 143.63769802327073 25.89364864446614 a86.0,86.0 0 0,1 29.32050498858742,28.57503671076993" fill="none" id="id26" stroke="none" /><text fill="#e1ed5e" style="font-size:6.75px; font-family:Arial;" text-anchor="middle"><textPath startOffset="20.669276256404974" xlink:href="#id26">February</textPath></text><line stroke="#e1ed5e" stroke-width="0.3" x1="172.87174338648825" x2="177.1583165268699" y1="56.24261187166439" y2="53.66864786411523" /><path d="M 173.72905801456457 55.72781907015455 a86.0,86.0 0 0,1 12.242430191666344,42.057860355516425" fill="none" id="id27" stroke="none" /><text fill="#e1ed5e" style="font-size:6.75px; font-family:Arial;" text-anchor="middle"><textPath startOffset="22.145653131862474" xlink:href="#id27">March</textPath></text><line stroke="#e1ed5e" stroke-width="0.3" x1="184.99686870605535" x2="189.99668451229388" y1="99.2704041080226" y2="99.22748670261217" /><path d="M 185.99683186730306 99.26182062694052 a86.0,86.0 0 0,1 -10.086455211305974,41.156179273409016" fill="none" id="id28" stroke="none" /><text fill="#e1ed5e" style="font-size:6.75px; font-family:Arial;" text-anchor="middle"><textPath startOffset="21.40746469413373" xlink:href="#id28">April</textPath></text><line stroke="#e1ed5e" stroke-width="0.3" x1="174.33088141563837" x2="178.70328620479359" y1="141.23008692659167" y2="143.65538615756765" /><path d="M 175.20536237346943 141.71514677278685 a86.0,86.0 0 0,1 -30.301960400862466,31.631185727798858" fill="none" id="id29" stroke="none" /><text fill="#e1ed5e" style="font-size:6.75px; font-family:Arial;" text-anchor="middle"><textPath startOffset="22.145653131862474" xlink:href="#id29">May</textPath></text><path d="M 118.00360718960297 110.81064883170644 l 15.514431334135319 9.315970250329512 a39.096543352989386,39.096543352989386 0 0,0 -0.35043913990908143,0.5724159985176855 l -15.352224229770833 -9.580923364971754" fill="#ffc712" stroke="none" /><path d="M 117.62189284568427 111.42229804090321 l 24.988569234148795 16.197288674246778 a50.77886419537741,50.77886419537741 0 0,0 -0.48040568261832517,0.7273954335741776 l -24.706839112609742 -16.623863986160018" fill="#a4ff21" stroke="none" /><path d="M 116.57777611688842 112.89097897827486 l 12.142363426972164 9.441975243242162 a36.38141365696499,36.38141365696499 0 0,0 -0.38760683503707677,0.48972857395304686 l -11.978490161293525 -9.649023761109891" fill="#ffa20f" stroke="none" /><path d="M 116.1254893667686 113.45245675266167 l 6.330008742301832 5.280718427390575 a29.243482139666465,29.243482139666465 0 0,0 -0.32488873167460885,0.3827181089915932 l -6.238425447120108 -5.388603318831724" fill="#ff3b05" stroke="none" /><path d="M 115.41159269507618 114.26474011684316 l 3.1782228853963774 2.9417156546102587 a25.33068028164587,25.33068028164587 0 0,0 -0.29811094567146323,0.316583493587309 l -3.1272561059886543 -2.995840608142065" fill="#ff0000" stroke="none" /><path d="M 114.91283532996324 114.78537596483092 l 13.3146361571738 13.200836531950856 a39.74944322216551,39.74944322216551 0 0,0 -0.4845799350099798,0.48043825105078286 l -13.086064302033856 -13.4274547932303" fill="#ffd013" stroke="none" /><path d="M 114.39649973595853 115.28858382429668 l 7.477145847347252 7.940469777395452 a31.906822191098232,31.906822191098232 0 0,0 -0.40198072589254497,0.3720673586623591 l -7.33973535014074 -8.06765488219019" fill="#ff6209" stroke="none" /><path d="M 113.59037401385872 116.0094264158162 l 7.875011285133024 9.276743492452482 a33.16855671662552,33.16855671662552 0 0,0 -0.4372337046651813,0.3647559071872746 l -7.7146032463059475 -9.410561583551628" fill="#ff750a" stroke="none" /><path d="M 112.45986205192187 116.90419585922612 l 4.497458729048425 6.101666527912651 a28.580070543032136,28.580070543032136 0 0,0 -0.39742492016271275,0.2877049936619065 l -4.392052798511744 -6.177972292947635" fill="#ff3104" stroke="none" /><path d="M 111.5731344415666 117.5232005979908 l 10.594543455616984 16.041489118982046 a40.22430035625162,40.22430035625162 0 0,0 -0.5794489900083619,0.37559183461933526 l -10.317608833351613 -16.220994795305277" fill="#ffd614" stroke="none" /><line stroke="#e1ed5e" stroke-width="0.3" x1="143.1302829299769" x2="145.66735839644613" y1="173.24464959558577" y2="177.55315839532614" /><path d="M 143.63769802327073 174.10635135553383 a86.0,86.0 0 0,1 -40.68552437913181,11.842963189579606" fill="none" id="id30" stroke="none" /><text fill="#e1ed5e" style="font-size:6.75px; font-family:Arial;" text-anchor="middle"><textPath startOffset="21.407464694133747" xlink:href="#id30">June</textPath></text><path d="M 110.34350942703117 118.27599006163325 l 9.445293739599013 16.68892900730551 a40.17638978635425,40.17638978635425 0 0,0 -0.603135256145443,0.33454895954101854 l -9.157414295297475 -16.848610882279672" fill="#ffd513" stroke="none" /><path d="M 109.3889696526874 118.78422872680471 l 9.66525204971676 19.336978595104053 a42.61795176172031,42.61795176172031 0 0,0 -0.6572088988322217,0.32147380557674016 l -9.331882901622468 -19.50004615077802" fill="#fff517" stroke="none" /><path d="M 108.73861861582097 119.09545874513695 l 7.376551382253035 16.119096025792462 a38.726781066616056,38.726781066616056 0 0,0 -0.6068792666460863,0.27144937677815767 l -7.098758712751321 -16.24334915348047" fill="#ffc212" stroke="none" /><path d="M 106.72888874123015 119.89276391827305 l 6.084960023474536 17.989103082863426 a39.990380939127306,39.990380939127306 0 0,0 -0.6521807706884072,0.21438477328139072 l -5.775256515138395 -18.090908777546836" fill="#ffd313" stroke="none" /><path d="M 105.69591212413111 120.21278271476187 l 8.649559659687183 30.69423582553893 a52.88966909863264,52.88966909863264 0 0,0 -0.8760005052816167,0.23875783311572446 l -8.12137775347087 -30.838194152798795" fill="#8bff24" stroke="none" /><path d="M 104.29559338865022 120.5559693870025 l 6.6560816950230945 31.851760439382623 a53.539792049406856,53.539792049406856 0 0,0 -0.9012621263527124,0.18027766658849956 l -6.108323083139423 -31.961327502633985" fill="#84ff25" stroke="none" /><path d="M 103.2317021107853 120.74984581791261 l 3.3783703671442957 21.6915612364453 a42.95306846916975,42.95306846916975 0 0,0 -0.7295371980984273,0.10721684512730924 l -3.0055080634381826 -21.74635915487149" fill="#fffa17" stroke="none" /><path d="M 100.72087961077811 120.9876233191556 l 0.2685760757695962 7.819299403828329 a28.823910548772005,28.823910548772005 0 0,0 -0.4946549332472986,0.012740556418605636 l -0.13430782845155376 -7.82275767759698" fill="#ff3505" stroke="none" /><line stroke="#e1ed5e" stroke-width="0.3" x1="101.45913802915013" x2="101.54496967792366" y1="184.9874750549273" y2="189.98673829345242" /><path d="M 101.47630435890484 185.9873277026323 a86.0,86.0 0 0,1 -42.54439059252881,-10.42667462771756" fill="none" id="id31" stroke="none" /><text fill="#e1ed5e" style="font-size:6.75px; font-family:Arial;" text-anchor="middle"><textPath startOffset="22.145653131862474" xlink:href="#id31">July</textPath></text><path d="M 100.0 121.0 l 2.9055066306795535e-15 23.725262113962003 a44.725262113962,44.725262113962 0 0,0 -0.7677685978139867,-0.00659037001576534 l 0.40727567296513156 -23.721766142140673" fill="#eeff19" stroke="none" /><path d="M 99.27912038922189 120.98762331915562 l -1.0090399826386338 29.377098135330087 a50.3944222011486,50.3944222011486 0 0,0 -0.8643225088694716,-0.0371177274817224 l 1.5131882521089441 -29.355447839422535" fill="#a8ff21" stroke="none" /><path d="M 98.19965949673042 120.92268563240118 l -1.7795789793275152 20.6814052535503 a41.7578280319797,41.7578280319797 0 0,0 -0.7136620339414744,-0.06758453660587713 l 2.134340576654005 -20.647808961439235" fill="#ffea16" stroke="none" /><path d="M 97.48249496171623 120.84855314841334 l -2.5661902666760428 21.25173667982383 a42.40611231385448,42.40611231385448 0 0,0 -0.7219583637901368,-0.09347196430261963 l 2.930626452356974 -21.20455311932081" fill="#fff316" stroke="none" /><path d="M 96.76829788921471 120.74984581791261 l -4.100452925260969 26.32784924663086 a47.645250236122806,47.645250236122806 0 0,0 -0.8070708276978675,-0.13280319757121284 l 4.5518012560119 -26.25358005056398" fill="#c9ff1d" stroke="none" /><path d="M 95.00130118170881 120.39639698878247 l -5.643666126818084 23.028083703205912 a44.70956782383119,44.70956782383119 0 0,0 -0.7438707780870258,-0.1890890429056739 l 6.038142198130489 -22.927809428464972" fill="#eeff19" stroke="none" /><path d="M 93.95794788825049 120.11202640906438 l -9.52551134234572 31.707329254005266 a54.10725139233179,54.10725139233179 0 0,0 -0.8872542307866093,-0.27487362871130455 l 10.068406206003962 -31.539139037487313" fill="#7eff26" stroke="none" /><path d="M 92.93061703081489 119.77432235084164 l -3.5582820030766937 9.953148054185524 a31.570076962915483,31.570076962915483 0 0,0 -0.5087455489221423,-0.186818412424328 l 3.7286167036529547 -9.890598792752478" fill="#ff5e08" stroke="none" /><path d="M 92.25597844496254 119.51999308798841 l -3.6296876413127004 9.1491839435664 a30.84287555578711,30.84287555578711 0 0,0 -0.49046860456730984,-0.19946931162928397 l 3.786210707070451 -9.085527375357826" fill="#ff5307" stroke="none" /><path d="M 91.59046798132341 119.24265499422711 l -4.597997385972444 10.521117841768984 a32.48196414389973,32.48196414389973 0 0,0 -0.5090180499372017,-0.22767729928869643 l 4.7779288387652805 -10.440636791570434" fill="#ff6b09" stroke="none" /><line stroke="#e1ed5e" stroke-width="0.3" x1="58.13341422392154" x2="55.67067388415222" y1="173.97424548756322" y2="178.32567169271397" /><path d="M 57.64086615596768 174.84453072859336 a86.0,86.0 0 0,1 -31.369924170532247,-30.572349798747897" fill="none" id="id32" stroke="none" /><text fill="#e1ed5e" style="font-size:6.75px; font-family:Arial;" text-anchor="middle"><textPath startOffset="22.145653131862474" xlink:href="#id32">August</textPath></text><path d="M 89.65649057296885 118.27599006163327 l -8.029614972541475 14.187560273634364 a37.30219565350846,37.30219565350846 0 0,0 -0.5545726880176381,-0.3201826907122002 l 8.271980128419514 -14.047630685645991" fill="#ffaf10" stroke="none" /><path d="M 87.83215693770417 117.11559508785305 l -14.180947402687082 19.947278450576754 a45.47433731120459,45.47433731120459 0 0,0 -0.6323509540729512,-0.45777332523379444 l 14.521279367133987 -19.700904353969896" fill="#e4ff1a" stroke="none" /><path d="M 86.40962598614128 116.0094264158162 l -12.893268474303413 15.18823784306699 a40.922824617208235,40.922824617208235 0 0,0 -0.5316469667447564,-0.4592239874839154 l 13.152094920811033 -14.964669723118352" fill="#ffdf14" stroke="none" /><path d="M 85.86807049272751 115.53346607816431 l -4.716623243496692 5.184395175381656 a28.008886370573705,28.008886370573705 0 0,0 -0.3528722605858948,-0.3266132963213442 l 4.804925275396554 -5.102664132927935" fill="#ff2904" stroke="none" /><path d="M 84.58840730492382 114.26474011684316 l -15.229844660257823 14.096516849155888 a41.752348196146855,41.752348196146855 0 0,0 -0.4823436032207437,-0.5301801141021283 l 15.469585964320448 -13.832999159496085" fill="#ffea16" stroke="none" /><path d="M 83.20337586046588 112.60449989151573 l -24.318350642426825 18.248943685824017 a51.40404781630889,51.40404781630889 0 0,0 -0.523582000624985,-0.7103395406825554 l 24.628034662635642 -17.82879783587258" fill="#9dff22" stroke="none" /><path d="M 82.37810715431573 111.42229804090323 l -16.208466281619557 10.506132018611758 a40.3156203419641,40.3156203419641 0 0,0 -0.37144568034749725,-0.5839743049938972 l 16.386429653592945 -10.22634403893919" fill="#ffd714" stroke="none" /><path d="M 81.99639281039703 110.81064883170644 l -26.178906937160583 15.719681434674095 a51.535938708874696,51.535938708874696 0 0,0 -0.4489180029997151,-0.7623609119431755 l 26.44489865029007 -15.267969354437362" fill="#9bff22" stroke="none" /><line stroke="#e1ed5e" stroke-width="0.3" x1="26.387840678322732" x2="22.057713659400548" y1="142.50000000000003" y2="145.00000000000006" /><path d="M 25.521815274538298 143.00000000000003 a86.0,86.0 0 0,1 -11.493303480769221,-40.785679425670985" fill="none" id="id33" stroke="none" /><text fill="#e1ed5e" style="font-size:6.75px; font-family:Arial;" text-anchor="middle"><textPath startOffset="21.40746469413373" xlink:href="#id33">September</textPath></text><path d="M 80.83023694016515 108.57439118712176 l -8.389357653230693 3.7524529699687137 a30.190333243449196,30.190333243449196 0 0,0 -0.20754577195099239,-0.47490534268658935 l 8.452537307198652 -3.607885557506275" fill="#ff4906" stroke="none" /><path d="M 80.41425534168474 107.57618678355246 l -24.00624924480559 9.286132920861181 a46.73970216276076,46.73970216276076 0 0,0 -0.28304076013120066,-0.7507992435132157 l 24.162120688751227 -8.87266539715382" fill="#d5ff1c" stroke="none" /><path d="M 80.28708602549918 107.23885506374661 l -12.400129160913465 4.553499187573226 a34.20975238445318,34.20975238445318 0 0,0 -0.19769951105790692,-0.5530007183517274 l 12.476468842015317 -4.339963512840577" fill="#ff830c" stroke="none" /><path d="M 79.83685265289637 105.86919833188381 l -17.0616485856728 4.9663972441585615 a38.76977642087194,38.76977642087194 0 0,0 -0.18052224763640204,-0.6406097719092877 l 17.144389325383777 -4.672779548346278" fill="#ffc212" stroke="none" /><path d="M 79.56144815229197 104.8234425847677 l -15.160273228645417 3.577783202676477 a36.57672677466408,36.57672677466408 0 0,0 -0.1389726436376706,-0.6123391100411919 l 15.219456733840754 -3.317009758696259" fill="#ffa50f" stroke="none" /><path d="M 79.407916724674 104.11899336999214 l -23.091588390145247 4.618964395679385 a44.54901880054548,44.54901880054548 0 0,0 -0.14356177511546722,-0.7511758708359906 l 23.16747645754287 -4.22188595981008" fill="#f0ff19" stroke="none" /><path d="M 79.17382384314188 102.69636545807758 l -17.73068660494496 2.2955923617225817 a38.87867421745734,38.87867421745734 0 0,0 -0.08001215184137145,-0.6626153969172949 l 17.767480843045995 -1.9908832878818874" fill="#ffc412" stroke="none" /><path d="M 79.01933749520258 100.90099992219065 l -18.92420652447564 0.8126868540101402 a39.94164862158749,39.94164862158749 0 0,0 -0.023537638264478786,-0.6852726562542443 l 18.935368849736967 -0.48770793319177613" fill="#ffd213" stroke="none" /><line stroke="#e1ed5e" stroke-width="0.3" x1="15.003131293944662" x2="10.003315487706104" y1="100.72959589197737" y2="100.7725132973878" /><path d="M 14.003168132696942 100.73817937305945 a86.0,86.0 0 0,1 10.791469493833604,-42.45332614584628" fill="none" id="id34" stroke="none" /><text fill="#e1ed5e" style="font-size:6.75px; font-family:Arial;" text-anchor="middle"><textPath startOffset="22.145653131862435" xlink:href="#id34">October</textPath></text><path d="M 79.00077361379809 100.18025310272382 l -18.329133434184975 0.15733356605563703 a39.32980868146652,39.32980868146652 0 0,0 0.0,-0.6751733375589024 l 18.329133434184975 0.1573335660556303" fill="#ffca12" stroke="none" /><path d="M 79.01933749520258 99.09900007780938 l -9.628557738230876 -0.41349169841372946 a30.637432204851184,30.637432204851184 0 0,0 0.027075335469243886,-0.5252542748692924 l 9.620040813305062 0.5787177666597338" fill="#ff5007" stroke="none" /><path d="M 79.0935383218832 98.0201363427161 l -38.31171346342195 -3.628159097524348 a59.48312522314548,59.48312522314548 0 0,0 0.10499510189217166,-1.015732366928532 l 38.24378596904812 4.285295986735793" fill="#43ff2d" stroke="none" /><path d="M 79.2786578344484 96.59031103205396 l -14.623614491941614 -2.406310199711033 a35.820270901240576,35.820270901240576 0 0,0 0.10504752004430995,-0.6058861803234483 l 14.58015215440507 2.656989412955074" fill="#ff9a0e" stroke="none" /><path d="M 79.64726062577567 94.8264132398404 l -22.84681763488571 -5.807571701002548 a44.57339528163074,44.57339528163074 0 0,0 0.19487174110012911,-0.7399597419749815 l 22.743756412980858 6.198911947350314" fill="#f0ff19" stroke="none" /><path d="M 80.05021161711548 93.44210830539832 l -19.95536898212124 -6.559726148415579 a42.00587437729774,42.00587437729774 0 0,0 0.23106147000846397,-0.6830921791474236 l 19.839822090540412 6.9013200020371634" fill="#ffed16" stroke="none" /><path d="M 80.41425534168474 92.42381321644754 l -6.872951055024434 -2.6586051158883057 a28.369235874023097,28.369235874023097 0 0,0 0.17959256225195186,-0.4526905754196702 l 6.826299817806351 2.776196708521559" fill="#ff2e04" stroke="none" /><line stroke="#e1ed5e" stroke-width="0.3" x1="26.387840678322718" x2="22.05771365940052" y1="57.49999999999999" y2="54.99999999999999" /><path d="M 25.521815274538284 56.99999999999999 a86.0,86.0 0 0,1 29.574782752854787,-30.34633250058573" fill="none" id="id35" stroke="none" /><text fill="#e1ed5e" style="font-size:6.75px; font-family:Arial;" text-anchor="middle"><textPath startOffset="21.40746469413373" xlink:href="#id35">November</textPath></text><path d="M 82.18462484594161 88.88188828441811 l -13.554836900356653 -8.459220737225182 a36.97786027215068,36.97786027215068 0 0,0 0.3406934173424291,-0.5356266397348114 l 13.407625791388334 8.690661051638667" fill="#ffaa0f" stroke="none" /><path d="M 82.576782715395 88.27688183743585 l -12.746203565460691 -8.576214603833415 a36.36285006967029,36.36285006967029 0 0,0 0.3529105734688001,-0.5149070735512434 l 12.597103255176577 8.793756412454693" fill="#ffa20e" stroke="none" /><path d="M 83.2033758604659 87.39550010848427 l -11.185996897193126 -8.394180610692459 a34.98530638595163,34.98530638595163 0 0,0 0.36459357734377423,-0.47726469635406105 l 11.040251342495045 8.584966220287406" fill="#ff8e0d" stroke="none" /><path d="M 84.58840730492382 85.73525988315684 l -26.155921905893436 -24.209530830854252 a56.640337172889915,56.640337172889915 0 0,0 0.6665870908328733,-0.7078923906022534 l 25.73647898132429 24.65496468140102" fill="#62ff29" stroke="none" /><path d="M 87.83215693770416 82.88440491214696 l -10.710454042996682 -15.065594918381654 a39.48474982389297,39.48474982389297 0 0,0 0.5558040891294553,-0.38799442013323454 l 10.450254862693463 15.247234154320015" fill="#ffcc13" stroke="none" /><path d="M 88.72937992617638 82.28071324371311 l -8.760203359356007 -13.772494712010642 a37.322462237347445,37.322462237347445 0 0,0 0.5435498930510825,-0.33921533404015153 l 8.522489337515227 13.92084584289233" fill="#ffaf10" stroke="none" /><line stroke="#e1ed5e" stroke-width="0.3" x1="56.869717070023135" x2="54.33264160355391" y1="26.7553504044142" y2="22.446841604673864" /><path d="M 56.362301976729285 25.89364864446614 a86.0,86.0 0 0,1 42.16139366436587,-11.88097634709845" fill="none" id="id36" stroke="none" /><text fill="#e1ed5e" style="font-size:6.75px; font-family:Arial;" text-anchor="middle"><textPath startOffset="22.145653131862474" xlink:href="#id36">December</textPath></text><path d="M 90.93487009805054 81.0573650232925 l -27.195389705848363 -56.827904930122465 a84.0,84.0 0 0,0 1.3060451445139099,-0.6112950737178284 l 26.215855847462933 57.286376235410835" fill="#4dd2ff" stroke="none" /><path d="M 93.27111125876988 80.10723608172694 l -2.9095802288855785 -8.601656948174558 a30.08042726761255,30.08042726761255 0 0,0 0.49056487528559933,-0.16125841836291033 l 2.761492615952218 8.650336287939497" fill="#ff4806" stroke="none" /><path d="M 95.70440661134978 79.44403061299748 l -1.6955531281242542 -8.113835515216326 a29.28910291758268,29.28910291758268 0 0,0 0.4930381341433524,-0.0986214351669371 l 1.556018508449925 8.14174634704613" fill="#ff3c05" stroke="none" /></svg>