<?xml version="1.0" encoding="utf-8" ?>
<svg baseProfile="full" height="200mm" version="1.1" viewBox="0,0,200,200" width="200mm" xmlns="http://www.w3.org/2000/svg" xmlns:ev="http://www.w3.org/2001/xml-events" xmlns:xlink="http://www.w3.org/1999/xlink"><defs /><rect fill="#1a1a1a" height="200" width="200" x="0" y="0" /><text alignment-baseline="middle" fill="#e1ed5e" style="dominant-baseline: central; font-size:9.0px; font-family:Arial;" text-anchor="middle" x="100.0" y="100.0">2024</text><line stroke="#e1ed5e" stroke-width="0.3" x1="100.0" x2="100.0" y1="15.0" y2="10.0" /><path d="M 100.0 14.0 a86.0,86.0 0 0,1 42.35913384403234,11.155469271406648" fill="none" id="id73" stroke="none" /><text fill="#e1ed5e" style="font-size:6.75px; font-family:Arial;" text-anchor="middle"><textPath startOffset="22.145653131862478" xlink:href="#id73">January</textPath></text><path d="M 100.0 79.0 l 0.0 -31.227819309250577 a52.22781930925058,52.22781930925058 0 0,0 0.8965599686318684,0.007695889036657988 l -0.5360670437830135 31.223217818408354" fill="#87ff25" stroke="none" /><path d="M 101.08105385017728 79.02784411241856 l 0.5906493482688064 -11.458439563172982 a32.47365259520691,32.47365259520691 0 0,0 0.5564679663463584,0.03347573102353789 l -0.7872616667476272 11.446611854324752" fill="#ff830c" stroke="none" /><path d="M 101.80034050326958 79.07731436759882 l 1.9817248719382985 -23.030646941606292 a44.115750734444646,44.115750734444646 0 0,0 0.7539601047709581,0.07140080581117507 l -2.3767845400942695 22.993234380289934" fill="#e5ff1a" stroke="none" /><path d="M 102.51750503828377 79.15144685158666 l 1.0817112301425444 -8.95812073060898 a30.023193792088414,30.023193792088414 0 0,0 0.5111408399210624,0.06617741512390103 l -1.2353298919543985 8.938231719284683" fill="#ff6109" stroke="none" /><path d="M 102.87502721639298 79.19773525538626 l 1.2319184306091484 -8.91354808440802 a29.998275527717986,29.998275527717986 0 0,0 0.5095062740857367,0.0748798764784466 l -1.384749810302567 8.891087134630693" fill="#ff6108" stroke="none" /><path d="M 103.58742460773223 79.30868818359171 l 1.372617655622585 -7.916893878683614 a29.035003915049757,29.035003915049757 0 0,0 0.4903670190417772,0.08936120585426688 l -1.5083194082154159 7.892164498897981" fill="#ff5307" stroke="none" /><path d="M 104.29559338865022 79.4440306129975 l 3.4932412156470765 -16.716423784426276 a38.07751616398673,38.07751616398673 0 0,0 0.6386824892737402,0.13919787589519123 l -3.779686121539951 16.653994450397366" fill="#ffce13" stroke="none" /><path d="M 104.64783097203109 79.52079915486377 l 4.698045102648702 -20.70045356976635 a42.22687932270247,42.22687932270247 0 0,0 0.7055263905829715,0.1665023071288163 l -5.052703646971557 20.616755118991303" fill="#fcff18" stroke="none" /><path d="M 104.9986988182912 79.60360301121754 l 2.8411424249675705 -11.592830636097517 a32.935904340945086,32.935904340945086 0 0,0 0.5479824114076651,0.13929498611127805 l -3.03973012960063 11.54235041815097" fill="#ff890c" stroke="none" /><path d="M 106.04205211174951 79.88797359093562 l 4.242844118479394 -14.123048160154436 a35.74660013520936,35.74660013520936 0 0,0 0.5861750761691236,0.1815985369874057 l -4.484659827520148 14.048133035360383" fill="#ffaf10" stroke="none" /><path d="M 106.38641147887787 79.99465700312896 l 3.034244245007471 -9.504726881193994 a30.97729779170957,30.97729779170957 0 0,0 0.5051914353702538,0.166066459183136 l -3.196958418025467 9.451239500608837" fill="#ff6e0a" stroke="none" /><path d="M 106.72888874123014 80.10723608172694 l 2.8786265715467505 -8.510147960356772 a29.983824867258907,29.983824867258907 0 0,0 0.4861580618721287,0.16911101023176286 l -3.0242904054638973 8.459478517556418" fill="#ff6108" stroke="none" /><path d="M 107.06938296918511 80.22567764915836 l 12.671953308916256 -35.44570871850908 a58.642750526771344,58.642750526771344 0 0,0 0.9450163311952484,0.34702308665500964 l -13.27855879176563 35.22295478284535" fill="#43ff2d" stroke="none" /><path d="M 108.07796709384702 80.6158196554323 l 5.616985026373692 -13.478719271696244 a35.60227358981135,35.60227358981135 0 0,0 0.5621173888841707,0.239934487748566 l -5.847537490428293 13.380310134288276" fill="#ffad10" stroke="none" /><path d="M 109.06512990194946 81.05736502329252 l 8.713999958984845 -18.20890844317591 a41.186583217007055,41.186583217007055 0 0,0 0.635135849654414,0.310676771129277 l -9.025296057901325 18.056637921949413" fill="#fff517" stroke="none" /><path d="M 110.34350942703115 81.72400993836675 l 6.239085566028396 -11.023866377539782 a33.66695774880756,33.66695774880756 0 0,0 0.5005275139715943,0.28897969492831416 l -6.4274055478603875 10.915139785335295" fill="#ff930d" stroke="none" /><line stroke="#e1ed5e" stroke-width="0.3" x1="143.13028292997686" x2="145.6673583964461" y1="26.7553504044142" y2="22.446841604673864" /><path d="M 143.63769802327073 25.89364864446614 a86.0,86.0 0 0,1 29.32050498858742,28.57503671076993" fill="none" id="id74" stroke="none" /><text fill="#e1ed5e" style="font-size:6.75px; font-family:Arial;" text-anchor="middle"><textPath startOffset="20.669276256404974" xlink:href="#id74">February</textPath></text><path d="M 110.65571695917076 81.90426304109057 l 9.322254304435683 -15.831225848387897 a39.37204771328538,39.37204771328538 0 0,0 0.5794576312111566,0.34794765837226055 l -9.592644692204274 15.668864189479715" fill="#ffde14" stroke="none" /><path d="M 111.5731344415666 82.4767994020092 l 10.869748172453422 -16.45818413648029 a40.72367233561859,40.72367233561859 0 0,0 0.5800286456145235,0.3902691586254445 l -11.150673106164945 16.269165303797728" fill="#ffef16" stroke="none" /><path d="M 112.16784306229584 82.88440491214696 l 7.687987005722643 -10.814116516538716 a34.26839328002587,34.26839328002587 0 0,0 0.47652483722574585,0.3449672336038847 l -7.872492853322357 10.680548511561756" fill="#ff9b0e" stroke="none" /><path d="M 112.45986205192187 83.09580414077388 l 12.474654093454854 -16.924264104459436 a42.02493068309249,42.02493068309249 0 0,0 0.5770363406524737,0.43301882763666194 l -12.763343423018094 16.70762624955876" fill="#feff18" stroke="none" /><path d="M 113.31354834802062 83.75963576809568 l 6.670066271205218 -8.136396313265179 a31.520966164225825,31.520966164225825 0 0,0 0.4155148783939174,0.34663728985495934 l -6.808755483761028 8.020696839498349" fill="#ff760a" stroke="none" /><path d="M 114.13192950727249 84.46653392183569 l 11.923037731010632 -13.105507075167411 a38.717594205545126,38.717594205545126 0 0,0 0.4877867977682943,0.45148817778028527 l -12.146254300092892 12.898901151254751" fill="#ffd614" stroke="none" /><path d="M 114.65682725009322 84.96080404539774 l 19.266335225557654 -19.768957212917616 a48.60440802317143,48.60440802317143 0 0,0 0.5925295795824744,0.5874652546325446 l -19.602856725270094 19.435311948056412" fill="#b0ff20" stroke="none" /><path d="M 115.8921839302757 86.27271002978787 l 12.35097357333631 -10.668476805923369 a37.32062944765847,37.32062944765847 0 0,0 0.4146240830226325,0.4884261272432369 l -12.532292219866054 10.45488389623058" fill="#ffc412" stroke="none" /><path d="M 116.1254893667686 86.54754324733833 l 12.171958869471545 -10.15428099963178 a36.851372348777566,36.851372348777566 0 0,0 0.40107135074927625,0.4892418346246834 l -12.344477039459449 9.9438368833086" fill="#ffbe11" stroke="none" /><path d="M 116.7966241395341 87.39550010848427 l 21.26791770207671 -15.959841938573438 a47.590240278842074,47.590240278842074 0 0,0 0.48473601348403755,0.6576374985380107 l -21.538755735144573 15.592398130766552" fill="#bbff1f" stroke="none" /><path d="M 117.01052211995028 87.68569379921539 l 11.36913572274238 -8.230377500519513 a35.035539208851034,35.035539208851034 0 0,0 0.34849500740907374,0.49020187114631053 l -11.508745828681414 8.033998402663698" fill="#ffa60f" stroke="none" /><path d="M 117.62189284568427 88.57770195909679 l 12.230901667759111 -7.927922691479739 a35.57555878203206,35.57555878203206 0 0,0 0.3277733921355432,0.5153142141504397 l -12.365192751520544 7.716794802650628" fill="#ffad10" stroke="none" /><line stroke="#e1ed5e" stroke-width="0.3" x1="172.87174338648825" x2="177.1583165268699" y1="56.24261187166439" y2="53.66864786411523" /><path d="M 173.72905801456457 55.72781907015455 a86.0,86.0 0 0,1 12.242430191666344,42.057860355516425" fill="none" id="id75" stroke="none" /><text fill="#e1ed5e" style="font-size:6.75px; font-family:Arial;" text-anchor="middle"><textPath startOffset="22.145653131862474" xlink:href="#id75">March</textPath></text><path d="M 118.18653347947321 89.5 l 32.29881062391032 -18.647727008219373 a58.29545401643874,58.29545401643874 0 0,0 0.49292036210714946,0.8709430491264681 l -32.614164351038845 18.09052718899379" fill="#47ff2c" stroke="none" /><path d="M 118.53625476483649 90.13048839642627 l 12.820423315465183 -6.82615330227022 a35.52444914252578,35.52444914252578 0 0,0 0.28198281076995224,0.5407392204786454 l -12.93571419521008 6.605067838687077" fill="#ffac0f" stroke="none" /><path d="M 118.8641267826498 90.77261029715802 l 6.9284554256082655 -3.3890547379939178 a28.712923349921198,28.712923349921198 0 0,0 0.21277744942166224,0.44462303345511145 l -6.985612132989839 3.2696192024737027" fill="#ff4f07" stroke="none" /><path d="M 119.4528033332814 92.08871423366111 l 28.78672523644796 -11.707310546495043 a52.076303996305995,52.076303996305995 0 0,0 0.32967108838742043,0.830986499830442 l -28.983454999801506 11.211423029451035" fill="#89ff24" stroke="none" /><path d="M 120.16314734710363 94.1308016681162 l 30.139111667541155 -8.773056154301331 a52.39000742903767,52.39000742903767 0 0,0 0.24394161555405486,0.8656627354542069 l -30.285271775169793 8.25438549494411" fill="#85ff25" stroke="none" /><path d="M 120.592083275326 95.88100663000786 l 8.758011460739906 -1.7518475745641486 a29.93150237479439,29.93150237479439 0 0,0 0.09645598777465533,0.5046984864578071 l -8.78679374079672 1.601246523073027" fill="#ff6008" stroke="none" /><path d="M 120.77682067341334 96.94652285012252 l 62.260345513828305 -9.150126737784438 a83.92913031989873,83.92913031989873 0 0,0 0.19725537152567482,1.427241605706406 l -62.40824540190919 8.079996823877947" fill="#4dd3ff" stroke="none" /><path d="M 120.86939407059847 97.66154086499901 l 15.616219319007113 -1.749829947011193 a36.71394955645423,36.71394955645423 0 0,0 0.06480467964793123,0.6269264895274792 l -15.64395639113671 1.4814989352007824" fill="#ffbc11" stroke="none" /><path d="M 120.93736805541906 98.37931529534042 l 7.413744555778401 -0.57387071641478 a28.435921996463673,28.435921996463673 0 0,0 0.03349486051484176,0.4870079207744083 l -7.422503377458309 0.44651937148603754" fill="#ff4b06" stroke="none" /><path d="M 120.96210409425399 98.7389718711861 l 8.131320346860424 -0.48916004021746073 a29.146020385943793,29.146020385943793 0 0,0 0.025757324382354625,0.49968521189317106 l -8.13851926069935 0.349503034947559" fill="#ff5507" stroke="none" /><path d="M 120.98066250479742 99.09900007780936 l 22.156874526280713 -0.9515115273219774 a43.17729611471998,43.17729611471998 0 0,0 0.025444407335687272,0.740786157294932 l -22.16994362061325 0.5710191054629254" fill="#f0ff19" stroke="none" /><path d="M 120.99303781780057 99.45929381324524 l 12.63687013725964 -0.3254809486714227 a33.64106105965447,33.64106105965447 0 0,0 0.00991380987910116,0.5774297242393048 l -12.640595378737409 0.10850430846305147" fill="#ff930d" stroke="none" /><line stroke="#e1ed5e" stroke-width="0.3" x1="184.99686870605535" x2="189.99668451229388" y1="99.2704041080226" y2="99.22748670261217" /><path d="M 185.99683186730306 99.26182062694052 a86.0,86.0 0 0,1 -10.086455211305974,41.156179273409016" fill="none" id="id76" stroke="none" /><text fill="#e1ed5e" style="font-size:6.75px; font-family:Arial;" text-anchor="middle"><textPath startOffset="21.40746469413373" xlink:href="#id76">April</textPath></text><path d="M 120.99922638620191 100.18025310272382 l 11.7735506157574 0.10106177196893017 a32.77398435465051,32.77398435465051 0 0,0 -0.00965828780775846,0.5625468446007234 l -11.770080896350974 -0.3031555325387246" fill="#ff870c" stroke="none" /><path d="M 120.99303781780057 100.54070618675476 l 7.897346222854145 0.20340762488508243 a28.89996531799286,28.89996531799286 0 0,0 -0.017030767456688686,0.4958322123041569 l -7.89269076840061 -0.33894610175335005" fill="#ff5107" stroke="none" /><path d="M 120.98066250479742 100.90099992219065 l 15.632420265554693 0.6713233883675314 a36.646828383116315,36.646828383116315 0 0,0 -0.03238604220230465,0.6282805667240045 l -15.618592633895815 -0.9395757484682664" fill="#ffbb11" stroke="none" /><path d="M 120.93736805541906 101.62068470465957 l 28.36247132287279 2.1954346571955305 a49.44731468653582,49.44731468653582 0 0,0 -0.0727732078231247,0.8457349856760101 l -28.320604492351922 -2.681990690247198" fill="#a6ff21" stroke="none" /><path d="M 120.9064616781168 101.97986365728391 l 9.558063919760496 0.9051585906829078 a30.600827983487385,30.600827983487385 0 0,0 -0.05401426102037907,0.5225389775845952 l -9.541117266258452 -1.0691020905504345" fill="#ff6909" stroke="none" /><path d="M 120.86939407059847 102.33845913500097 l 10.836950541447322 1.2143029118849065 a31.904770910000245,31.904770910000245 0 0,0 -0.0656598874806468,0.5437580592856753 l -10.814508567707012 -1.4001546480939904" fill="#ff7b0b" stroke="none" /><path d="M 120.7213421655516 103.40968896794604 l 17.02008160292932 2.8006479508613693 a38.24896538100292,38.24896538100292 0 0,0 -0.1121699768439179,0.6469666184243559 l -16.96949680859317 -3.0924076022063134" fill="#ffd013" stroke="none" /><path d="M 120.65975698304385 103.76489593502545 l 11.635869788626557 2.1204430867042685 a32.82749950842629,32.82749950842629 0 0,0 -0.10578850508765725,0.553530160585899 l -11.597754991256743 -2.3198758123234824" fill="#ff880c" stroke="none" /><path d="M 120.592083275326 104.11899336999214 l 2.363511322615317 0.47276845851817817 a23.41033105350706,23.41033105350706 0 0,0 -0.08220625724976562,0.3933866999402362 l -2.355047354541187 -0.5132716097438235" fill="#ff0100" stroke="none" /><path d="M 120.51834098615036 104.47187691870673 l 12.209129667448662 2.6609229856455743 a33.495733606800044,33.495733606800044 0 0,0 -0.12726646314193205,0.56075951884171 l -12.161652342749067 -2.870116838426301" fill="#ff910d" stroke="none" /><path d="M 120.43855184770803 104.8234425847677 l 9.979261343479278 2.3550785049412357 a31.253392205796874,31.253392205796874 0 0,0 -0.12771099475884523,0.5211044400999235 l -9.937362822204136 -2.5260387696492588" fill="#ff720a" stroke="none" /><path d="M 120.26092885502905 105.52220625578681 l 7.940743742142663 2.1642850178399313 a29.230403441923382,29.230403441923382 0 0,0 -0.1361044250390316,0.4829865893078877 l -7.9024208250290515 -2.3002795310508275" fill="#ff5608" stroke="none" /><path d="M 120.05942366710727 106.21446072829308 l 12.935531547875911 4.007460739546934 a34.54207214591264,34.54207214591264 0 0,0 -0.18033475701712862,0.5648960578748916 l -12.864832075081527 -4.22892583111321" fill="#ff9f0e" stroke="none" /><path d="M 119.83427380445688 106.89939002012753 l 29.602335463005463 10.297228921990255 a52.34216310876107,52.34216310876107 0 0,0 -0.3024874292576872,0.8461111753729762 l -29.42120786370383 -10.803875053744152" fill="#86ff25" stroke="none" /><path d="M 119.4528033332814 107.91128576633889 l 6.803878566632262 2.7670781808606373 a28.345031327943598,28.345031327943598 0 0,0 -0.18717729909473516,0.4491573783241979 l -6.755375423001041 -2.8834680686261134" fill="#ff4906" stroke="none" /><path d="M 119.16976305983485 108.57439118712176 l 7.579472256134136 3.3902015331737934 a29.303123877014063,29.303123877014063 0 0,0 -0.20932970522994518,0.4574231839244301 l -7.520158086049135 -3.519813699312912" fill="#ff5708" stroke="none" /><path d="M 118.8641267826498 109.22738970284198 l 37.176124257534866 18.184705293703754 a62.38535636466756,62.38535636466756 0 0,0 -0.4788227215797202,0.9579661937846474 l -36.85848162274342 -18.820203343652146" fill="#32ff45" stroke="none" /><line stroke="#e1ed5e" stroke-width="0.3" x1="174.33088141563837" x2="178.70328620479359" y1="141.23008692659167" y2="143.65538615756765" /><path d="M 175.20536237346943 141.71514677278685 a86.0,86.0 0 0,1 -30.301960400862466,31.631185727798858" fill="none" id="id77" stroke="none" /><text fill="#e1ed5e" style="font-size:6.75px; font-family:Arial;" text-anchor="middle"><textPath startOffset="22.145653131862474" xlink:href="#id77">May</textPath></text><path d="M 118.36410011445183 110.18625677009912 l 16.043933755687757 8.899299601905621 a39.34680745419689,39.34680745419689 0 0,0 -0.3326990569901662,0.5878473550936975 l -15.888801333676213 -9.173403727098442" fill="#ffde14" stroke="none" /><path d="M 118.00360718960297 110.81064883170644 l 6.538337340186591 3.9260837110915405 a28.62653187763459,28.62653187763459 0 0,0 -0.25659192218616217,0.41912362125951574 l -6.469977453545025 -4.037744448475613" fill="#ff4d07" stroke="none" /><path d="M 117.62189284568427 111.42229804090321 l 29.590586143904236 19.180260435159326 a56.26308521244781,56.26308521244781 0 0,0 -0.5322904772682874,0.8059556256489679 l -29.256971227715223 -19.685395939147355" fill="#5cff2a" stroke="none" /><path d="M 116.79662413953412 112.60449989151573 l 6.622532951076428 4.969672189480661 a29.279829971623244,29.279829971623244 0 0,0 -0.3051348996519962,0.3994313786063341 l -6.536246074070127 -5.082624481327872" fill="#ff5708" stroke="none" /><path d="M 116.57777611688842 112.89097897827486 l 5.796357700405915 4.5072828067917605 a28.342571817248746,28.342571817248746 0 0,0 -0.30196117892718777,0.3815180852810478 l -5.718130090837166 -4.6061208359874914" fill="#ff4906" stroke="none" /><path d="M 116.1254893667686 113.45245675266167 l 28.169775845324153 23.5002289029654 a57.68510637394389,57.68510637394389 0 0,0 -0.6408689962719767,0.7549420661662184 l -27.762212285545065 -23.980337751581175" fill="#4dff2c" stroke="none" /><path d="M 115.89218393027572 113.72728997021213 l 6.424186817867687 5.549059566550968 a29.488948011620508,29.488948011620508 0 0,0 -0.33419254106029284,0.38024976484799583 l -6.3279832128488085 -5.658521609210257" fill="#ff5a08" stroke="none" /><path d="M 114.39649973595853 115.28858382429668 l 14.485906887468573 15.383531120891197 a42.1304171302849,42.1304171302849 0 0,0 -0.530783528323687,0.49128530967843664 l -14.21969358783092 -15.629934176702013" fill="#fdff18" stroke="none" /><path d="M 112.7482090630111 116.68781488649013 l 5.033879956177801 6.5895104523541965 a29.292261176234973,29.292261176234973 0 0,0 -0.40220647420059785,0.3018232365214407 l -4.920020493066437 -6.674952716139652" fill="#ff5708" stroke="none" /><path d="M 110.96478420261333 117.91015095944535 l 3.4614816917918234 5.654070203093638 a27.62950717354777,27.62950717354777 0 0,0 -0.4066369342764257,0.24417379540489223 l -3.363912000957961 -5.7126579990344535" fill="#ff3f05" stroke="none" /><line stroke="#e1ed5e" stroke-width="0.3" x1="143.1302829299769" x2="145.66735839644613" y1="173.24464959558577" y2="177.55315839532614" /><path d="M 143.63769802327073 174.10635135553383 a86.0,86.0 0 0,1 -40.68552437913181,11.842963189579606" fill="none" id="id78" stroke="none" /><text fill="#e1ed5e" style="font-size:6.75px; font-family:Arial;" text-anchor="middle"><textPath startOffset="21.407464694133747" xlink:href="#id78">June</textPath></text><path d="M 110.65571695917076 118.09573695890943 l 8.93847630390605 15.179486901603687 a38.61570836587186,38.61570836587186 0 0,0 -0.5741007147967341,0.33145720222985225 l -8.676583121248918 -15.330691001109711" fill="#ffd513" stroke="none" /><path d="M 110.34350942703117 118.27599006163325 l 5.331828910392405 9.420830798684678 a31.82499203081194,31.82499203081194 0 0,0 -0.477762557123783,0.26500683679959613 l -5.169322165112527 -9.510970550917417" fill="#ff7a0b" stroke="none" /><path d="M 109.71004243097381 118.62028667847754 l 4.906573232329794 9.409001128923224 a31.611492031203422,31.611492031203422 0 0,0 -0.48331378915416356,0.2467834644892049 l -4.744332221462049 -9.491842545085264" fill="#ff770b" stroke="none" /><path d="M 109.3889696526874 118.78422872680471 l 3.934748254124483 7.872132291610324 a29.80072216581967,29.80072216581967 0 0,0 -0.4595551637137793,0.22479145917533536 l -3.7990328411486343 -7.938517500882883" fill="#ff5e08" stroke="none" /><path d="M 109.06512990194946 118.94263497670748 l 4.8696897040888585 10.175778561601048 a32.280972792665025,32.280972792665025 0 0,0 -0.5019096163815225,0.23491904336876887 l -4.6942913738358305 -10.25787383654035" fill="#ff800b" stroke="none" /><path d="M 108.73861861582097 119.09545874513695 l 3.0927457961617364 6.758207716363864 a28.432257267963493,28.432257267963493 0 0,0 -0.4455559425451178,0.19929150585763686 l -2.9762764507609916 -6.810302973131351" fill="#ff4b06" stroke="none" /><path d="M 108.4095320186766 119.2426549942271 l 10.044709491780905 22.984261054992178 a46.08331008894766,46.08331008894766 0 0,0 -0.7276004402637926,0.3105693621520307 l -9.648673976346682 -23.15330506680361" fill="#cdff1d" stroke="none" /><path d="M 108.07796709384702 119.3841803445677 l 6.057354672093879 14.535446110484123 a36.74708669101449,36.74708669101449 0 0,0 -0.5843583649863053,0.2376534598202519 l -5.806941845917133 -14.637286826883667" fill="#ffbc11" stroke="none" /><path d="M 106.72888874123015 119.89276391827305 l 2.4179495717816977 7.1482382674898215 a28.546110949388776,28.546110949388776 0 0,0 -0.46554256803574795,0.1530330889637104 l -2.2948842660982156 -7.188692277855551" fill="#ff4c07" stroke="none" /><path d="M 106.38641147887787 120.00534299687104 l 2.6838077647189578 8.40698959790517 a29.824981485377265,29.824981485377265 0 0,0 -0.48907198804381125,0.15151575206970014 l -2.539095143803522 -8.451821937781515" fill="#ff5e08" stroke="none" /><path d="M 106.0420521117495 120.11202640906438 l 6.304242057280407 20.984771465078452 a42.911277949000464,42.911277949000464 0 0,0 -0.7073004389503071,0.2058848494713856 l -5.943081605948494 -21.089900008852357" fill="#f3ff19" stroke="none" /><path d="M 103.58742460773223 120.69131181640829 l 3.8078701018927363 21.96278284561567 a43.29043976767974,43.29043976767974 0 0,0 -0.7333039680042674,0.12066488888021158 l -3.430288630835397 -22.024913732991553" fill="#efff19" stroke="none" /><path d="M 103.2317021107853 120.74984581791261 l 4.067816328498441 26.118298883500504 a47.433173593994766,47.433173593994766 0 0,0 -0.8056296277300192,0.11839981189642847 l -3.618861595160737 -26.184279768695813" fill="#bdff1f" stroke="none" /><path d="M 102.875027216393 120.80226474461374 l 1.2166632275768976 8.803169034637511 a29.88684727345635,29.88684727345635 0 0,0 -0.5088195587630407,0.06587687880432763 l -1.0653658469230813 -8.822757509642233" fill="#ff5f08" stroke="none" /><path d="M 102.15924093988457 120.88869738790638 l 0.9664342382062453 9.34937457617922 a30.399191460039724,30.399191460039724 0 0,0 -0.5195372898928939,0.04920072151374104 l -0.8057973849283361 -9.364587053198145" fill="#ff6609" stroke="none" /><path d="M 101.44090949804482 120.95050786540614 l 0.6138331081655757 8.924998674878331 a29.94608251869276,29.94608251869276 0 0,0 -0.5131555678980402,0.03087016468706056 l -0.4605331881350704 -8.934220817390083" fill="#ff6008" stroke="none" /><path d="M 101.08105385017728 120.97215588758144 l 0.7636321015753801 14.814258764606413 a35.833927218753445,35.833927218753445 0 0,0 -0.614593213366655,0.02639327701380113 l -0.5092131276078957 -14.825184610046044" fill="#ffb010" stroke="none" /><path d="M 100.72087961077811 120.9876233191556 l 1.1764894749401456 34.25220740026607 a55.27240638291229,55.27240638291229 0 0,0 -0.9485447314129916,0.024431147561398244 l -0.58833142945641 -34.26735626517751" fill="#66ff29" stroke="none" /><line stroke="#e1ed5e" stroke-width="0.3" x1="101.45913802915013" x2="101.54496967792366" y1="184.9874750549273" y2="189.98673829345242" /><path d="M 101.47630435890484 185.9873277026323 a86.0,86.0 0 0,1 -42.54439059252881,-10.42667462771756" fill="none" id="id79" stroke="none" /><text fill="#e1ed5e" style="font-size:6.75px; font-family:Arial;" text-anchor="middle"><textPath startOffset="22.145653131862474" xlink:href="#id79">July</textPath></text><path d="M 99.63950707515114 120.99690560180557 l -0.15298033559574373 8.910337607272508 a29.911650759463914,29.911650759463914 0 0,0 -0.5133219375179293,-0.013221352232191067 l 0.30591558718441697 -8.90639853769027" fill="#ff6008" stroke="none" /><path d="M 98.55909050195518 120.95050786540614 l -0.7171889216291194 10.427769519155206 a31.452403412322447,31.452403412322447 0 0,0 -0.5383318559631357,-0.04167029030015261 l 0.8960897723674912 -10.41392146186" fill="#ff750a" stroke="none" /><path d="M 98.19965949673042 120.92268563240118 l -0.8747548289281386 10.165977079252398 a31.203542815444948,31.203542815444948 0 0,0 -0.5332840543046458,-0.05050255439599102 l 1.0491384466177998 -10.149462769351222" fill="#ff720a" stroke="none" /><path d="M 97.48249496171623 120.84855314841334 l -2.1414022947211873 17.73388290180519 a38.86270434628462,38.86270434628462 0 0,0 -0.6616323192903707,-0.08566155007263848 l 2.445512435902352 -17.694509755532152" fill="#ffd814" stroke="none" /><path d="M 96.76829788921471 120.74984581791261 l -1.540605039234703 9.89178950737244 a31.01104208087644,31.01104208087644 0 0,0 -0.5253012058064709,-0.08643811351490062 l 1.7101837480942372 -9.863885395361871" fill="#ff6f0a" stroke="none" /><path d="M 96.05791012581884 120.62667999033965 l -5.9731009517812454 31.253788171934183 a52.81944704227751,52.81944704227751 0 0,0 -0.8891361981788829,-0.17785214134730856 l 6.508733635491087 -31.14664663392401" fill="#81ff25" stroke="none" /><path d="M 93.95794788825049 120.11202640906438 l -2.2883556624048182 7.617191752801913 a28.95350123132031,28.95350123132031 0 0,0 -0.47478139810323033,-0.14708849077626857 l 2.4187776933796825 -7.5767866742189955" fill="#ff5207" stroke="none" /><path d="M 93.61358852112213 120.00534299687104 l -5.530453411918672 17.324066543405454 a39.18541164070099,39.18541164070099 0 0,0 -0.6390529763263579,-0.21006940652345793 l 5.827029125892774 -17.226576215479977" fill="#ffdc14" stroke="none" /><path d="M 93.27111125876986 119.89276391827306 l -3.6535410834673208 10.801045021564775 a32.402233816513885,32.402233816513885 0 0,0 -0.5253701708271705,-0.18275101721461562 l 3.838417026339513 -10.73673557178157" fill="#ff820c" stroke="none" /><path d="M 92.59220618246901 119.65005319985036 l -2.5895636734334238 6.869125302454309 a28.341030066658494,28.341030066658494 0 0,0 -0.4537638294245465,-0.1755255971787028 l 2.7070997653514985 -6.823659817137566" fill="#ff4906" stroke="none" /><path d="M 92.25597844496254 119.51999308798841 l -2.2656270712753037 5.710860236757103 a27.143857963028516,27.143857963028516 0 0,0 -0.4316462034682714,-0.17554675318956917 l 2.363327735934016 -5.6711262269882425" fill="#ff3805" stroke="none" /><path d="M 90.93487009805054 118.94263497670748 l -10.332270901866643 21.590472314404032 a44.935419711143716,44.935419711143716 0 0,0 -0.692946434217194,-0.33895482496427076 l 10.701377585345906 -21.409923739342542" fill="#dbff1b" stroke="none" /><line stroke="#e1ed5e" stroke-width="0.3" x1="58.13341422392154" x2="55.67067388415222" y1="173.97424548756322" y2="178.32567169271397" /><path d="M 57.64086615596768 174.84453072859336 a86.0,86.0 0 0,1 -31.369924170532247,-30.572349798747897" fill="none" id="id80" stroke="none" /><text fill="#e1ed5e" style="font-size:6.75px; font-family:Arial;" text-anchor="middle"><textPath startOffset="22.145653131862474" xlink:href="#id80">August</textPath></text><path d="M 89.34428304082925 118.09573695890944 l -5.843882755733102 9.924190514035825 a32.5169667457032,32.5169667457032 0 0,0 -0.47856806081944253,-0.2873663701448392 l 6.013383573109971 -9.822410143355066" fill="#ff840c" stroke="none" /><path d="M 89.03521579738668 117.91015095944536 l -18.54721384514639 30.29547993881311 a56.522038879273495,56.522038879273495 0 0,0 -0.8231650953916356,-0.5137159005515999 l 19.06454306932774 -29.97262824141996" fill="#59ff2a" stroke="none" /><path d="M 88.4268655584334 117.5232005979908 l -3.561520332110537 5.392595716268868 a27.462547147615876,27.462547147615876 0 0,0 -0.391149990007757,-0.2631831697466368 l 3.6535666102152997 -5.33066287246511" fill="#ff3d05" stroke="none" /><path d="M 87.54013794807813 116.9041958592261 l -6.258659053217241 8.491073015963618 a31.548418559520837,31.548418559520837 0 0,0 -0.43318534267761616,-0.3250703569614821 l 6.403497384805624 -8.382383631738122" fill="#ff760a" stroke="none" /><path d="M 86.68645165197938 116.24036423190432 l -13.986486628895173 17.061239516337363 a43.06145285456275,43.06145285456275 0 0,0 -0.5676435884962191,-0.4735484704673659 l 14.277304551553286 -16.818628861958125" fill="#f2ff19" stroke="none" /><path d="M 85.86807049272751 115.53346607816431 l -9.842248418818482 10.818355120431839 a35.625548244408094,35.625548244408094 0 0,0 -0.4488314021946829,-0.41543164520763737 l 10.026509592327132 -10.647805729091825" fill="#ffae10" stroke="none" /><path d="M 85.34317274990678 115.03919595460226 l -10.247004549548722 10.514329379667355 a35.681696923128754,35.681696923128754 0 0,0 -0.4349906055140389,-0.4312727594310769 l 10.425987075192722 -10.33687661000762" fill="#ffae10" stroke="none" /><path d="M 85.08716467003676 114.78537596483092 l -11.451638655336154 11.353761990004699 a37.12600196012839,37.12600196012839 0 0,0 -0.44482819588901057,-0.45643291620732646 l 11.644853652375975 -11.155506381729635" fill="#ffc112" stroke="none" /><path d="M 84.83555147118756 114.52719865689866 l -10.604444489171625 10.158817938387283 a35.68522471156712,35.68522471156712 0 0,0 -0.4199711956797485,-0.4459948561595576 l 10.777271518587625 -9.975281622283235" fill="#ffae10" stroke="none" /><path d="M 84.58840730492382 114.26474011684316 l -2.161251541424799 2.0004221611307655 a23.944944320026128,23.944944320026128 0 0,0 -0.27662374025007186,-0.30405794788165086 l 2.1952729825167503 -1.9630266376914407" fill="#ff0901" stroke="none" /><path d="M 84.3458050057657 113.99807769240083 l -2.920772761033025 2.6117730132943304 a24.91819751857471,24.91819751857471 0 0,0 -0.28239311026263025,-0.3213115212906171 l 2.9651769352542474 -2.561249214192413" fill="#ff1802" stroke="none" /><path d="M 84.1078160697243 113.72728997021213 l -4.592607599985562 3.9669850613985456 a27.068691378279535,27.068691378279535 0 0,0 -0.3007272789190846,-0.3542559783986939 l 4.6600294424117585 -3.8875623005502975" fill="#ff3705" stroke="none" /><path d="M 83.4222238831116 112.89097897827486 l -7.9960911637877565 6.21780885288639 a31.129097730332994,31.129097730332994 0 0,0 -0.32440673738229886,-0.42465883282959493 l 8.10164987852435 -6.079629106815924" fill="#ff710a" stroke="none" /><path d="M 83.20337586046588 112.60449989151573 l -28.8258523910317 21.631457030727198 a57.039557424332294,57.039557424332294 0 0,0 -0.5809831493760386,-0.7882152231731745 l 29.192937559991567 -21.133435498285145" fill="#54ff2b" stroke="none" /><path d="M 82.18462484594161 111.11811171558189 l -4.306446616496689 2.6875411921085917 a26.07625453656692,26.07625453656692 0 0,0 -0.2337326890855705,-0.3817847819277604 l 4.351947270037664 -2.613219294056274" fill="#ff2903" stroke="none" /><path d="M 81.99639281039703 110.81064883170644 l -26.4833191862882 15.902472243800894 a51.89101517573805,51.89101517573805 0 0,0 -0.45201099446178855,-0.767613487638297 l 26.752403890879755 -15.445507587869038" fill="#8bff24" stroke="none" /><line stroke="#e1ed5e" stroke-width="0.3" x1="26.387840678322732" x2="22.057713659400548" y1="142.50000000000003" y2="145.00000000000006" /><path d="M 25.521815274538298 143.00000000000003 a86.0,86.0 0 0,1 -11.493303480769221,-40.785679425670985" fill="none" id="id81" stroke="none" /><text fill="#e1ed5e" style="font-size:6.75px; font-family:Arial;" text-anchor="middle"><textPath startOffset="21.40746469413373" xlink:href="#id81">September</textPath></text><path d="M 81.81346652052679 110.50000000000001 l -15.023396359522868 8.673761932312981 a38.34752386462595,38.34752386462595 0 0,0 -0.3242495605906676,-0.5729179045708934 l 15.170079285134914 -8.414587257642967" fill="#ffd113" stroke="none" /><path d="M 81.4637452351635 109.86951160357371 l -6.555320960893043 3.4903391817540435 a28.42662106910075,28.42662106910075 0 0,0 -0.22564230278694272,-0.43269886764679755 l 6.614271332654936 -3.377294071002743" fill="#ff4b06" stroke="none" /><path d="M 81.1358732173502 109.22738970284198 l -4.493361336808832 2.1979281950412104 a26.00211799677752,26.00211799677752 0 0,0 -0.19268899510821166,-0.40264589011333307 l 4.530429589876955 -2.1204698028627726" fill="#ff2803" stroke="none" /><path d="M 80.83023694016515 108.57439118712176 l -14.187208064939524 6.34575771344606 a36.54173457615479,36.54173457615479 0 0,0 -0.25120896976789536,-0.5748152841279645 l 14.294050916724387 -6.101280359542247" fill="#ffba11" stroke="none" /><path d="M 80.68587082218212 108.24405325689762 l -28.621925201771493 12.216997903759658 a52.120244858231274,52.120244858231274 0 0,0 -0.3441776637269907,-0.8259010994656943 l 28.82742871003497 -11.723864294852683" fill="#88ff25" stroke="none" /><path d="M 80.41425534168474 107.57618678355246 l -8.772898463369016 3.3935455889549653 a30.406375450347394,30.406375450347394 0 0,0 -0.18413133208105714,-0.48843023446324846 l 8.829860479264509 -3.242447074297572" fill="#ff6609" stroke="none" /><path d="M 80.28708602549918 107.23885506374661 l -5.730711051308833 2.1043964766597143 a27.104877859922425,27.104877859922425 0 0,0 -0.1566401603838035,-0.4381504069051601 l 5.76599138173658 -2.005711113373633" fill="#ff3805" stroke="none" /><path d="M 80.16572619554312 106.89939002012753 l -2.1896533518402213 0.7616750999893184 a23.318346557175794,23.318346557175794 0 0,0 -0.12826709391340962,-0.3791988715860348 l 2.2024058673259983 -0.7239745539291219" fill="#ff0000" stroke="none" /><path d="M 79.94057633289273 106.21446072829308 l -16.78121663777068 5.198863810798773 a38.568079484309735,38.568079484309735 0 0,0 -0.190496339738339,-0.6341003594122016 l 16.867989297512647 -4.910025847795848" fill="#ffd413" stroke="none" /><path d="M 79.83685265289637 105.86919833188381 l -24.532206455212886 7.140967762904706 a46.550392837528605,46.550392837528605 0 0,0 -0.21675083838925943,-0.7691722597059605 l 24.65117578567672 -6.718787579295751" fill="#c8ff1d" stroke="none" /><path d="M 79.73907114497094 105.5222062557868 l -5.6564665183623655 1.5416951027689911 a26.862801144781933,26.862801144781933 0 0,0 -0.11744227238769774,-0.44594743743940846 l 5.682098271554795 -1.44436716095678" fill="#ff3404" stroke="none" /><path d="M 79.2786578344484 103.40968896794605 l -47.094130694596195 7.749321284377302 a68.72744625734977,68.72744625734977 0 0,0 -0.1815664841669131,-1.1657870753590058 l 47.220218670901374 -6.939746027086846" fill="#3aff8f" stroke="none" /><path d="M 79.13060592940153 102.33845913500099 l -7.275341537028972 0.8152171941343576 a28.320872458527834,28.320872458527834 0 0,0 -0.04998985642235727,-0.48360651374428376 l 7.288263785932995 -0.6902061581071424" fill="#ff4906" stroke="none" /><path d="M 79.0935383218832 101.97986365728391 l -8.793666793911896 0.8327693881243504 a29.833010842071108,29.833010842071108 0 0,0 -0.043906204245116154,-0.5102566470421724 l 8.806666620854754 -0.681691693706516" fill="#ff5e08" stroke="none" /><path d="M 79.06263194458094 101.62068470465958 l -5.23189038835567 0.4049814048461005 a26.247541040719888,26.247541040719888 0 0,0 -0.03091715211927471,-0.449528606432079 l 5.238071501640011 -0.31510937425967817" fill="#ff2b04" stroke="none" /><path d="M 79.03789590574601 101.26102812881392 l -34.540804182704285 2.0778890072482326 a55.6032480601802,55.6032480601802 0 0,0 -0.04913847166899302,-0.9532732229302595 l 34.57138424382985 -1.4846439909412423" fill="#63ff29" stroke="none" /><line stroke="#e1ed5e" stroke-width="0.3" x1="15.003131293944662" x2="10.003315487706104" y1="100.72959589197737" y2="100.7725132973878" /><path d="M 14.003168132696942 100.73817937305945 a86.0,86.0 0 0,1 10.791469493833604,-42.45332614584628" fill="none" id="id82" stroke="none" /><text fill="#e1ed5e" style="font-size:6.75px; font-family:Arial;" text-anchor="middle"><textPath startOffset="22.145653131862435" xlink:href="#id82">October</textPath></text><path d="M 79.00077361379809 100.18025310272382 l -2.9627998665793336 0.025432073490648355 a23.96290901645065,23.96290901645065 0 0,0 0.0,-0.4113703524289307 l 2.9627998665793336 0.025432073490647265" fill="#ff0a01" stroke="none" /><path d="M 79.00077361379809 99.81974689727619 l -22.32809186722488 -0.19165981464984705 a43.32891443657272,43.32891443657272 0 0,0 0.012768759559346535,-0.743716230303604 l 22.32151167606687 0.5749229609225035" fill="#eeff19" stroke="none" /><path d="M 79.00696218219943 99.45929381324524 l -21.62785843315157 -0.5570569139424528 a42.63503114880625,42.63503114880625 0 0,0 0.025124850255500354,-0.7314826015727481 l 21.61510889589922 0.9282457800793396" fill="#f7ff19" stroke="none" /><path d="M 79.03789590574601 98.7389718711861 l -11.761619975811307 -0.7075498510659162 a32.782882976892665,32.782882976892665 0 0,0 0.038615174592266065,-0.5614561637056517 l 11.747740840053977 0.9093494389258929" fill="#ff870c" stroke="none" /><path d="M 79.06263194458094 98.37931529534042 l -35.84276839091994 -2.7744569589674417 a56.94998828014124,56.94998828014124 0 0,0 0.08381513453072152,-0.9740589115442092 l 35.78985963369148 3.3893369178873316" fill="#55ff2b" stroke="none" /><path d="M 79.0935383218832 98.0201363427161 l -3.2534963003723516 -0.30810948229261004 a24.26805288048024,24.26805288048024 0 0,0 0.04283612663847007,-0.4144006674256832 l 3.2477277812522174 0.363914672001206" fill="#ff0e01" stroke="none" /><path d="M 79.17382384314186 97.30363454192245 l -10.270547718217106 -1.3297280256519106 a31.35626993923868,31.35626993923868 0 0,0 0.07369542199412037,-0.5332233622160432 l 10.246207779667778 1.505839696068021" fill="#ff740a" stroke="none" /><path d="M 79.22317932658666 96.9465228501225 l -8.64418722610586 -1.2703978433020193 a29.737040888094672,29.737040888094672 0 0,0 0.07856031698546763,-0.504413590415572 l 8.621105416982124 1.4185996156490412" fill="#ff5d08" stroke="none" /><path d="M 79.34024301695615 96.23510406497455 l -8.636677936277978 -1.5738904228691584 a29.778914331407393,29.778914331407393 0 0,0 0.09596426402944205,-0.5021255800401918 l 8.608387379966377 1.7219185679426647" fill="#ff5e08" stroke="none" /><path d="M 79.407916724674 95.88100663000787 l -18.942784468156805 -3.7890874172512574 a40.31802958022931,40.31802958022931 0 0,0 0.14157827601414297,-0.6775033026405317 l 18.874948481318295 4.113707171177198" fill="#ffea16" stroke="none" /><path d="M 79.48165901384962 95.52812308129327 l -9.173015037164092 -1.9992159330684773 a30.38834752334368,30.38834752334368 0 0,0 0.11546000321780742,-0.5087380779779624 l 9.137344172388623 2.156388344985448" fill="#ff6609" stroke="none" /><path d="M 79.56144815229197 95.17655741523228 l -12.403029521699002 -2.927081195422507 a33.74374143023677,33.74374143023677 0 0,0 0.13788732936776582,-0.5626273579870071 l 12.350954665814939 3.1395643780176314" fill="#ff940d" stroke="none" /><path d="M 80.05021161711548 93.44210830539832 l -28.856237849044273 -9.485618538693327 a51.37530941179394,51.37530941179394 0 0,0 0.28259986706155654,-0.8354562922618798 l 28.689152560410353 9.979576505429367" fill="#90ff24" stroke="none" /><path d="M 80.5471966667186 92.08871423366112 l -4.663305363134782 -1.8965256940803437 a26.034205659103385,26.034205659103385 0 0,0 0.17191768966379967,-0.41253987075570864 l 4.630061828934504 1.9762980742773162" fill="#ff2803" stroke="none" /><path d="M 80.83023694016515 91.42560881287825 l -19.346893429438467 -8.653619348438093 a42.194041926865,42.194041926865 0 0,0 0.3014172275993927,-0.6586510394534497 l 19.195491736984025 8.984459370106213" fill="#fcff18" stroke="none" /><path d="M 80.9802524753101 91.09779779509293 l -17.73894444627018 -8.302721692667953 a40.585845337226544,40.585845337226544 0 0,0 0.3007618746525583,-0.6284766427040975 l 17.59380331365772 8.606010837437138" fill="#ffee16" stroke="none" /><line stroke="#e1ed5e" stroke-width="0.3" x1="26.387840678322718" x2="22.05771365940052" y1="57.49999999999999" y2="54.99999999999999" /><path d="M 25.521815274538284 56.99999999999999 a86.0,86.0 0 0,1 29.574782752854787,-30.34633250058573" fill="none" id="id83" stroke="none" /><text fill="#e1ed5e" style="font-size:6.75px; font-family:Arial;" text-anchor="middle"><textPath startOffset="21.40746469413373" xlink:href="#id83">November</textPath></text><path d="M 82.576782715395 88.27688183743585 l -6.272309946261574 -4.220290056143776 a28.559941813265358,28.559941813265358 0 0,0 0.27718139321433094,-0.4044159363660022 l 6.19893881623193 4.327340727579813" fill="#ff4c07" stroke="none" /><path d="M 83.2033758604659 87.39550010848427 l -5.8774648484618846 -4.410559195074078 a28.34830765946538,28.34830765946538 0 0,0 0.29542719412503615,-0.38672368045000416 l 5.800885676982541 4.510803788764966" fill="#ff4906" stroke="none" /><path d="M 83.42222388311158 87.10902102172516 l -21.562619098094352 -16.767223031013813 a48.31458054851407,48.31458054851407 0 0,0 0.5147425503892776,-0.6503603971044061 l 21.271610117063513 17.134903372032902" fill="#b3ff20" stroke="none" /><path d="M 83.64595745247003 86.82634096563983 l -12.539606262959213 -10.10101917328702 a37.10193508772029,37.10193508772029 0 0,0 0.4037983465095408,-0.49256832604890693 l 12.364361097211042 10.314789781034419" fill="#ffc111" stroke="none" /><path d="M 84.10781606972428 86.27271002978789 l -6.038690906623981 -5.216077379886726 a28.979552061281957,28.979552061281957 0 0,0 0.32841965533433665,-0.37368128060587535 l 5.948260187331052 5.318970938303901" fill="#ff5207" stroke="none" /><path d="M 84.34580500576568 86.00192230759919 l -6.421497499082492 -5.742142660598113 a29.614396813786993,29.614396813786993 0 0,0 0.3421200359621927,-0.3760498501315245 l 6.321979762278434 5.851530086287296" fill="#ff5b08" stroke="none" /><path d="M 84.58840730492382 85.73525988315684 l -5.510241107491171 -5.100196905970663 a28.50831309565326,28.50831309565326 0 0,0 0.33550777483859784,-0.35629763021571087 l 5.421877498916301 5.194035996130885" fill="#ff4c07" stroke="none" /><path d="M 85.34317274990677 84.96080404539775 l -21.070896206136936 -21.620595752137476 a51.18994580331573,51.18994580331573 0 0,0 0.6345786352222467,-0.6079119777934435 l 20.69664508504939 21.979119860236487" fill="#92ff23" stroke="none" /><path d="M 85.86807049272753 84.46653392183569 l -6.7484579184628535 -7.41773740821568 a31.028185904464788,31.028185904464788 0 0,0 0.397064700321674,-0.3550577034500828 l 6.620128191317788 7.532490641549164" fill="#ff6f0a" stroke="none" /><path d="M 86.40962598614128 83.9905735841838 l -5.688022522629265 -6.700476229328083 a29.789196886958926,29.789196886958926 0 0,0 0.3926863934768758,-0.32759295581396486 l 5.57216179499048 6.79713136905393" fill="#ff5e08" stroke="none" /><path d="M 86.96720088162412 83.53348406188908 l -4.741759097727654 -5.9910577189303815 a28.640487676348826,28.640487676348826 0 0,0 0.38813323683265266,-0.3018147525639664 l 4.638215916259757 6.071573523115153" fill="#ff4e07" stroke="none" /><path d="M 87.25179093698888 83.31218511350988 l -28.211929826370422 -36.93032175783263 a67.47323584241897,67.47323584241897 0 0,0 0.9264621849372098,-0.6952344954870522 l 27.573814652522458 37.40917528058368" fill="#38ff81" stroke="none" /><path d="M 88.12776184653039 82.6780497279521 l -4.189794521018434 -6.113035419692137 a28.411044472324175,28.411044472324175 0 0,0 0.40465946955779397,-0.27227295049681893 l 4.08423876336365 6.184058044246066" fill="#ff4a06" stroke="none" /><path d="M 89.03521579738668 82.08984904055464 l -9.213959491181178 -15.050310372906193 a38.646781344651366,38.646781344651366 0 0,0 0.5687835322913797,-0.3415381686627026 l 8.954243202332364 15.206262542104819" fill="#ffd513" stroke="none" /><line stroke="#e1ed5e" stroke-width="0.3" x1="56.869717070023135" x2="54.33264160355391" y1="26.7553504044142" y2="22.446841604673864" /><path d="M 56.362301976729285 25.89364864446614 a86.0,86.0 0 0,1 42.16139366436587,-11.88097634709845" fill="none" id="id84" stroke="none" /><text fill="#e1ed5e" style="font-size:6.75px; font-family:Arial;" text-anchor="middle"><textPath startOffset="22.145653131862474" xlink:href="#id84">December</textPath></text><path d="M 89.34428304082924 81.90426304109057 l -15.724800607421825 -26.704149201176687 a51.99001353181181,51.99001353181181 0 0,0 0.7729368486033995,-0.44625529760775134 l 15.264071290958025 26.97015139606061" fill="#8aff24" stroke="none" /><path d="M 89.97174638481275 81.54914285379989 l -3.6019738717485574 -6.6272262252450975 a28.542833898034324,28.542833898034324 0 0,0 0.4325070940714746,-0.23028566653410348 l 3.4876779618905207 6.688082359501777" fill="#ff4c07" stroke="none" /><path d="M 90.61103034731259 81.2157712731953 l -3.2665117060716504 -6.5352115615872926 a28.306099429969958,28.306099429969958 0 0,0 0.43650667541738153,-0.21351728857509167 l 3.1538447813922157 6.590322600259599" fill="#ff4906" stroke="none" /><path d="M 91.5904679813234 80.7573450057729 l -25.22859605602979 -57.7279649826813 a84.0,84.0 0 0,0 1.3262596993182754,-0.5661014013623844 l 24.233901281541083 58.15254103370309" fill="#4dd2ff" stroke="none" /><path d="M 93.27111125876988 80.10723608172694 l -1.6656190739794245 -4.9241068311062595 a26.19818381588718,26.19818381588718 0 0,0 0.4272515367555131,-0.1404460664253746 l 1.5808447995761505 4.951973818933663" fill="#ff2a04" stroke="none" /><path d="M 93.95794788825049 79.88797359093562 l -6.6432607898932154 -22.11325456607937 a44.089585128944236,44.089585128944236 0 0,0 0.7267223071729562,-0.21153827225366414 l 6.262678470338635 22.224036532635555" fill="#e5ff1a" stroke="none" /><path d="M 94.30408787586887 79.78721728523814 l -1.5798983218777785 -5.606501785068139 a26.82485544657071,26.82485544657071 0 0,0 0.44429445912171456,-0.12109443052332311 l 1.4834224618213863 5.632796709735603" fill="#ff3404" stroke="none" /><path d="M 95.00130118170881 79.60360301121753 l -1.487376466454981 -6.069003551600068 a27.248607273808968,27.248607273808968 0 0,0 0.45526953084516597,-0.1074423696447958 l 1.382974781869909 6.093642064891096" fill="#ff3a05" stroke="none" /><path d="M 95.70440661134978 79.44403061299748 l -1.5197128241730575 -7.272376005903269 a28.42946699563257,28.42946699563257 0 0,0 0.4785674522589151,-0.0957268935149673 l 1.3946488863831656 7.297392296081103" fill="#ff4b06" stroke="none" /><path d="M 96.41257539226777 79.30868818359171 l -10.326162733807404 -59.55856257763963 a81.4471009488436,81.4471009488436 0 0,0 1.3796460056481468,-0.22702022521252674 l 9.302239225106185 59.72704880134783" fill="#4aeaff" stroke="none" /><path d="M 97.48249496171623 79.15144685158666 l -0.7036562179234406 -5.827282898940804 a26.869613109678546,26.869613109678546 0 0,0 0.458400843574968,-0.05136477065523672 l 0.6035194727476733 5.838503430103011" fill="#ff3405" stroke="none" /><path d="M 98.9189461498227 79.02784411241856 l -1.5430496509797178 -29.934750999977975 a50.97449448541328,50.97449448541328 0 0,0 0.8742714180972104,-0.03754497645148132 l 1.0289524722816874 29.956828544855288" fill="#95ff23" stroke="none" /><path d="M 99.63950707515114 79.00309439819443 l -0.1280242610120375 -7.456771375853505 a28.45787031015932,28.45787031015932 0 0,0 0.4885171858608878,-0.004193332500248564 l 1.8266514007585374e-15 7.4578703101593184" fill="#ff4b07" stroke="none" /></svg>