<?xml version="1.0" encoding="utf-8" ?>
<svg baseProfile="full" height="200mm" version="1.1" viewBox="0,0,200,200" width="200mm" xmlns="http://www.w3.org/2000/svg" xmlns:ev="http://www.w3.org/2001/xml-events" xmlns:xlink="http://www.w3.org/1999/xlink"><defs /><rect fill="#1a1a1a" height="200" width="200" x="0" y="0" /><text alignment-baseline="middle" fill="#e1ed5e" style="dominant-baseline: central; font-size:9.0px; font-family:Arial;" text-anchor="middle" x="100.0" y="100.0">2022</text><line stroke="#e1ed5e" stroke-width="0.3" x1="100.0" x2="100.0" y1="15.0" y2="10.0" /><path d="M 100.0 14.0 a86.0,86.0 0 0,1 42.46469731375804,11.215312516191453" fill="none" id="id49" stroke="none" /><text fill="#e1ed5e" style="font-size:6.75px; font-family:Arial;" text-anchor="middle"><textPath startOffset="22.20632615414155" xlink:href="#id49">January</textPath></text><path d="M 100.0 79.0 l 0.0 -5.135511377483244 a26.135511377483244,26.135511377483244 0 0,0 0.44987986565548865,0.003872258035839312 l -0.08839938638296026 5.134750496055964" fill="#ff2904" stroke="none" /><path d="M 100.36148047927253 79.00311137660856 l 0.5238494986663239 -30.428225615535084 a51.43273455355529,51.43273455355529 0 0,0 0.885067635559403,0.022858685822627286 l -1.0475437694205947 30.414700137570094" fill="#90ff24" stroke="none" /><path d="M 101.44485096284872 79.0497635885617 l 0.7614023805656811 -11.040280476840529 a32.06650471433674,32.06650471433674 0 0,0 0.550337280566938,0.042716764853139834 l -0.9513298504949602 11.025538449798924" fill="#ff7d0b" stroke="none" /><path d="M 101.80526077348638 79.07773832637324 l 0.927550129072478 -10.749940840060646 a31.789883099772034,31.789883099772034 0 0,0 0.5447800066831645,0.051733425945754655 l -1.1124552628458866 10.732381869599713" fill="#ff790b" stroke="none" /><path d="M 102.52436894288641 79.15227682838746 l 1.9450963285112275 -16.063749284031157 a37.18108280639461,37.18108280639461 0 0,0 0.6347081221058395,0.08240333049441387 l -2.221319179124913 16.027887630372607" fill="#ffc212" stroke="none" /><path d="M 103.59715602781102 79.31037775812273 l 2.239017593728481 -12.878070300261351 a34.07126215954294,34.07126215954294 0 0,0 0.5769479549578849,0.10543355101003309 l -2.460360669789267 12.837621267900579" fill="#ff980e" stroke="none" /><path d="M 104.66035177308747 79.52364482259891 l 2.825187460459294 -12.413127742238881 a33.730570471580485,33.730570471580485 0 0,0 0.5650293198639694,0.13372418464664682 l -3.0384404672857865 12.362657645451366" fill="#ff940d" stroke="none" /><path d="M 106.40334571778207 80.00007090966166 l 5.139973975521362 -16.0539692166142 a37.85672744268689,37.85672744268689 0 0,0 0.6188983249886327,0.20404104718909036 l -5.415555122752412 15.963114445165875" fill="#ffcb12" stroke="none" /><path d="M 107.08798089147638 80.2323363322302 l 4.766255835817867 -13.292606704159388 a35.12128137542521,35.12128137542521 0 0,0 0.5673218754313651,0.20894943454762932 l -4.994360037021807 13.208594001805436" fill="#ffa70f" stroke="none" /><path d="M 108.09893153111575 80.62456947434976 l 4.10719570335291 -9.825825135059553 a31.64968995466106,31.64968995466106 0 0,0 0.5008431444206939,0.214434896503833 l -4.275722605563919 9.75367071059293" fill="#ff770b" stroke="none" /><path d="M 108.76106565485865 80.91482961587045 l 6.976869814617095 -15.198464936284735 a37.723338447498804,37.723338447498804 0 0,0 0.5878046801210098,0.27598217891707255 l -7.237452706037703 15.076117774727658" fill="#ffc912" stroke="none" /><path d="M 109.73455568895987 81.39251694778311 l 4.936721411546985 -9.43648204746076 a31.6498080605838,31.6498080605838 0 0,0 0.48055705126406334,0.25669693404065147 l -5.09842350933936 9.350106386918355" fill="#ff770b" stroke="none" /><path d="M 110.36928655335952 81.73862282372117 l 5.21621281695326 -9.186285786582092 a31.563935000959994,31.563935000959994 0 0,0 0.47015723831201317,0.27234541898022163 l -5.373566787730602 9.09513621021182" fill="#ff760a" stroke="none" /><line stroke="#e1ed5e" stroke-width="0.3" x1="143.23703022742887" x2="145.7803849466894" y1="26.81831364943548" y2="22.513508569990506" /><path d="M 143.74570117128098 25.957352633546492 a86.0,86.0 0 0,1 28.547481713284135,27.462654790039103" fill="none" id="id50" stroke="none" /><text fill="#e1ed5e" style="font-size:6.75px; font-family:Arial;" text-anchor="middle"><textPath startOffset="19.985693538727396" xlink:href="#id50">February</textPath></text><path d="M 110.99172775467656 82.1063720568725 l 8.735676579989756 -14.220962349374417 a37.689751809194355,37.689751809194355 0 0,0 0.5498770526752377,0.3443329599394161 l -8.979172785037255 14.068485048112057" fill="#ffc812" stroke="none" /><path d="M 111.90073688211348 82.69761687909136 l 7.636811601734722 -11.103097351392584 a34.47589189014557,34.47589189014557 0 0,0 0.4860589535120309,0.34051535891657625 l -7.826801694830404 10.969997149712073" fill="#ff9e0e" stroke="none" /><path d="M 112.48926042617603 83.11751280151076 l 9.640629711947053 -13.031821112177296 a37.21018515448439,37.21018515448439 0 0,0 0.5116468610819089,0.38536180821505495 l -9.863522726787345 12.863942714456394" fill="#ffc212" stroke="none" /><path d="M 112.77801427241765 83.33499621200491 l 19.113609310664817 -24.927845968372104 a52.41222000278901,52.41222000278901 0 0,0 0.7112274482198372,0.5551243046384327 l -19.539869314044083 24.59514327451045" fill="#85ff25" stroke="none" /><path d="M 113.89432698308785 84.25364557470407 l 6.367502949403656 -7.216251522471695 a30.62389629236721,30.62389629236721 0 0,0 0.3922615056974609,0.3521762528549009 l -6.490775442697108 7.105576260847497" fill="#ff6909" stroke="none" /><path d="M 114.16331599549186 84.49514656593476 l 10.899386012253416 -11.93176673422242 a37.16055917485537,37.16055917485537 0 0,0 0.4685630049179417,0.43547824723018325 l -11.103156900966205 11.742383900917595" fill="#ffc112" stroke="none" /><path d="M 114.68862486808459 84.99185889309783 l 16.40882389229916 -16.765758985990562 a44.45933025269074,44.45933025269074 0 0,0 0.5423280361560606,0.5399991072175242 l -16.694987728622543 16.480824028122917" fill="#e1ff1b" stroke="none" /><path d="M 115.19652480421416 85.50635884689758 l 7.555386744562452 -7.205928043379227 a31.44075034785667,31.44075034785667 0 0,0 0.37015147179803354,0.3948517820491305 l -7.678305538330949 7.074806844452042" fill="#ff740a" stroke="none" /><path d="M 115.68641384162765 86.03803664274999 l 11.58782721421199 -10.313945595750313 a36.51306588971146,36.51306588971146 0 0,0 0.41382889368902204,0.4730779630441554 l -11.76364797147886 10.112952076503209" fill="#ffb911" stroke="none" /><path d="M 115.9244219780498 86.31012108654704 l 8.410688947201363 -7.230486194388367 a32.09142097180591,32.09142097180591 0 0,0 0.356504186230441,0.4219885092880477 l -8.533903746918922 7.084638735471213" fill="#ff7d0b" stroke="none" /><path d="M 116.82858285166822 87.43820079747576 l 10.03499483847978 -7.490683634531601 a33.522438369620964,33.522438369620964 0 0,0 0.3411903999664645,0.46538332211677397 l -10.16244785095987 7.316837868743333" fill="#ff910d" stroke="none" /><path d="M 117.45458315368197 88.32363383020206 l 11.615866833506539 -7.770515820025348 a34.97530959954095,34.97530959954095 0 0,0 0.3304390049498663,0.5032812746556918 l -11.74790247381433 7.569416481391982" fill="#ffa50f" stroke="none" /><line stroke="#e1ed5e" stroke-width="0.3" x1="172.23445277983987" x2="176.4835382374775" y1="55.19839476539836" y2="52.563006222186495" /><path d="M 173.08426987136738 54.67131705675599 a86.0,86.0 0 0,1 12.851231095245387,41.99856678651699" fill="none" id="id51" stroke="none" /><text fill="#e1ed5e" style="font-size:6.75px; font-family:Arial;" text-anchor="middle"><textPath startOffset="22.20632615414155" xlink:href="#id51">March</textPath></text><path d="M 118.03404312379186 89.2402003453031 l 9.062326986099118 -5.406930775669419 a31.55275655058248,31.55275655058248 0 0,0 0.2742690691477066,0.46881474479843926 l -9.154055729717152 5.250136618517084" fill="#ff760a" stroke="none" /><path d="M 118.3937258080291 89.86733742301442 l 11.43059222784924 -6.296839221630257 a34.050234590321686,34.050234590321686 0 0,0 0.2783880713747385,0.5158108164367731 l -11.537288398442445 6.099147421861025" fill="#ff980e" stroke="none" /><path d="M 118.56541770881063 90.18545643968196 l 14.145179083493131 -7.477799770567988 a37.000111896883666,37.000111896883666 0 0,0 0.29281283663248664,0.5656211999199615 l -14.271801353285733 7.233205848387682" fill="#ffbf11" stroke="none" /><path d="M 118.89224826269711 90.83032412892265 l 9.671495576466961 -4.694225821702148 a31.750515464421007,31.750515464421007 0 0,0 0.2344122506694802,0.4937319824870948 l -9.750866020978197 4.527051423574513" fill="#ff790b" stroke="none" /><path d="M 120.37134235888165 94.90015583598534 l 15.105447156514039 -3.781558680269948 a36.571599784561734,36.571599784561734 0 0,0 0.1476224811294913,0.6119904888636511 l -15.16830243790435 3.5209829597468905" fill="#ffba11" stroke="none" /><path d="M 120.6074358757038 95.95851677861258 l 14.287173247943139 -2.801967761098057 a35.55933867835263,35.55933867835263 0 0,0 0.11262874621117934,0.60166726587391 l -14.333287718064177 2.555622417761584" fill="#ffac10" stroke="none" /><path d="M 120.67395015179393 96.31383870115 l 10.388659529076111 -1.852295977393882 a31.552499571141116,31.552499571141116 0 0,0 0.0907331768326273,0.5355123457768154 l -10.419004567428962 1.6731978433012287" fill="#ff760a" stroke="none" /><path d="M 120.83666639777658 97.38593545837742 l 24.905996471694582 -3.1245824551561223 a46.101228570871434,46.101228570871434 0 0,0 0.09200410550028967,0.7882349899661233 l -24.95609093019846 2.695403726865146" fill="#cdff1d" stroke="none" /><path d="M 120.94382443527127 98.46500227214037 l 10.377752696558805 -0.7605978009765829 a31.405587924081175,31.405587924081175 0 0,0 0.03487427378802087,0.5394895797817437 l -10.389307561351242 0.581849156941804" fill="#ff740a" stroke="none" /><path d="M 120.98425023603335 99.18683210126433 l 15.477422198898378 -0.5997709113147738 a36.489038803909416,36.489038803909416 0 0,0 0.01891922873889473,0.6278370957914322 l -15.485453122092917 0.3332636680983424" fill="#ffb911" stroke="none" /><line stroke="#e1ed5e" stroke-width="0.3" x1="184.98032266829074" x2="189.97916517819016" y1="98.17113171792111" y2="98.06355123074" /><path d="M 185.9800911702706 98.14961562048488 a86.0,86.0 0 0,1 -9.607161424134198,41.387399972396054" fill="none" id="id52" stroke="none" /><text fill="#e1ed5e" style="font-size:6.75px; font-family:Arial;" text-anchor="middle"><textPath startOffset="21.466115282336823" xlink:href="#id52">April</textPath></text><path d="M 120.99980553446 99.90962569577887 l 16.33704523511335 -0.07030775088510666 a37.337196521863056,37.337196521863056 0 0,0 -0.0027659798967343344,0.6427163168142783 l -16.335834957927112 -0.21091804413285636" fill="#ffc412" stroke="none" /><path d="M 120.9904718944345 100.63252640178507 l 13.125915026090219 0.39553602431352625 a34.131873210577034,34.131873210577034 0 0,0 -0.02275111555910638,0.5871052002711203 l -13.11716177767991 -0.6214184715986528" fill="#ff990e" stroke="none" /><path d="M 120.9764740272857 100.99374915477107 l 8.383484337713611 0.39716305341891495 a29.392886757945114,29.392886757945114 0 0,0 -0.028292261872747096,0.5051773414043997 l -8.375405724953334 -0.541412111158738" fill="#ff5808" stroke="none" /><path d="M 120.92983693683757 101.71520430193887 l 10.566937779003075 0.8659626537733071 a31.602361309776825,31.602361309776825 0 0,0 -0.04909713315853348,0.5417827732062966 l -10.550466049567467 -1.0477268155281743" fill="#ff770a" stroke="none" /><path d="M 120.89721153311464 102.0752229133903 l 11.627891618899206 1.1547218672558515 a32.68508648198999,32.68508648198999 0 0,0 -0.060417134879520586,0.5593876333876613 l -11.606292182518633 -1.3547058225283042" fill="#ff860c" stroke="none" /><path d="M 120.8583938346157 102.4346265915055 l 9.723684752802319 1.134964736704779 a30.78969816314291,30.78969816314291 0 0,0 -0.06597571181364398,0.5258913372366367 l -9.702707531741826 -1.3021738282288104" fill="#ff6b09" stroke="none" /><path d="M 120.76222939487914 103.15116336523771 l 11.317116171240128 1.7176422242857443 a32.44672063273993,32.44672063273993 0 0,0 -0.08856138587609708,0.5514718343889008 l -11.285873031002742 -1.91219328836785" fill="#ff820c" stroke="none" /><path d="M 120.70491114924044 103.5080841355445 l 10.08308215122539 1.7084014646159607 a31.22678743460829,31.22678743460829 0 0,0 -0.09435479795446736,0.5291918153722209 l -10.052180910931735 -1.8817120307214" fill="#ff720a" stroke="none" /><path d="M 120.64145759157962 103.86396538481128 l 8.66590819222677 1.622209533127949 a29.816435139299458,29.816435139299458 0 0,0 -0.09877768528894414,0.5036652892112119 l -8.636700573962163 -1.771138549407106" fill="#ff5e08" stroke="none" /><path d="M 120.5718875245553 104.21870165774334 l 13.798106128609774 2.829594179386944 a35.08525242785514,35.08525242785514 0 0,0 -0.12641711197853459,0.5905786607400998 l -13.747354977906797 -3.0666866595432127" fill="#ffa60f" stroke="none" /><path d="M 120.41448212921028 104.9243191809786 l 20.08080889990461 4.843831541231036 a41.65675652357632,41.65675652357632 0 0,0 -0.17414247171121022,0.6956126101818633 l -19.99445511389834 -5.188771990810294" fill="#fffb17" stroke="none" /><path d="M 120.32669344350535 105.2749913415812 l 4.329266965160193 1.1234904398044259 a25.472670703724933,25.472670703724933 0 0,0 -0.11379239235375672,0.42346382375733155 l -4.309286496464659 -1.1978451967373056" fill="#ff1f03" stroke="none" /><path d="M 120.23288151984713 105.62410040840565 l 12.71684283445849 3.5348796417727923 a34.19899487681308,34.19899487681308 0 0,0 -0.1625386428476433,0.565818338819324 l -12.654111554724746 -3.7532554560966984" fill="#ff9a0e" stroke="none" /><path d="M 120.13307415673323 105.97154293290107 l 8.4938666423715 2.519311702047977 a29.859610713257506,29.859610713257506 0 0,0 -0.15039749508817638,0.4915077158889881 l -8.449242374777192 -2.6651463904890225" fill="#ff5e08" stroke="none" /><path d="M 120.02730092923936 106.31721596034902 l 13.741115264750487 4.334363026259985 a35.40850275228375,35.40850275228375 0 0,0 -0.1883525779686972,0.5796896283987819 l -13.664470435765542 -4.570251554636562" fill="#ffaa0f" stroke="none" /><path d="M 119.67450827220406 107.3425965602758 l 21.81798990190983 8.14255153874544 a44.28789017753573,44.28789017753573 0 0,0 -0.27269893069951967,0.7119308570770455 l -21.674596691616802 -8.51690596265563" fill="#e3ff1b" stroke="none" /><path d="M 118.97047184881838 109.00673069616215 l 8.942001046987594 4.2454502954302535 a30.898647934707853,30.898647934707853 0 0,0 -0.2322500453096247,0.47850388352893936 l -8.867597745063254 -4.398743134924468" fill="#ff6d0a" stroke="none" /><path d="M 118.64920377521936 109.65438752849418 l 10.6657095462615 5.521463246746962 a33.010158887807904,33.010158887807904 0 0,0 -0.26557064510442374,0.5023595776268761 l -10.569086392932183 -5.704237839459973" fill="#ff8a0c" stroke="none" /><line stroke="#e1ed5e" stroke-width="0.3" x1="174.80103733775053" x2="179.2010983576182" y1="140.37084112569926" y2="142.7455964860345" /><path d="M 175.68104954172406 140.8457921977663 a86.0,86.0 0 0,1 -30.038265399797805,32.042727171017184" fill="none" id="id53" stroke="none" /><text fill="#e1ed5e" style="font-size:6.75px; font-family:Arial;" text-anchor="middle"><textPath startOffset="22.206326154141568" xlink:href="#id53">May</textPath></text><path d="M 118.30583269289576 110.29060199501025 l 38.746256329204364 21.7811617406089 a65.44875010952472,65.44875010952472 0 0,0 -0.5605155743580834,0.9773061498916847 l -38.3655887586939 -22.4448877363589" fill="#35ff69" stroke="none" /><path d="M 117.55443506779139 111.5257021239791 l 11.56528126683297 7.5934079534194545 a34.83530177220618,34.83530177220618 0 0,0 -0.33341845134732606,0.49841534595471393 l -11.432859710074924 -7.791360213579975" fill="#ffa30f" stroke="none" /><path d="M 117.35343817320211 111.8261652097733 l 12.098058908730213 8.244685689614714 a35.640282493163994,35.640282493163994 0 0,0 -0.34985026198219166,0.5039853954508592 l -11.954347739585886 -8.451712347252593" fill="#ffad10" stroke="none" /><path d="M 117.14729908036423 112.12312394758627 l 17.052310405932705 12.055967046178454 a41.88366901669392,41.88366901669392 0 0,0 -0.4212703459894106,0.5851076652336029 l -16.842260267567692 -12.347708316863189" fill="#fffe18" stroke="none" /><path d="M 116.71984013943494 112.70617746262583 l 11.679883207443355 8.876081800955196 a35.66985002911636,35.66985002911636 0 0,0 -0.3757108408235439,0.4856569080954477 l -11.525365549401743 -9.075816703163897" fill="#ffae10" stroke="none" /><path d="M 116.27256486870786 113.27417163493432 l 9.125612538617306 7.444121322537011 a32.77674600514164,32.77674600514164 0 0,0 -0.3603943696695489,0.43411823475101624 l -8.996122169054214 -7.600100814401799" fill="#ff870c" stroke="none" /><path d="M 115.56566222782051 114.09645910891815 l 18.050765622315232 16.34699993841896 a45.35271127694875,45.35271127694875 0 0,0 -0.5290147397343583,0.5741410183016276 l -17.766704474585154 -16.655292211521925" fill="#d6ff1c" stroke="none" /><path d="M 114.81725581225074 114.88116024355365 l 6.644935254061684 6.6735937866426225 a30.4176440026042,30.4176440026042 0 0,0 -0.3742095131756634,0.3662427693045865 l -6.529075788510227 -6.786986658869782" fill="#ff6609" stroke="none" /><path d="M 114.29624159901734 115.38237550388516 l 7.302761940861947 7.857577504673744 a31.727155084497316,31.727155084497316 0 0,0 -0.4032377136279529,0.3683480907252247 l -7.16642467776713 -7.982118361985552" fill="#ff780b" stroke="none" /><path d="M 113.75828350139079 115.86535959552629 l 16.82984692056995 19.407331830712124 a46.68829064296007,46.68829064296007 0 0,0 -0.6116933616896725,0.5212983532360166 l -16.49328808230323 -19.69415457417109" fill="#c6ff1e" stroke="none" /><path d="M 113.20401910651253 116.32954008644616 l 7.424329534246847 9.181741238519844 a32.807838125763155,32.807838125763155 0 0,0 -0.44219108388758493,0.3513033404425602 l -7.265180957641911 -9.308178492967532" fill="#ff870c" stroke="none" /><path d="M 112.34349029814194 116.9893568818739 l 8.749185687211899 12.042220998723613 a35.885003754497795,35.885003754497795 0 0,0 -0.5028559973804226,0.3587744024761213 l -8.540602361982591 -12.191039663043954" fill="#ffb110" stroke="none" /><path d="M 112.04921762599082 117.19931262002967 l 8.639136981518098 12.33169010010065 a36.05673498838158,36.05673498838158 0 0,0 -0.5113928704412694,0.3517406794186591 l -8.425587226453944 -12.478571568884403" fill="#ffb310" stroke="none" /><path d="M 111.7513745106137 117.40417183066458 l 13.560460896615348 20.083488219573052 a45.2328825935827,45.2328825935827 0 0,0 -0.6490386654462448,0.4301474364610725 l -13.21274753242914 -20.313933677125444" fill="#d8ff1c" stroke="none" /><path d="M 111.1453310114006 117.79835938074945 l 5.850682347894303 9.343154271857177 a32.023838518578046,32.023838518578046 0 0,0 -0.4697146838919504,0.2885371230543139 l -5.688988464070043 -9.44247986173987" fill="#ff7d0b" stroke="none" /><line stroke="#e1ed5e" stroke-width="0.3" x1="143.8653032363475" x2="146.44561519142675" y1="172.8068346515853" y2="177.08958963109032" /><path d="M 144.38136562736335 173.6633856474863 a86.0,86.0 0 0,1 -40.68145358897372,12.25698825130547" fill="none" id="id54" stroke="none" /><text fill="#e1ed5e" style="font-size:6.75px; font-family:Arial;" text-anchor="middle"><textPath startOffset="21.466115282336833" xlink:href="#id54">June</textPath></text><path d="M 109.89434966115114 118.52300852407294 l 19.471641532959097 36.45245968098644 a62.32706910466795,62.32706910466795 0 0,0 -0.9506632025278539,0.4973420564448571 l -18.84128742790475 -36.78223115637602" fill="#31ff44" stroke="none" /><path d="M 108.59647513512805 119.15986991738527 l 2.67765952505851 5.967981920115738 a27.54115194220138,27.54115194220138 0 0,0 -0.43420504781772984,0.1903427328531761 l -2.5745338025830264 -6.013189206263369" fill="#ff3d05" stroke="none" /><path d="M 107.93186726928326 119.44442032107085 l 4.88538314958301 11.976176625879512 a33.93428680262242,33.93428680262242 0 0,0 -0.5427529398357864,0.21597259590476078 l -4.678509133705357 -12.058496066190342" fill="#ff970d" stroke="none" /><path d="M 107.59598834532513 119.57807347666477 l 5.973343722567305 15.395832245289126 a37.51400877294846,37.51400877294846 0 0,0 -0.6040287383235322,0.22839198414936482 l -5.707444763483498 -15.496372479545121" fill="#ffc612" stroke="none" /><path d="M 107.2578585660854 119.70592522655815 l 6.877665397897848 18.673656813535995 a40.89994321889288,40.89994321889288 0 0,0 -0.6627357451782746,0.23763345921252993 l -6.5552100920898395 -18.789277813788484" fill="#fff116" stroke="none" /><path d="M 106.57524785965236 119.94407469862006 l 4.802340357532398 14.566482794747108 a36.3376951957994,36.3376951957994 0 0,0 -0.5957282297383436,0.19073336668477256 l -4.550890782703114 -14.646989008091587" fill="#ffb710" stroke="none" /><path d="M 105.88484417918355 120.15858648285463 l 2.920259400754911 10.003374752167925 a31.420912695153344,31.420912695153344 0 0,0 -0.5204931522071503,0.1470965638793129 l -2.747635080443155 -10.052160109385756" fill="#ff740a" stroke="none" /><path d="M 105.53697534728816 120.25689768951611 l 2.7676036986507997 10.125214842459723 a31.496647361836647,31.496647361836647 0 0,0 -0.5242085367789497,0.13844823902057013 l -2.5929047190603525 -10.171354430783877" fill="#ff750a" stroke="none" /><path d="M 105.18746579009965 120.34920634021253 l 3.103105355654552 12.172751345781885 a33.56205151137849,33.56205151137849 0 0,0 -0.5610403781118365,0.13789007489530694 l -2.893111692799504 -12.224362678991222" fill="#ff920d" stroke="none" /><path d="M 104.48393922423573 120.51570834832081 l 1.7950798653421605 8.213165508633729 a29.407044629069574,29.407044629069574 0 0,0 -0.49545064209010303,0.10382649922634277 l -1.6534377618226794 -8.242847988586613" fill="#ff5808" stroke="none" /><path d="M 103.7750983002368 120.6578951692458 l 1.5098590239330605 8.26217146048684 a29.39899705409136,29.39899705409136 0 0,0 -0.498594430404991,0.08668703274505185 l -1.3674156220560196 -8.286937071752899" fill="#ff5808" stroke="none" /><path d="M 103.41894727170886 120.7198165907248 l 1.368197383580308 8.291674774359482 a29.403798822210426,29.403798822210426 0 0,0 -0.5000944006173185,0.07810446041562263 l -1.2252671193544724 -8.313997542122209" fill="#ff5808" stroke="none" /><path d="M 103.06178313531738 120.77559828337769 l 1.5384885322357573 10.439348019336533 a31.552105668189952,31.552105668189952 0 0,0 -0.5379955679824175,0.07456128349558303 l -1.3585643730665091 -10.464283868324719" fill="#ff760a" stroke="none" /><path d="M 102.70371172650421 120.8252237178851 l 2.596065838996157 19.996085882038976 a41.1639036012941,41.1639036012941 0 0,0 -0.7034569601267133,0.08517884126642182 l -2.251481455818063 -20.03781025203075" fill="#fff517" stroke="none" /><path d="M 101.26447882468166 120.96189622390904 l 0.7135237271651711 11.82843874502883 a32.84994005276511,32.84994005276511 0 0,0 -0.5647247767119112,0.029189820439746703 l -0.5098108820397802 -11.838968372230777" fill="#ff880c" stroke="none" /><line stroke="#e1ed5e" stroke-width="0.3" x1="102.19456741930631" x2="102.32365962044197" y1="184.97166512339345" y2="189.96999836594603" /><path d="M 102.22038585953345 185.97133177190398 a86.0,86.0 0 0,1 -42.740103519485714,-10.115201625700543" fill="none" id="id55" stroke="none" /><text fill="#e1ed5e" style="font-size:6.75px; font-family:Arial;" text-anchor="middle"><textPath startOffset="22.20632615414155" xlink:href="#id55">July</textPath></text><path d="M 100.54218724476979 120.99299961872073 l 0.410268573682754 15.885228016664277 a36.89052514689075,36.89052514689075 0 0,0 -0.6349391832911678,0.010931053852869506 l -0.1367697004989182 -15.889936547796307" fill="#ffbe11" stroke="none" /><path d="M 99.81925306533755 120.99922214144158 l -0.2702714714034742 31.40020425295192 a52.40136738735042,52.40136738735042 0 0,0 -0.9019031656443891,-0.015527080912899524 l 0.8107343269405312 -31.390899694759863" fill="#85ff25" stroke="none" /><path d="M 99.09653310690486 120.98055641714683 l -0.5342885713999549 12.407395999748196 a33.418894466581804,33.418894466581804 0 0,0 -0.5745056972793554,-0.029695382311428493 l 0.7477823370927993 -12.396360810674565" fill="#ff900d" stroke="none" /><path d="M 98.73552117531835 120.96189622390904 l -0.7146361517691734 11.846879962589007 a32.86841479210296,32.86841479210296 0 0,0 -0.5644559222950948,-0.03892818519071531 l 0.9184548348431981 -11.832823432882007" fill="#ff880c" stroke="none" /><path d="M 98.01472825383883 120.90594882070398 l -1.098783910565235 11.570768708972926 a32.62282300470346,32.62282300470346 0 0,0 -0.5585763694855496,-0.05789872457815406 l 1.297792876656378 -11.55014061593901" fill="#ff850c" stroke="none" /><path d="M 97.2962882734958 120.8252237178851 l -1.9520685921568879 15.035724683890821 a36.161912430767075,36.161912430767075 0 0,0 -0.6165974728315816,-0.08545479128548514 l 2.2105946561753007 -14.999895327112732" fill="#ffb410" stroke="none" /><path d="M 96.58105272829116 120.7198165907248 l -2.516582897290727 15.251225574226742 a36.45746004345099,36.45746004345099 0 0,0 -0.6183029472377006,-0.10749989282876692 l 2.7787348160004774 -15.205647102876968" fill="#ffb811" stroke="none" /><path d="M 95.86986931433489 120.58985236759428 l -3.3711283863668826 16.806014402501344 a38.14078839185792,38.14078839185792 0 0,0 -0.64259698099306,-0.1346624452205156 l 3.6599168287893296 -16.745495976554285" fill="#ffce13" stroke="none" /><path d="M 95.16358092515715 120.4354850818985 l -2.933446057949862 12.394788836146544 a33.73718556304981,33.73718556304981 0 0,0 -0.5639680082817817,-0.13860961516219109 l 3.146367350974854 -12.342457962670323" fill="#ff940d" stroke="none" /><path d="M 94.81253420990036 120.34920634021253 l -8.438720949433588 33.10311446780642 a55.1617944307834,55.1617944307834 0 0,0 -0.9180749688203221,-0.24247194351899146 l 9.007286361065399 -32.952951174983845" fill="#67ff28" stroke="none" /><path d="M 93.42475214034765 119.94407469862007 l -6.0095675830613144 18.22825045401673 a40.1933326222869,40.1933326222869 0 0,0 -0.6552092519395424,-0.22228255225536347 l 6.322446567938083 -18.122104914863247" fill="#ffe815" stroke="none" /><path d="M 93.08242187328487 119.8279376855182 l -3.2453669190329357 9.30223437429884 a30.852104891521417,30.852104891521417 0 0,0 -0.4999222765706985,-0.17925434199560353 l 3.405008756233361 -9.244992491263277" fill="#ff6c0a" stroke="none" /><path d="M 92.06813273071674 119.44442032107085 l -4.246026988312857 10.408839514384136 a32.24156062215944,32.24156062215944 0 0,0 -0.5120705075158538,-0.2140455136717755 l 4.424568955326174 -10.334208957692388" fill="#ff800b" stroke="none" /><path d="M 91.7346041902142 119.30500536409082 l -6.595557197458546 15.40486021556962 a37.75741904370082,37.75741904370082 0 0,0 -0.5952714677930163,-0.26094951806457506 l 6.859749339909305 -15.289046144210593" fill="#ffc912" stroke="none" /><path d="M 90.7491055286396 118.85261126421891 l -5.112443558136739 10.418766672801372 a32.605506370572996,32.605506370572996 0 0,0 -0.5017305700797868,-0.25157812359378323 l 5.291028035899287 -10.329220708298285" fill="#ff850c" stroke="none" /><path d="M 90.42595943632237 118.69057910512821 l -5.3654896970198855 10.47458582955689 a32.768832906859565,32.768832906859565 0 0,0 -0.49981691874553613,-0.2614805890812354 l 5.544997518291917 -10.38067582153094" fill="#ff870c" stroke="none" /><path d="M 90.10565033884886 118.52300852407294 l -5.079446927782145 9.509128135051014 a31.780737404323244,31.780737404323244 0 0,0 -0.48030862257739193,-0.26190255722791483 l 5.242378362228178 -9.420284926063333" fill="#ff790b" stroke="none" /><line stroke="#e1ed5e" stroke-width="0.3" x1="58.666819895761336" x2="56.23545636021788" y1="174.27360380694188" y2="178.64263932499728" /><path d="M 58.180547188652646 175.14741091055294 a86.0,86.0 0 0,1 -31.652253787137756,-30.449443065178592" fill="none" id="id56" stroke="none" /><text fill="#e1ed5e" style="font-size:6.75px; font-family:Arial;" text-anchor="middle"><textPath startOffset="22.20632615414155" xlink:href="#id56">August</textPath></text><path d="M 89.4739219176387 118.17145234162733 l -5.836364279902824 10.075472985360868 a32.64380968096191,32.64380968096191 0 0,0 -0.4838001135595279,-0.2858376347574475 l 6.008932264490734 -9.973516778309671" fill="#ff850c" stroke="none" /><path d="M 89.1626897886671 117.98757091392108 l -5.426170014165147 9.006258565775912 a31.51456201542589,31.51456201542589 0 0,0 -0.4622447907511598,-0.2839485045795662 l 5.580394004848616 -8.911521594367967" fill="#ff760a" stroke="none" /><path d="M 88.8546689885994 117.79835938074946 l -8.506224400235826 13.583879984706861 a37.027403064317284,37.027403064317284 0 0,0 -0.5372820731733803,-0.34291883972071285 l 8.73878827545613 -13.435446716162344" fill="#ffc011" stroke="none" /><path d="M 87.95078237400918 117.19931262002967 l -8.413705337555673 12.009904118694404 a35.66384105367504,35.66384105367504 0 0,0 -0.49975684790654873,-0.35656324161403713 l 8.619189513311108 -11.863296615236147" fill="#ffae10" stroke="none" /><path d="M 87.07902340077011 116.55440617244103 l -5.782196014206196 7.408172335328287 a30.397595867913527,30.397595867913527 0 0,0 -0.40970532141993904,-0.32549468602245374 l 5.908858828343493 -7.307543735300703" fill="#ff6609" stroke="none" /><path d="M 86.51685102203217 116.09983520530335 l -6.806693490988612 8.127674304941511 a31.601422823728576,31.601422823728576 0 0,0 -0.4140305908615947,-0.3528458517340998 l 6.945589558427263 -8.009304062984459" fill="#ff770a" stroke="none" /><path d="M 85.97065885151581 115.62618273729859 l -7.722387894107955 8.601362182619054 a32.559355785840935,32.559355785840935 0 0,0 -0.41381460610999615,-0.37800983123186854 l 7.869302049684806 -8.46715958480061" fill="#ff840c" stroke="none" /><path d="M 85.44109423537348 115.13401014063109 l -9.257688669911142 9.623384921527096 a34.35343913967021,34.35343913967021 0 0,0 -0.4226291732280501,-0.41363159765339896 l 9.421967795514986 -9.462603220951127" fill="#ff9c0e" stroke="none" /><path d="M 84.67929136418377 114.36230785411682 l -7.589353131885696 7.114594284426902 a31.40267911609616,31.40267911609616 0 0,0 -0.36629519276406003,-0.3975410875662 l 7.710694732645486 -6.982901942059358" fill="#ff740a" stroke="none" /><path d="M 84.19399662182784 113.82643327865904 l -23.98239489138527 20.978799946741336 a52.863228209516635,52.863228209516635 0 0,0 -0.5932197950400907,-0.6900486411656535 l 24.33995719599614 -20.562874206414154" fill="#80ff25" stroke="none" /><path d="M 83.50135304334701 112.99209946851258 l -12.98221866281949 10.223036872809589 a37.524178778749736,37.524178778749736 0 0,0 -0.39524250168332703,-0.5109042126510972 l 13.156267981720884 -9.99805466604524" fill="#ffc612" stroke="none" /><path d="M 82.85270091963577 112.12312394758628 l -29.891314964531244 21.133130913096295 a57.607375383915134,57.607375383915134 0 0,0 -0.5654824810671755,-0.8146196896536381 l 30.250658352760553 -20.615469961255645" fill="#4eff2b" stroke="none" /><path d="M 82.05923443525364 110.91462005526583 l -4.444144424850793 2.703683278894684 a26.201953761953973,26.201953761953973 0 0,0 -0.2311001395611683,-0.3873371267597107 l 4.490025440110193 -2.6267840582488624" fill="#ff2a04" stroke="none" /><line stroke="#e1ed5e" stroke-width="0.3" x1="26.63291911575756" x2="22.317208475507996" y1="142.92168965132927" y2="145.44649492493687" /><path d="M 25.769776987707644 143.4266507060508 a86.0,86.0 0 0,1 -11.730757126820373,-40.83630448921669" fill="none" id="id57" stroke="none" /><text fill="#e1ed5e" style="font-size:6.75px; font-family:Arial;" text-anchor="middle"><textPath startOffset="21.46611528233685" xlink:href="#id57">September</textPath></text><path d="M 81.87401531095188 110.60418214915194 l -16.223109722830397 9.49094978715915 a39.79540946458391,39.79540946458391 0 0,0 -0.3408154740240101,-0.5942405063826673 l 16.384077193006785 -9.210289434918176" fill="#ffe315" stroke="none" /><path d="M 81.69416730710424 110.29060199501025 l -10.85249982732809 6.100719822337927 a33.4497202720713,33.4497202720713 0 0,0 -0.27782953869986055,-0.5043413137849421 l 10.955905775479469 -5.913007990155163" fill="#ff900d" stroke="none" /><path d="M 81.51974371655577 109.97397251340807 l -8.671242160468772 4.679953007096602 a30.853547622766314,30.853547622766314 0 0,0 -0.2482204515823999,-0.4695395500743457 l 8.750515120276058 -4.52999844193613" fill="#ff6c0a" stroke="none" /><path d="M 80.87730276802145 108.67885076344099 l -19.764260813999158 8.970024885797763 a42.70454680419782,42.70454680419782 0 0,0 -0.29803485984121525,-0.6719899300367952 l 19.91573675857165 -8.628486619268271" fill="#f6ff19" stroke="none" /><path d="M 80.58989483394504 108.01547362559985 l -10.465405843024994 4.321727460944756 a32.3226343094664,32.3226343094664 0 0,0 -0.20793825692968448,-0.5160857008071387 l 10.538246714212066 -4.1409423922948125" fill="#ff810b" stroke="none" /><path d="M 80.45479744820244 107.68017299344265 l -18.56526094921075 7.295110673858454 a40.947118936230694,40.947118936230694 0 0,0 -0.25212841488664645,-0.6582277313786294 l 18.688083643690906 -6.974459375646666" fill="#fff216" stroke="none" /><path d="M 80.32549172779594 107.34259656027581 l -9.961216093481895 3.7175613241372507 a31.632313401126012,31.632313401126012 0 0,0 -0.1859915844437323,-0.511768960182166 l 10.023731938930851 -3.545544566948968" fill="#ff770b" stroke="none" /><path d="M 80.20201598880116 107.00284435728193 l -19.771914818851123 6.993623292327648 a41.97234804114438,41.97234804114438 0 0,0 -0.23506347507050493,-0.6832044893285537 l 19.889369124864857 -6.652246099909798" fill="#ffff18" stroke="none" /><path d="M 79.76711848015287 105.62410040840567 l -12.769695662338886 3.549571054391215 a34.25385159034643,34.25385159034643 0 0,0 -0.15301998620922627,-0.5694442935166393 l 12.828903724889889 -3.329235827699037" fill="#ff9b0e" stroke="none" /><path d="M 79.67330655649465 105.27499134158121 l -14.849155255354574 3.8535124081786036 a36.34102244563937,36.34102244563937 0 0,0 -0.1519205046512599,-0.6068468980723922 l 14.913287074300893 -3.5973376707088196" fill="#ffb710" stroke="none" /><path d="M 79.58551787078972 104.9243191809786 l -12.339180502734777 2.976419526226041 a33.69308664884825,33.69308664884825 0 0,0 -0.13114542070141066,-0.5649710399871315 l 12.388586489366743 -2.763579828890335" fill="#ff930d" stroke="none" /><path d="M 79.4281124754447 104.21870165774334 l -10.730953353495451 2.2006094796853772 a31.954270489492963,31.954270489492963 0 0,0 -0.10586003522227186,-0.5397780389383415 l 10.767243321693389 -2.0155677136790806" fill="#ff7c0b" stroke="none" /><path d="M 79.29508885075956 103.50808413554451 l -15.6597140775812 2.6532639588139912 a36.8828981809598,36.8828981809598 0 0,0 -0.10066966751446457,-0.6268701157092829 l 15.703065499456955 -2.383314613411495" fill="#ffbe11" stroke="none" /><path d="M 79.18660465613746 102.79330883721812 l -62.440186031587636 8.379926511654372 a84.0,84.0 0 0,0 -0.1799939630126075,-1.4347289828503655 l 62.5751815038471 -7.303879774516597" fill="#4dd2ff" stroke="none" /><path d="M 79.04373962182676 101.35467743843564 l -14.794897181054543 0.9563878790141637 a35.82577688936067,35.82577688936067 0 0,0 -0.034484270629672145,-0.6157398173155472 l 14.809167802571746 -0.7015763453631789" fill="#ffb010" stroke="none" /><path d="M 79.0095281055655 100.63252640178507 l -13.041849116407363 0.39300278410664374 a34.04776914125365,34.04776914125365 0 0,0 -0.012610543528381354,-0.5859624055845547 l 13.046681722620752 -0.16845056273196013" fill="#ff980e" stroke="none" /><line stroke="#e1ed5e" stroke-width="0.3" x1="15.007084014347285" x2="10.007500721073583" y1="101.09737516637583" y2="101.16192664675087" /><path d="M 14.007167355692545 101.11028546245083 a86.0,86.0 0 0,1 10.666146001902534,-42.60595125391555" fill="none" id="id58" stroke="none" /><text fill="#e1ed5e" style="font-size:6.75px; font-family:Arial;" text-anchor="middle"><textPath startOffset="22.20632615414155" xlink:href="#id58">October</textPath></text><path d="M 79.00175016825051 100.2711162175752 l -14.445737506680665 0.1865142925851749 a35.44694153422305,35.44694153422305 0 0,0 -0.002625947763029477,-0.610177780537624 l 14.446807751733198 0.06217296615612436" fill="#ffab0f" stroke="none" /><path d="M 79.00019446554 99.90962569577889 l -3.9931608703369315 -0.017184879865078384 a24.993197848402453,24.993197848402453 0 0,0 0.00555443221257244,-0.43019689606278627 l 3.9922734310066432 0.0859180339883366" fill="#ff1802" stroke="none" /><path d="M 79.00486145842228 99.54816195383935 l -45.561077098933396 -0.9805235634234467 a66.57162684032008,66.57162684032008 0 0,0 0.034516772077246904,-1.1454436243757686 l 45.5374486324005 1.7646373352242095" fill="#37ff77" stroke="none" /><path d="M 79.05617556472873 98.46500227214037 l -27.46539036653197 -2.0129710281759423 a48.53905808749208,48.53905808749208 0 0,0 0.06824479737850564,-0.8327593857507917 l 27.426671085333968 2.4854443311345125" fill="#b1ff20" stroke="none" /><path d="M 79.16333360222342 97.38593545837743 l -14.582469236237854 -1.829444069029144 a35.69677769538375,35.69677769538375 0 0,0 0.08173542344462512,-0.6090238426500656 l 14.548817813735395 2.080186253743869" fill="#ffae10" stroke="none" /><path d="M 79.26566170972629 96.67025291283419 l -17.853862484324534 -2.8671687405488826 a39.0826176809651,39.0826176809651 0 0,0 0.1123869775557286,-0.6633143033959552 l 17.80186364524858 3.174068832260666" fill="#ffda14" stroke="none" /><path d="M 79.3925641242962 95.95851677861259 l -16.30129166518995 -3.1969720614043933 a37.61182531556938,37.61182531556938 0 0,0 0.13006653506375618,-0.6342506171606064 l 16.2438458342112 3.477098334728402" fill="#ffc712" stroke="none" /><path d="M 79.54389044137918 95.25157060432595 l -18.876158333391576 -4.38167897228046 a40.37804076895786,40.37804076895786 0 0,0 0.16298730699710548,-0.6756876115652741 l 18.797938226133653 4.705951815505131" fill="#ffeb16" stroke="none" /><path d="M 79.62865764111835 94.90015583598534 l -14.0235346902394 -3.510708341597997 a35.45629960495125,35.45629960495125 0 0,0 0.15331247916356885,-0.590775522313469 l 13.961025879205524 3.75158028946033" fill="#ffab0f" stroke="none" /><path d="M 79.81627453868168 94.20196356495316 l -21.384180650055775 -6.14288272897212 a43.249004254036265,43.249004254036265 0 0,0 0.21170202824312512,-0.7137539965201373 l 21.275272724700944 6.510066112238797" fill="#f0ff19" stroke="none" /><path d="M 80.02781315780177 93.51064311812611 l -15.868396696251287 -5.155954634249219 a37.68501968533555,37.68501968533555 0 0,0 0.20576506387545734,-0.6152113507159425 l 15.777294338604056 5.428339087887483" fill="#ffc812" stroke="none" /><path d="M 80.2630227832202 92.82701384747504 l -30.06772793749926 -10.92747859840508 a52.991843520529955,52.991843520529955 0 0,0 0.3189488508492735,-0.8546243488840526 l 29.875174498148358 11.443426084318475" fill="#7fff26" stroke="none" /><path d="M 80.38941819471856 92.48833698450439 l -11.510942251943565 -4.4091664411579865 a33.32649748442003,33.32649748442003 0 0,0 0.20980847272818684,-0.5339396781891408 l 11.433340229333686 4.606655124242891" fill="#ff8e0d" stroke="none" /><path d="M 80.65960295795068 91.81776055985345 l -10.128885684118512 -4.285174071097997 a31.9980471912768,31.9980471912768 0 0,0 0.21897222134660915,-0.5054180773764229 l 10.053622752929222 4.458891293061019" fill="#ff7c0b" stroke="none" /><path d="M 80.95270993114464 91.15688171328213 l -11.989130982413363 -5.566214566438149 a34.21824520551394,34.21824520551394 0 0,0 0.25263135905850986,-0.5321060712063129 l 11.8915414295131 5.771763053284995" fill="#ff9a0e" stroke="none" /><path d="M 81.26839172434947 90.50648371742162 l -36.06454157732634 -18.278158909245185 a61.43194593751727,61.43194593751727 0 0,0 0.4861623770206298,-0.93911097002721 l 35.74456976714559 18.896242601532734" fill="#30ff39" stroke="none" /><line stroke="#e1ed5e" stroke-width="0.3" x1="26.266209847984243" x2="21.928928074336255" y1="57.711370442889674" y2="55.22380399835377" /><path d="M 25.398753493254645 57.213857153982495 a86.0,86.0 0 0,1 29.58750427330803,-30.492523968695096" fill="none" id="id59" stroke="none" /><text fill="#e1ed5e" style="font-size:6.75px; font-family:Arial;" text-anchor="middle"><textPath startOffset="21.46611528233685" xlink:href="#id59">November</textPath></text><path d="M 81.78341655067845 89.55222093294921 l -16.347771075174037 -9.375956853122359 a39.845641035473136,39.845641035473136 0 0,0 0.34635410883589735,-0.5920314443344862 l 16.183957291867817 9.655967709810737" fill="#ffe415" stroke="none" /><path d="M 82.15384107792192 88.93136811851018 l -14.00230502255661 -8.684578035180236 a37.47684562025903,37.47684562025903 0 0,0 0.34473773112306677,-0.5452923016914927 l 13.850739695187581 8.924317984585945" fill="#ffc612" stroke="none" /><path d="M 82.7489923806493 88.02491185347247 l -36.554369922765204 -25.374854131701063 a65.49837280907548,65.49837280907548 0 0,0 0.6508897061254694,-0.9206373297441993 l 36.11216759683586 26.000317961777046" fill="#36ff6a" stroke="none" /><path d="M 83.6137871275137 86.86637796730984 l -12.959122009022495 -10.386793560322714 a37.60795964920112,37.60795964920112 0 0,0 0.4092131185606019,-0.5016468974515099 l 12.778410398385502 10.608324627382306" fill="#ffc712" stroke="none" /><path d="M 84.07557802195018 86.31012108654704 l -24.23251715984076 -20.83216748109671 a52.9561275792678,52.9561275792678 0 0,0 0.6001899636797854,-0.6861208818119554 l 23.87033533258313 21.246203919111608" fill="#7fff26" stroke="none" /><path d="M 84.5562425177563 85.77008943001954 l -9.47173338034691 -8.727275023581493 a33.87940458893994,33.87940458893994 0 0,0 0.3988617107890498,-0.4254778632412188 l 9.320104347587403 8.889022303700761" fill="#ff960d" stroke="none" /><path d="M 84.80347519578584 85.50635884689758 l -8.063390742771489 -7.690435373130123 a32.14275847799386,32.14275847799386 0 0,0 0.38530861771764846,-0.3970944001417343 l 7.929817861350722 7.828093968821982" fill="#ff7e0b" stroke="none" /><path d="M 85.05521093208273 85.24692304244772 l -15.120897487025186 -14.926926253662424 a42.247462629580056,42.247462629580056 0 0,0 0.515347021879415,-0.5131339579907205 l 14.861714664978457 15.184996062303254" fill="#fcff18" stroke="none" /><path d="M 86.10567301691215 84.25364557470407 l -29.755269177289165 -33.72146164805116 a65.97235839372803,65.97235839372803 0 0,0 0.8579742950107004,-0.7440268540141795 l 29.170401083631692 34.22865349548502" fill="#36ff70" stroke="none" /><path d="M 86.93701828274178 83.55741782278169 l -6.851536870031958 -8.624138076906613 a32.01450475740774,32.01450475740774 0 0,0 0.4344329342168998,-0.33908179601730765 l 6.7020713806556325 8.740798262147141" fill="#ff7c0b" stroke="none" /><path d="M 87.51073957382395 83.11751280151077 l -6.3850528615765105 -8.631061369439896 a31.736112909622555,31.736112909622555 0 0,0 0.4419702314830633,-0.3211101692848203 l 6.235537313739666 8.739690773541385" fill="#ff790b" stroke="none" /><path d="M 87.80319425747018 82.90503203632743 l -8.374328579094625 -11.737407465439933 a35.41860302388571,35.41860302388571 0 0,0 0.49934978261050317,-0.34982643406098823 l 8.171047656900463 11.879818742264865" fill="#ffaa0f" stroke="none" /><path d="M 88.09926311788651 82.69761687909137 l -22.051647815540814 -32.0607087385731 a59.9122630567828,59.9122630567828 0 0,0 0.8547348932996492,-0.5771208154102812 l 21.496508227834628 32.43554146628204" fill="#37ff2e" stroke="none" /><path d="M 88.70189139769569 82.29822771554957 l -7.6279558861940275 -11.951410881791322 a35.17822037729426,35.17822037729426 0 0,0 0.5132349036776893,-0.3213876495987099 l 7.421101830144096 12.080942872712964" fill="#ffa70f" stroke="none" /><line stroke="#e1ed5e" stroke-width="0.3" x1="56.762969772571076" x2="54.21961505331055" y1="26.818313649435495" y2="22.513508569990535" /><path d="M 56.25429882871897 25.957352633546506 a86.0,86.0 0 0,1 42.265352541879196,-11.944610805530505" fill="none" id="id60" stroke="none" /><text fill="#e1ed5e" style="font-size:6.75px; font-family:Arial;" text-anchor="middle"><textPath startOffset="22.20632615414155" xlink:href="#id60">December</textPath></text><path d="M 89.3179101791058 81.91981866633112 l -7.5004869343038525 -12.695096758854607 a35.74526317053526,35.74526317053526 0 0,0 0.5324397675538324,-0.3084234799761738 l 7.280850434284701 12.822324396220829" fill="#ffaf10" stroke="none" /><path d="M 89.63071344664047 81.73862282372117 l -9.471249886180416 -16.67984249565291 a40.181285673443824,40.181285673443824 0 0,0 0.6043952483026397,-0.33634530131557017 l 9.182730548805731 16.840403194528665" fill="#ffe815" stroke="none" /><path d="M 90.26544431104013 81.39251694778311 l -15.132482111692765 -28.92555278620884 a53.64474871780231,53.64474871780231 0 0,0 0.8218873950423337,-0.4210026460202963 l 14.632334229061668 29.181747957541642" fill="#78ff26" stroke="none" /><path d="M 90.91171255644093 81.06846463323043 l -9.043305863244543 -18.837835603875167 a41.89606257587347,41.89606257587347 0 0,0 0.65282402550385,-0.30650963338855475 l 8.717703626441084 18.99071021990373" fill="#fffe18" stroke="none" /><path d="M 91.56875222667455 80.76684994638697 l -5.700714364577184 -13.004326018455389 a35.19896614056011,35.19896614056011 0 0,0 0.5570089598808149,-0.23848216750956186 l 5.4760216469060605 13.100527713927738" fill="#ffa80f" stroke="none" /><path d="M 92.23578459929587 80.48803036053334 l -15.407181601783034 -38.71923228926341 a62.672055312646386,62.672055312646386 0 0,0 1.0057875106873002,-0.39022992830016384 l 14.738410926096059 38.978704921454124" fill="#32ff48" stroke="none" /><path d="M 93.25333710446033 80.11325718540243 l -5.349362703913652 -15.768002931502862 a37.65069361275695,37.65069361275695 0 0,0 0.6155299938927363,-0.20293056138498144 l 5.077149887778506 15.857747217147077" fill="#ffc812" stroke="none" /><path d="M 93.94186890950719 79.89281104454417 l -4.8512542849894515 -16.101514662224435 a37.816463437817625,37.816463437817625 0 0,0 0.6248896544774901,-0.1824224257445644 l 4.5733744127885405 16.182635416887695" fill="#ffca12" stroke="none" /><path d="M 96.75951476605007 79.25152402106235 l -2.2721952182725476 -14.548619883176896 a35.724985963154964,35.724985963154964 0 0,0 0.60839824543692,-0.08966208635858218 l 2.021427992406979 14.585576453696445" fill="#ffaf10" stroke="none" /><path d="M 98.55514903715128 79.0497635885617 l -0.6248752133386969 -9.060646242213416 a30.082168208020658,30.082168208020658 0 0,0 0.5168946639354288,-0.03118049770668077 l 0.4688185005636451 9.070060009300402" fill="#ff6209" stroke="none" /><path d="M 99.27714615592234 79.0124445844662 l -0.5739051801969711 -16.66293521343129 a37.672815511570484,37.672815511570484 0 0,0 0.6482834334808943,-0.016743248464382153 l 0.2869951115211978 16.67034525403803" fill="#ffc812" stroke="none" /><path d="M 99.63851952072746 79.00311137660856 l -0.04042264718271095 -2.3479824483637146 a23.3483303788499,23.3483303788499 0 0,0 0.4019031264552461,-0.0034593070947456198 l 5.751750563598046e-16 2.3483303788499015" fill="#ff0000" stroke="none" /></svg>