<?xml version="1.0" encoding="utf-8" ?>
<svg baseProfile="full" height="200mm" version="1.1" viewBox="0,0,200,200" width="200mm" xmlns="http://www.w3.org/2000/svg" xmlns:ev="http://www.w3.org/2001/xml-events" xmlns:xlink="http://www.w3.org/1999/xlink"><defs /><rect fill="#1a1a1a" height="200" width="200" x="0" y="0" /><text alignment-baseline="middle" fill="#e1ed5e" style="dominant-baseline: central; font-size:9.0px; font-family:Arial;" text-anchor="middle" x="100.0" y="100.0">2021</text><line stroke="#e1ed5e" stroke-width="0.3" x1="100.0" x2="100.0" y1="15.0" y2="10.0" /><path d="M 100.0 14.0 a86.0,86.0 0 0,1 42.46469731375804,11.215312516191453" fill="none" id="id37" stroke="none" /><text fill="#e1ed5e" style="font-size:6.75px; font-family:Arial;" text-anchor="middle"><textPath startOffset="22.20632615414155" xlink:href="#id37">January</textPath></text><path d="M 100.0 79.0 l 0.0 -4.397480277345675 a25.397480277345675,25.397480277345675 0 0,0 0.4371758734747382,0.0037629107643461215 l -0.07569539420220979 4.396828743189888" fill="#ff1202" stroke="none" /><path d="M 100.72285384407766 79.0124445844662 l 0.5147888713361903 -14.946534562950513 a35.95539712022138,35.95539712022138 0 0,0 0.6183629188119133,0.02662800804499347 l -0.7719926225374352 14.935458828381325" fill="#ffa80f" stroke="none" /><path d="M 102.16513564639614 79.11191278185805 l 0.8356320516882773 -8.061737474505614 a29.104930106648478,29.104930106648478 0 0,0 0.49787904696811314,0.05594251205046048 l -0.9742778021661156 8.046159008984553" fill="#ff4906" stroke="none" /><path d="M 102.88285421437855 79.19881850522331 l 2.1796769226918276 -15.727418695940775 a36.877741978151136,36.877741978151136 0 0,0 0.6280297363397691,0.0925552578065307 l -2.4500756394602528 15.687568953973276" fill="#ffb510" stroke="none" /><path d="M 105.71112130821622 79.79150937346287 l 2.7835918081072957 -9.849587484915697 a31.235367945373042,31.235367945373042 0 0,0 0.5161418204786925,0.15067595093835487 l -2.952723846309415 9.800213205058638" fill="#ff6709" stroke="none" /><line stroke="#e1ed5e" stroke-width="0.3" x1="143.23703022742887" x2="145.7803849466894" y1="26.81831364943548" y2="22.513508569990506" /><path d="M 143.74570117128098 25.957352633546492 a86.0,86.0 0 0,1 28.547481713284135,27.462654790039103" fill="none" id="id38" stroke="none" /><text fill="#e1ed5e" style="font-size:6.75px; font-family:Arial;" text-anchor="middle"><textPath startOffset="19.985693538727396" xlink:href="#id38">February</textPath></text><path d="M 114.94478906791727 85.2469230424477 l 5.9227901451276255 -5.846812451979127 a29.32253921299498,29.32253921299498 0 0,0 0.35150147613703564,0.36225316901127 l -6.02255588496777 5.743995087417742" fill="#ff4c07" stroke="none" /><path d="M 115.4437574822437 85.77008943001954 l 9.223600868247974 -8.498645205952464 a33.54200076994909,33.54200076994909 0 0,0 0.3875799901566655,0.4279755055100238 l -9.368524499020676 8.33861691317289" fill="#ff870c" stroke="none" /><path d="M 116.15771136456269 86.58626213691792 l 9.85525860172158 -8.181595306022839 a33.808771364121625,33.808771364121625 0 0,0 0.3678740589402723,0.4509700983424185 l -9.994631152738261 8.01074103807232" fill="#ff8b0c" stroke="none" /><path d="M 116.60985879189232 87.15038557335679 l 8.239951852325028 -6.374539694952966 a31.417848283170844,31.417848283170844 0 0,0 0.327230444091333,0.43059690690269053 l -8.348458236640473 6.231758012169242" fill="#ff6a09" stroke="none" /><path d="M 117.2510076193507 88.02491185347247 l 8.995798257567955 -6.244590429715992 a31.950766910393227,31.950766910393227 0 0,0 0.3097330688608121,0.45449505949995966 l -9.1019557920975 6.088817346945627" fill="#ff710a" stroke="none" /><line stroke="#e1ed5e" stroke-width="0.3" x1="172.23445277983987" x2="176.4835382374775" y1="55.19839476539836" y2="52.563006222186495" /><path d="M 173.08426987136738 54.67131705675599 a86.0,86.0 0 0,1 12.851231095245387,41.99856678651699" fill="none" id="id39" stroke="none" /><text fill="#e1ed5e" style="font-size:6.75px; font-family:Arial;" text-anchor="middle"><textPath startOffset="22.20632615414155" xlink:href="#id39">March</textPath></text><path d="M 118.3937258080291 89.86733742301442 l 13.675188106828655 -7.533333279482465 a36.61287545767614,36.61287545767614 0 0,0 0.2993397228764779,0.5546310446650995 l -13.802835928923598 7.296821251484906" fill="#ffb110" stroke="none" /><path d="M 118.89224826269711 90.83032412892265 l 15.22181748417361 -7.388169505170542 a37.92007021730777,37.92007021730777 0 0,0 0.2799617226732774,0.5896707870907197 l -15.346737400688642 7.1250563024392815" fill="#ffc312" stroke="none" /><path d="M 119.34039704204932 91.81776055985345 l 6.065749755287598 -2.5662046530826785 a27.586252835662684,27.586252835662684 0 0,0 0.18125260149502812,0.438917551347599 l -6.109024043668824 2.4614125312817765" fill="#ff3204" stroke="none" /><path d="M 119.7369772167798 92.82701384747503 l 11.776698516504444 -4.279991533330154 a33.530321443363526,33.530321443363526 0 0,0 0.1924750928311549,0.5441530064084226 l -11.848626690145409 4.076640900495117" fill="#ff870c" stroke="none" /><path d="M 120.45610955862082 95.25157060432595 l 18.20126913973297 -4.225018504814366 a39.68520750923092,39.68520750923092 0 0,0 0.14873564685549337,0.6667527407236368 l -18.2712991735905 3.911087594540765" fill="#ffda14" stroke="none" /><path d="M 120.6074358757038 95.95851677861258 l 5.842784187305376 -1.1458734799229844 a26.95408709135301,26.95408709135301 0 0,0 0.08537293288342628,0.45606562121624145 l -5.861642844098661 1.0451297812441802" fill="#ff2904" stroke="none" /><path d="M 120.73433829027371 96.67025291283417 l 15.651687498145602 -2.5135193670794584 a36.85222700910793,36.85222700910793 0 0,0 0.09519124423243625,0.6271913639706503 l -15.692634635817338 2.2437288907167257" fill="#ffb510" stroke="none" /><path d="M 120.91429891909075 98.10471618934814 l 20.70267542673729 -1.876106185785605 a41.78750933241342,41.78750933241342 0 0,0 0.058752275377961266,0.7169265736675732 l -20.731902185934747 1.519465694910263" fill="#fff517" stroke="none" /><path d="M 120.96714384426684 98.82574320788733 l 10.801260902523287 -0.6049204446907575 a31.818186808739394,31.818186808739394 0 0,0 0.025918779469051936,0.5471044697157321 l -10.810073290225835 0.4189048683520256" fill="#ff6f0a" stroke="none" /><line stroke="#e1ed5e" stroke-width="0.3" x1="184.98032266829074" x2="189.97916517819016" y1="98.17113171792111" y2="98.06355123074" /><path d="M 185.9800911702706 98.14961562048488 a86.0,86.0 0 0,1 -9.607161424134198,41.387399972396054" fill="none" id="id40" stroke="none" /><text fill="#e1ed5e" style="font-size:6.75px; font-family:Arial;" text-anchor="middle"><textPath startOffset="21.466115282336823" xlink:href="#id40">April</textPath></text><path d="M 120.99513854157772 99.54816195383933 l 10.807732459204736 -0.23259406972350116 a31.81023500720582,31.81023500720582 0 0,0 0.007069435255353578,0.5475355513181276 l -10.810134901577806 0.046522260344910894" fill="#ff6f0a" stroke="none" /><path d="M 120.99824983174949 100.27111621757518 l 24.947048655393274 0.3221006286384784 a45.949127949279685,45.949127949279685 0 0,0 -0.017018544612765207,0.7907848950682264 l -24.9378080480955 -0.7514753394968195" fill="#d5ff1c" stroke="none" /><path d="M 120.92983693683757 101.71520430193887 l 9.275345520238293 0.7601164111451488 a30.306439248084992,30.306439248084992 0 0,0 -0.047083800755860106,0.5195658179110791 l -9.260887123205357 -0.9196636176047985" fill="#ff5a08" stroke="none" /><path d="M 120.76222939487914 103.15116336523771 l 19.784254625690117 3.0027323751844217 a41.01082539055102,41.01082539055102 0 0,0 -0.11193659826580538,0.6970293042529971 l -19.729636273063022 -3.3428409091306235" fill="#ffeb16" stroke="none" /><path d="M 120.64145759157962 103.86396538481128 l 4.2534470201129 0.7962214867301532 a25.32732945462188,25.32732945462188 0 0,0 -0.0839059051288324,0.42783440257403926 l -4.239111182008403 -0.8693196163721374" fill="#ff1101" stroke="none" /><path d="M 120.41448212921028 104.9243191809786 l 9.225700678297246 2.2253954090318064 a30.490307567833305,30.490307567833305 0 0,0 -0.12746209657711643,0.5091477158214303 l -9.186027267425068 -2.3838709642506326" fill="#ff5d08" stroke="none" /><path d="M 120.23288151984713 105.62410040840565 l 41.94181614570597 11.658496842525981 a64.5320168407965,64.5320168407965 0 0,0 -0.306703354157225,1.0676746115212936 l -41.734920154662646 -12.378728929551857" fill="#34ff5b" stroke="none" /><path d="M 119.54520255179757 107.68017299344265 l 40.90728486059387 16.074278257735614 a64.9521145813587,64.9521145813587 0 0,0 -0.4178505180188505,1.0370707180512182 l -40.62453172831762 -16.776048343629647" fill="#34ff60" stroke="none" /><path d="M 118.81262510543309 109.33194174019688 l 9.42846818912356 4.6769611017651265 a31.524731708729632,31.524731708729632 0 0,0 -0.24532445668912287,0.48404842698487593 l -9.34656506264817 -4.838563740452697" fill="#ff6b09" stroke="none" /><line stroke="#e1ed5e" stroke-width="0.3" x1="174.80103733775053" x2="179.2010983576182" y1="140.37084112569926" y2="142.7455964860345" /><path d="M 175.68104954172406 140.8457921977663 a86.0,86.0 0 0,1 -30.038265399797805,32.042727171017184" fill="none" id="id41" stroke="none" /><text fill="#e1ed5e" style="font-size:6.75px; font-family:Arial;" text-anchor="middle"><textPath startOffset="22.206326154141568" xlink:href="#id41">May</textPath></text><path d="M 118.12598468904814 110.60418214915192 l 12.397146343526817 7.252659660243523 a35.36280994827071,35.36280994827071 0 0,0 -0.31189850911755806,0.5227598416497526 l -12.270466958711031 -7.4649815957793795" fill="#ffa00e" stroke="none" /><path d="M 117.14729908036423 112.12312394758627 l 8.788978070056736 6.213799037186449 a31.763709118629947,31.763709118629947 0 0,0 -0.3194827254741893,0.4437335629348331 l -8.680715552206944 -6.364166205572413" fill="#ff6f0a" stroke="none" /><path d="M 116.0416608686014 113.55231037782055 l 11.391511135078089 9.623772490861601 a35.912529057690804,35.912529057690804 0 0,0 -0.40300268917628096,0.46878317341619624 l -11.224165936331028 -9.818432763439326" fill="#ffa80f" stroke="none" /><path d="M 115.56566222782051 114.09645910891815 l 25.023711339282166 22.661787110933197 a54.760075892286984,54.760075892286984 0 0,0 -0.6387465375353604,0.6932332125213415 l -24.629918393751083 -23.089171578255876" fill="#70ff27" stroke="none" /><path d="M 114.29624159901734 115.38237550388516 l 11.261887436073867 12.117491175868352 a37.5427839561558,37.5427839561558 0 0,0 -0.4771517120079131,0.4358667757613317 l -11.05163617459909 -12.309550718216267" fill="#ffbe11" stroke="none" /><path d="M 113.20401910651253 116.32954008644616 l 3.118955660007824 3.8572430914482316 a25.960464562480006,25.960464562480006 0 0,0 -0.3499007133326998,0.2779822884177861 l -3.0520974539577734 -3.910359293871144" fill="#ff1a02" stroke="none" /><path d="M 112.92097659922987 116.55440617244103 l 8.322145304694791 10.662365382520848 a34.52568438278938,34.52568438278938 0 0,0 -0.47163937992967214,0.3616329647951807 l -8.137377196271625 -10.8040376891434" fill="#ff950d" stroke="none" /><path d="M 111.45004920935366 117.60387380957326 l 7.945123186863335 12.215226627043622 a35.571779026751294,35.571779026751294 0 0,0 -0.5161604001436404,0.32943798865576107 l -7.733680984672764 -12.350179044523191" fill="#ffa30f" stroke="none" /><line stroke="#e1ed5e" stroke-width="0.3" x1="143.8653032363475" x2="146.44561519142675" y1="172.8068346515853" y2="177.08958963109032" /><path d="M 144.38136562736335 173.6633856474863 a86.0,86.0 0 0,1 -40.68145358897372,12.25698825130547" fill="none" id="id42" stroke="none" /><text fill="#e1ed5e" style="font-size:6.75px; font-family:Arial;" text-anchor="middle"><textPath startOffset="21.466115282336833" xlink:href="#id42">June</textPath></text><path d="M 110.5260780823613 118.17145234162733 l 9.03752504365282 15.601723104467073 a39.03026962480355,39.03026962480355 0 0,0 -0.5842482563788126,0.3317514079147385 l -8.767628020352808 -15.75497767817644" fill="#ffd113" stroke="none" /><path d="M 109.57404056367764 118.69057910512821 l 6.9031329612884775 13.476395031756475 a36.14154773242082,36.14154773242082 0 0,0 -0.5561428533347036,0.2788615719982696 l -6.670136200271013 -13.593224444664047" fill="#ffab0f" stroke="none" /><path d="M 108.59647513512805 119.15986991738527 l 4.702522265575251 10.481006863365705 a32.48761161112918,32.48761161112918 0 0,0 -0.5121893587711226,0.22452876302749997 l -4.521412232146374 -10.560400179687658" fill="#ff790b" stroke="none" /><path d="M 107.59598834532513 119.57807347666477 l 3.040315758220042 7.836179125172946 a29.405309226404306,29.405309226404306 0 0,0 -0.47346717700952107,0.17902477336911535 l -2.904978360450246 -7.887352148648692" fill="#ff4d07" stroke="none" /><path d="M 106.91757812671514 119.82793768551818 l 4.859918916327687 13.930044253128619 a35.753472295273454,35.753472295273454 0 0,0 -0.5828331294886866,0.19772864192351278 l -4.619416053901774 -14.011635881950255" fill="#ffa60f" stroke="none" /><path d="M 105.88484417918355 120.15858648285463 l 2.1534009757876778 7.376494343933841 a28.684387065251936,28.684387065251936 0 0,0 -0.47516210581069274,0.13428555736809022 l -2.0261077018723794 -7.41246869464045" fill="#ff4306" stroke="none" /><path d="M 104.48393922423573 120.51570834832081 l 3.085585970718963 14.117716296596413 a35.45097762138886,35.45097762138886 0 0,0 -0.5972789801487342,0.1251656175249149 l -2.842115529140851 -14.168737894847869" fill="#ffa20e" stroke="none" /><path d="M 103.41894727170886 120.7198165907248 l 1.98145224947807 12.008177935995013 a33.170558342141874,33.170558342141874 0 0,0 -0.564158753518781,0.08810999478886927 l -1.774457632350772 -12.04050623813099" fill="#ff820c" stroke="none" /><path d="M 101.98527174616119 120.90594882070398 l 1.457928654058847 15.352750516360478 a36.42181910080431,36.42181910080431 0 0,0 -0.6246440527306822,0.05389691723470253 l -1.193440283586623 -15.375571685873846" fill="#ffaf10" stroke="none" /><path d="M 100.90346689309514 120.98055641714683 l 0.42014610033898875 9.756748176358583 a30.765790173995477,30.765790173995477 0 0,0 -0.5292882787863107,0.01822975851026328 l -0.25213746987802577 -9.76253473329494" fill="#ff6008" stroke="none" /><line stroke="#e1ed5e" stroke-width="0.3" x1="102.19456741930631" x2="102.32365962044197" y1="184.97166512339345" y2="189.96999836594603" /><path d="M 102.22038585953345 185.97133177190398 a86.0,86.0 0 0,1 -42.740103519485714,-10.115201625700543" fill="none" id="id43" stroke="none" /><text fill="#e1ed5e" style="font-size:6.75px; font-family:Arial;" text-anchor="middle"><textPath startOffset="22.20632615414155" xlink:href="#id43">July</textPath></text><path d="M 99.81925306533755 120.99922214144158 l -0.12458409728333891 14.474210248874193 a35.474746406272914,35.474746406272914 0 0,0 -0.6105715877172497,-0.010511543596622971 l 0.3737153748932566 -14.46992122799841" fill="#ffa20f" stroke="none" /><path d="M 98.73552117531835 120.96189622390904 l -0.9444815974567233 15.65714256722657 a36.68560355416369,36.68560355416369 0 0,0 -0.630009275472965,-0.043449128229109714 l 1.2138536337086183 -15.638565094481175" fill="#ffb210" stroke="none" /><path d="M 97.65516085044442 120.86867818915974 l -1.6755279454016334 14.911919862886036 a36.00575715826952,36.00575715826952 0 0,0 -0.6153085169701936,-0.07450529238838557 l 1.9319638854232164 -14.8808690417723" fill="#ffa90f" stroke="none" /><path d="M 96.93821686468263 120.77559828337769 l -4.51309459077214 30.62340998329658 a51.95418003744123,51.95418003744123 0 0,0 -0.8836271354762055,-0.13800438585150857 l 5.039557589856863 -30.541187290097966" fill="#8fff24" stroke="none" /><path d="M 96.22490169976321 120.6578951692458 l -2.4930717764377146 13.642456781542682 a34.86838252712732,34.86838252712732 0 0,0 -0.589495477363459,-0.11297821124776493 l 2.7275348683728686 -13.59752137194645" fill="#ff9a0e" stroke="none" /><path d="M 95.16358092515715 120.4354850818985 l -3.428467734811273 14.486420668742946 a35.886597153158434,35.886597153158434 0 0,0 -0.5998986691599962,-0.1474404974174202 l 3.67731968871448 -14.425258913011497" fill="#ffa80f" stroke="none" /><path d="M 93.76903079525671 120.05430185196036 l -5.111360097885711 16.450852974692047 a38.22662374480828,38.22662374480828 0 0,0 -0.6266957430751102,-0.2006481865333659 l 5.3937771860517625 -16.360431941498977" fill="#ffc712" stroke="none" /><path d="M 93.08242187328487 119.8279376855182 l -7.132024690521708 20.44260845990517 a42.65100498432342,42.65100498432342 0 0,0 -0.6911096531261568,-0.24780733310734843 l 7.482853904277591 -20.316813585757863" fill="#feff18" stroke="none" /><path d="M 92.40401165467489 119.57807347666478 l -6.135170478416895 15.812928213908357 a37.961397804940994,37.961397804940994 0 0,0 -0.6071634974605025,-0.24160288606604674 l 6.406455051919256 -15.704978483436244" fill="#ffc312" stroke="none" /><path d="M 92.06813273071674 119.44442032107085 l -6.874942665525005 16.853443247772724 a39.20174128923252,39.20174128923252 0 0,0 -0.6226142646359902,-0.2602528131133568 l 7.164028389658457 -16.732605391639392" fill="#ffd413" stroke="none" /><path d="M 91.40352486487194 119.15986991738527 l -4.464933539713958 9.951467836056935 a31.907215208573557,31.907215208573557 0 0,0 -0.49916863628347363,-0.22914383824219794 l 4.635570171764851 -9.873136927480664" fill="#ff710a" stroke="none" /><path d="M 90.7491055286396 118.85261126421891 l -9.514834653771677 19.39050105113757 a42.59915761095283,42.59915761095283 0 0,0 -0.6555119675231238,-0.3286873087213154 l 9.847200528977563 -19.22384590150695" fill="#ffff18" stroke="none" /><path d="M 90.10565033884886 118.52300852407294 l -6.440124350715593 12.05642435629428 a34.66867110994064,34.66867110994064 0 0,0 -0.5239545406249455,-0.2857017917448268 l 6.64670170320918 -11.943781912789685" fill="#ff970d" stroke="none" /><line stroke="#e1ed5e" stroke-width="0.3" x1="58.666819895761336" x2="56.23545636021788" y1="174.27360380694188" y2="178.64263932499728" /><path d="M 58.180547188652646 175.14741091055294 a86.0,86.0 0 0,1 -31.652253787137756,-30.449443065178592" fill="none" id="id44" stroke="none" /><text fill="#e1ed5e" style="font-size:6.75px; font-family:Arial;" text-anchor="middle"><textPath startOffset="22.20632615414155" xlink:href="#id44">August</textPath></text><path d="M 89.1626897886671 117.98757091392108 l -13.297850089653837 22.07153037293383 a46.76791163463285,46.76791163463285 0 0,0 -0.6859756932949856,-0.4213822982678007 l 13.67580498288113 -21.83935960783765" fill="#ccff1d" stroke="none" /><path d="M 88.24862548938628 117.40417183066458 l -14.093885916378008 20.873508203562142 a46.18612643794306,46.18612643794306 0 0,0 -0.6550580850227644,-0.45055492401717373 l 14.451100886023662 -20.627812490179867" fill="#d3ff1c" stroke="none" /><path d="M 87.36589467227662 116.77436683061367 l -7.500938533762134 9.95903479315733 a33.46781668531407,33.46781668531407 0 0,0 -0.45718833938394987,-0.3505525231287009 l 7.67125560163957 -9.828442928201262" fill="#ff860c" stroke="none" /><path d="M 86.79598089348748 116.32954008644616 l -2.0141846750192736 2.490961965967643 a24.20340934333717,24.20340934333717 0 0,0 -0.32170926375171344,-0.2647448222124889 l 2.056764067315676 -2.4559220248979736" fill="#ff0000" stroke="none" /><path d="M 86.24171649860922 115.8653595955263 l -10.541544117203053 12.155977749304624 a37.090119558801526,37.090119558801526 0 0,0 -0.47874097800105203,-0.42243325082687283 l 10.749227448110693 -11.972721356705462" fill="#ffb811" stroke="none" /><path d="M 85.70375840098266 115.38237550388516 l -21.401587139540464 23.02753821550968 a52.437166671920394,52.437166671920394 0 0,0 -0.6558745062280777,-0.6201702832612229 l 21.79479748015936 -22.655733295502525" fill="#8aff24" stroke="none" /><path d="M 84.67929136418377 114.36230785411682 l -7.105049316249233 6.660586531885126 a30.738846889394207,30.738846889394207 0 0,0 -0.35855195045840116,-0.389137327352336 l 7.218647674703363 -6.537297949731445" fill="#ff6008" stroke="none" /><path d="M 83.95833913139862 113.55231037782056 l -18.02099956907499 15.224494613067336 a44.59113523533612,44.59113523533612 0 0,0 -0.4902986426251135,-0.5905962999155552 l 18.28039421159364 -14.912037056038018" fill="#e6ff1a" stroke="none" /><path d="M 82.6465618267979 111.8261652097733 l -12.60137059499322 8.587686718825612 a36.2493574964014,36.2493574964014 0 0,0 -0.34695277560156873,-0.5186473243535774 l 12.74732647600552 -8.369502480266215" fill="#ffac10" stroke="none" /><path d="M 82.44556493220864 111.52570212397912 l -4.238955568823602 2.7831678441583874 a26.070973039093964,26.070973039093964 0 0,0 -0.24307474895632197,-0.3772574083624253 l 4.28623518115697 -2.709788835874514" fill="#ff1c02" stroke="none" /><line stroke="#e1ed5e" stroke-width="0.3" x1="26.63291911575756" x2="22.317208475507996" y1="142.92168965132927" y2="145.44649492493687" /><path d="M 25.769776987707644 143.4266507060508 a86.0,86.0 0 0,1 -11.730757126820373,-40.83630448921669" fill="none" id="id45" stroke="none" /><text fill="#e1ed5e" style="font-size:6.75px; font-family:Arial;" text-anchor="middle"><textPath startOffset="21.46611528233685" xlink:href="#id45">September</textPath></text><path d="M 81.51974371655577 109.97397251340807 l -13.08199368759897 7.060478137285444 a35.86569575800154,35.86569575800154 0 0,0 -0.28854377805160497,-0.5458160875117386 l 13.201589973875462 -6.834247034687579" fill="#ffa70f" stroke="none" /><path d="M 81.18737489456691 109.33194174019688 l -10.126137441011315 5.023037674069917 a32.303520113193805,32.303520113193805 0 0,0 -0.24280978332136036,-0.500260071524199 l 10.211100480947394 -4.847988646580433" fill="#ff760a" stroke="none" /><path d="M 80.87730276802145 108.67885076344099 l -10.977083671163692 4.98195781924105 a33.05471980746237,33.05471980746237 0 0,0 -0.23068875616634105,-0.5201422451020846 l 11.061213512061313 -4.79226723764627" fill="#ff810b" stroke="none" /><path d="M 80.45479744820244 107.68017299344265 l -14.031818394104906 5.513720944753529 a36.076241113147354,36.076241113147354 0 0,0 -0.22213639746160876,-0.5799280379544415 l 14.124649071160025 -5.27136933996593" fill="#ffaa0f" stroke="none" /><path d="M 80.32549172779594 107.34259656027581 l -19.0786952375234 7.120237013674366 a41.36404643230801,41.36404643230801 0 0,0 -0.24321220004968774,-0.6692155190532336 l 19.198431698578315 -6.790773697615015" fill="#fff016" stroke="none" /><path d="M 79.67330655649465 105.27499134158121 l -14.762585268411408 3.8310465834818714 a36.25158489246038,36.25158489246038 0 0,0 -0.1515466186871528,-0.6053534095003785 l 14.82634320139362 -3.5763653345841013" fill="#ffac10" stroke="none" /><path d="M 79.4281124754447 104.21870165774334 l -19.203221848072232 3.9380277452798658 a40.602851625946485,40.602851625946485 0 0,0 -0.13451157661886512,-0.6858716312476707 l 19.268163357666765 -3.60689238696424" fill="#ffe615" stroke="none" /><path d="M 79.18660465613746 102.79330883721812 l -13.45830198227521 1.8062018829678845 a34.578963785508435,34.578963785508435 0 0,0 -0.07409529438837023,-0.5906123992857398 l 13.487398785910427 -1.5742717293947361" fill="#ff960d" stroke="none" /><path d="M 79.1416061653843 102.43462659150553 l -12.717305397533533 1.4843851419541683 a33.803642287403605,33.803642287403605 0 0,0 -0.06248474259422505,-0.578531112942094 l 12.74097244162881 -1.2652577071272924" fill="#ff8b0c" stroke="none" /><path d="M 79.04373962182676 101.35467743843564 l -12.368150630608103 0.7995154818704763 a33.393965266498135,33.393965266498135 0 0,0 -0.03214351887480712,-0.573944122304342 l 12.380080500370441 -0.5864996432306967" fill="#ff850c" stroke="none" /><line stroke="#e1ed5e" stroke-width="0.3" x1="15.007084014347285" x2="10.007500721073583" y1="101.09737516637583" y2="101.16192664675087" /><path d="M 14.007167355692545 101.11028546245083 a86.0,86.0 0 0,1 10.666146001902534,-42.60595125391555" fill="none" id="id46" stroke="none" /><text fill="#e1ed5e" style="font-size:6.75px; font-family:Arial;" text-anchor="middle"><textPath startOffset="22.20632615414155" xlink:href="#id46">October</textPath></text><path d="M 79.00175016825051 100.2711162175752 l -20.73044738072303 0.26765852047371147 a41.73217522809675,41.73217522809675 0 0,0 -0.003091564672251682,-0.7183707523285879 l 20.731983242684784 0.08922171005855184" fill="#fff417" stroke="none" /><path d="M 79.00486145842228 99.54816195383935 l -16.614351270703047 -0.3575587749285233 a37.61819835071902,37.61819835071902 0 0,0 0.01950468750813227,-0.6472656221048867 l 16.60573488873927 0.6434945444584045" fill="#ffbf11" stroke="none" /><path d="M 79.05617556472873 98.46500227214037 l -37.14870553938292 -2.722672679582208 a58.24834586625187,58.24834586625187 0 0,0 0.08189583230293095,-0.9993365886323038 l 37.09633522326049 3.36172318542229" fill="#4bff2c" stroke="none" /><path d="M 79.26566170972629 96.67025291283419 l -12.801225929665783 -2.055761035376326 a33.965243489303205,33.965243489303205 0 0,0 0.09767132511101835,-0.5764616896619504 l 12.763942743034542 2.275808513354104" fill="#ff8d0d" stroke="none" /><path d="M 79.62865764111835 94.90015583598534 l -9.575400026568362 -2.3971443355724573 a30.870895938787548,30.870895938787548 0 0,0 0.13348526617580672,-0.5143731826424203 l 9.532718428522248 2.5616139437637417" fill="#ff6209" stroke="none" /><path d="M 79.71946130924805 94.55025226153421 l -20.19693512510905 -5.42728194750542 a41.91343055994358,41.91343055994358 0 0,0 0.19322736043574876,-0.6951416237601623 l 20.10052099410694 5.774134874684525" fill="#fff617" stroke="none" /><path d="M 80.14247586403 93.16781622104843 l -13.769133108708608 -4.737410728114856 a35.56132160802011,35.56132160802011 0 0,0 0.20413370296087494,-0.5771134672104713 l 13.685546324937924 4.973721821751938" fill="#ffa30f" stroke="none" /><path d="M 80.38941819471856 92.48833698450439 l -3.340779648803704 -1.2796566251838992 a24.577475330486298,24.577475330486298 0 0,0 0.15472860791970972,-0.39376743009961623 l 3.318257491002303 1.3369730601792789" fill="#ff0600" stroke="none" /><path d="M 80.52162464483688 92.15188598940014 l -19.221622629905966 -7.74466469187542 a41.72319009506246,41.72319009506246 0 0,0 0.2741378755734828,-0.6638466101224235 l 19.085463067446284 8.074385872451156" fill="#fff417" stroke="none" /><path d="M 80.95270993114464 91.15688171328213 l -11.303630054967691 -5.247955865849087 a33.46246737967521,33.46246737967521 0 0,0 0.2470514943360151,-0.5203534530578203 l 11.211620366789925 5.441751734547439" fill="#ff860c" stroke="none" /><path d="M 81.26839172434947 90.50648371742162 l -13.07237004543649 -6.625312469274945 a35.65542984427121,35.65542984427121 0 0,0 0.2821712427018676,-0.5450650275973322 l 12.956389369574508 6.849350219132613" fill="#ffa40f" stroke="none" /><path d="M 81.6062741919709 89.86733742301443 l -38.36939278293489 -21.1367786173911 a64.80609218877824,64.80609218877824 0 0,0 0.5466620966162077,-0.972450871684313 l 37.99987304502625 21.7941129990102" fill="#34ff5f" stroke="none" /><line stroke="#e1ed5e" stroke-width="0.3" x1="26.266209847984243" x2="21.928928074336255" y1="57.711370442889674" y2="55.22380399835377" /><path d="M 25.398753493254645 57.213857153982495 a86.0,86.0 0 0,1 29.58750427330803,-30.492523968695096" fill="none" id="id47" stroke="none" /><text fill="#e1ed5e" style="font-size:6.75px; font-family:Arial;" text-anchor="middle"><textPath startOffset="21.46611528233685" xlink:href="#id47">November</textPath></text><path d="M 82.34701348167596 88.62581576622439 l -13.952641699042225 -8.989975552750433 a37.59806828582478,37.59806828582478 0 0,0 0.35521825009287183,-0.5410217650147815 l 13.795826813591434 9.228815381742882" fill="#ffbe11" stroke="none" /><path d="M 82.95767976084542 87.72973835380427 l -15.467831571857426 -11.136649107785617 a40.05987321272866,40.05987321272866 0 0,0 0.40772822112017637,-0.5561408353937344 l 15.273840738223617 11.401252386850853" fill="#ffdf14" stroke="none" /><path d="M 83.6137871275137 86.86637796730984 l -7.075477855789819 -5.6710267699892665 a30.0676861168496,30.0676861168496 0 0,0 0.3271672198797072,-0.4010683268849935 l 6.97681214383372 5.791979266482342" fill="#ff5608" stroke="none" /><path d="M 84.07557802195018 86.31012108654704 l -13.152884130977352 -11.30724816033845 a38.34509215664169,38.34509215664169 0 0,0 0.4345925678637208,-0.4968144319898449 l 12.956299699535787 11.531978148531238" fill="#ffc812" stroke="none" /><path d="M 84.31358615837235 86.03803664274999 l -11.893682472846022 -10.586177347174482 a36.92252598021793,36.92252598021793 0 0,0 0.4266421777913894,-0.47110894873175224 l 11.709696654438588 10.78933908317579" fill="#ffb510" stroke="none" /><path d="M 85.05521093208273 85.24692304244772 l -9.49372935101814 -9.37194356462488 a34.34032320331472,34.34032320331472 0 0,0 0.41889340073204584,-0.41709453934541807 l 9.331000150118783 9.533973954620409" fill="#ff920d" stroke="none" /><path d="M 85.31137513191541 84.99185889309783 l -10.722082656993406 -10.95531616616264 a36.32912289741273,36.32912289741273 0 0,0 0.4506831076018787,-0.43355679243724443 l 10.5319163057791 11.138256045362198" fill="#ffae10" stroke="none" /><path d="M 85.83668400450813 84.49514656593479 l -8.57116929195805 -9.383023274540367 a33.70850379871568,33.70850379871568 0 0,0 0.4317722450682847,-0.3876493847759223 l 8.408386059293795 9.529171668085569" fill="#ff8a0c" stroke="none" /><path d="M 86.37877921826538 84.01681056812374 l -18.15816438576826 -21.306855366595407 a48.994660552926845,48.994660552926845 0 0,0 0.6465952810233553,-0.5415049527722551 l 17.788711567785796 21.616261476761476" fill="#b1ff20" stroke="none" /><path d="M 86.93701828274178 83.55741782278169 l -6.563358211544686 -8.261403030922637 a31.551229836013846,31.551229836013846 0 0,0 0.4281463499022171,-0.33417501724354975 l 6.4201793064830435 8.373156437389408" fill="#ff6c09" stroke="none" /><path d="M 87.51073957382395 83.11751280151077 l -7.7313193603962755 -10.450891059630651 a33.99978549794981,33.99978549794981 0 0,0 0.4734950719924853,-0.3440143066035017 l 7.550278972050009 10.582424601050821" fill="#ff8e0d" stroke="none" /><path d="M 87.80319425747018 82.90503203632743 l -11.91798009504785 -16.704167649904022 a41.519928518931465,41.519928518931465 0 0,0 0.5853694248175202,-0.4100886905801921 l 11.62867953064667 16.906841183248158" fill="#fff116" stroke="none" /><path d="M 88.39885842347998 82.49532879139004 l -7.695409240566597 -11.611409763712627 a34.92997344149079,34.92997344149079 0 0,0 0.5040444638690863,-0.3278445402093668 l 7.494397750913223 11.74215322808153" fill="#ff9b0e" stroke="none" /><path d="M 89.00827224532344 82.1063720568725 l -7.610709853967812 -12.389609126923066 a35.5404717529803,35.5404717529803 0 0,0 0.5240322971068012,-0.31572359556945934 l 7.396315490643362 12.518779331951144" fill="#ffa30f" stroke="none" /><line stroke="#e1ed5e" stroke-width="0.3" x1="56.762969772571076" x2="54.21961505331055" y1="26.818313649435495" y2="22.513508569990535" /><path d="M 56.25429882871897 25.957352633546506 a86.0,86.0 0 0,1 42.265352541879196,-11.944610805530505" fill="none" id="id48" stroke="none" /><text fill="#e1ed5e" style="font-size:6.75px; font-family:Arial;" text-anchor="middle"><textPath startOffset="22.20632615414155" xlink:href="#id48">December</textPath></text><path d="M 90.26544431104013 81.39251694778311 l -9.469166411950415 -18.10019472473892 a41.42748544512213,41.42748544512213 0 0,0 0.6347075698827229,-0.3251218694696916 l 9.156198354478928 18.260509119521117" fill="#fff016" stroke="none" /><path d="M 90.58718382345135 81.22770947309562 l -4.606950836337958 -9.187794377453963 a31.278110795803364,31.278110795803364 0 0,0 0.483364079374742,-0.23718465452203633 l 4.44811548995279 9.265734192110829" fill="#ff6809" stroke="none" /><path d="M 91.56875222667455 80.76684994638697 l -5.569476810206739 -12.704950215046827 a34.87208823163438,34.87208823163438 0 0,0 0.5518362532924548,-0.2362674845009671 l 5.349956799123976 12.79893722751058" fill="#ff9a0e" stroke="none" /><path d="M 92.23578459929587 80.48803036053334 l -3.830003999202967 -9.62504488794925 a31.35907426988284,31.35907426988284 0 0,0 0.5032636170940952,-0.19525846476310757 l 3.6637572171091954 9.689546056602907" fill="#ff6909" stroke="none" /><path d="M 92.91201910852362 80.23233633223022 l -7.05744203426321 -19.682493875775286 a41.90952063622973,41.90952063622973 0 0,0 0.6811654092488724,-0.2376452362535192 l 6.717594620951052 19.801059965201016" fill="#fff617" stroke="none" /><path d="M 93.59665428221793 80.00007090966166 l -3.7776939996129597 -11.799083705170505 a33.38908181570902,33.38908181570902 0 0,0 0.5488761635495701,-0.1705384958071085 l 3.574032463352661 11.862362335860139" fill="#ff850c" stroke="none" /><path d="M 95.33964822691252 79.52364482259891 l -13.98105531926245 -61.42906553220327 a84.0,84.0 0 0,0 1.4126291033859162,-0.30874600761652715 l 12.921583491723013 61.66062503791566" fill="#4dd2ff" stroke="none" /><path d="M 97.47563105711357 79.15227682838746 l -3.594920845660008 -29.68897031686821 a50.905825759581404,50.905825759581404 0 0,0 0.8708127427702068,-0.09784595807511189 l 3.083341399380083 29.746452228413922" fill="#9bff22" stroke="none" /><path d="M 98.91598698831166 79.02799685794201 l -0.6755740452547434 -13.070083889222502 a34.087531973673855,34.087531973673855 0 0,0 0.58623927016735,-0.025244696160471914 l 0.4504939426980693 13.079776311907166" fill="#ff8f0d" stroke="none" /></svg>