<?xml version="1.0" encoding="utf-8" ?>
<svg baseProfile="full" height="200mm" version="1.1" viewBox="0,0,200,200" width="200mm" xmlns="http://www.w3.org/2000/svg" xmlns:ev="http://www.w3.org/2001/xml-events" xmlns:xlink="http://www.w3.org/1999/xlink"><defs /><rect fill="#1a1a1a" height="200" width="200" x="0" y="0" /><text alignment-baseline="middle" fill="#e1ed5e" style="dominant-baseline: central; font-size:9.0px; font-family:Arial;" text-anchor="middle" x="100.0" y="100.0">2018</text><line stroke="#e1ed5e" stroke-width="0.3" x1="100.0" x2="100.0" y1="15.0" y2="10.0" /><path d="M 100.0 14.0 a86.0,86.0 0 0,1 42.46469731375804,11.215312516191453" fill="none" id="id1" stroke="none" /><text fill="#e1ed5e" style="font-size:6.75px; font-family:Arial;" text-anchor="middle"><textPath startOffset="22.20632615414155" xlink:href="#id1">January</textPath></text><line stroke="#e1ed5e" stroke-width="0.3" x1="143.23703022742887" x2="145.7803849466894" y1="26.81831364943548" y2="22.513508569990506" /><path d="M 143.74570117128098 25.957352633546492 a86.0,86.0 0 0,1 28.547481713284135,27.462654790039103" fill="none" id="id2" stroke="none" /><text fill="#e1ed5e" style="font-size:6.75px; font-family:Arial;" text-anchor="middle"><textPath startOffset="19.985693538727396" xlink:href="#id2">February</textPath></text><line stroke="#e1ed5e" stroke-width="0.3" x1="172.23445277983987" x2="176.4835382374775" y1="55.19839476539836" y2="52.563006222186495" /><path d="M 173.08426987136738 54.67131705675599 a86.0,86.0 0 0,1 12.851231095245387,41.99856678651699" fill="none" id="id3" stroke="none" /><text fill="#e1ed5e" style="font-size:6.75px; font-family:Arial;" text-anchor="middle"><textPath startOffset="22.20632615414155" xlink:href="#id3">March</textPath></text><line stroke="#e1ed5e" stroke-width="0.3" x1="184.98032266829074" x2="189.97916517819016" y1="98.17113171792111" y2="98.06355123074" /><path d="M 185.9800911702706 98.14961562048488 a86.0,86.0 0 0,1 -9.607161424134198,41.387399972396054" fill="none" id="id4" stroke="none" /><text fill="#e1ed5e" style="font-size:6.75px; font-family:Arial;" text-anchor="middle"><textPath startOffset="21.466115282336823" xlink:href="#id4">April</textPath></text><line stroke="#e1ed5e" stroke-width="0.3" x1="174.80103733775053" x2="179.2010983576182" y1="140.37084112569926" y2="142.7455964860345" /><path d="M 175.68104954172406 140.8457921977663 a86.0,86.0 0 0,1 -30.038265399797805,32.042727171017184" fill="none" id="id5" stroke="none" /><text fill="#e1ed5e" style="font-size:6.75px; font-family:Arial;" text-anchor="middle"><textPath startOffset="22.206326154141568" xlink:href="#id5">May</textPath></text><line stroke="#e1ed5e" stroke-width="0.3" x1="143.8653032363475" x2="146.44561519142675" y1="172.8068346515853" y2="177.08958963109032" /><path d="M 144.38136562736335 173.6633856474863 a86.0,86.0 0 0,1 -40.68145358897372,12.25698825130547" fill="none" id="id6" stroke="none" /><text fill="#e1ed5e" style="font-size:6.75px; font-family:Arial;" text-anchor="middle"><textPath startOffset="21.466115282336833" xlink:href="#id6">June</textPath></text><line stroke="#e1ed5e" stroke-width="0.3" x1="102.19456741930631" x2="102.32365962044197" y1="184.97166512339345" y2="189.96999836594603" /><path d="M 102.22038585953345 185.97133177190398 a86.0,86.0 0 0,1 -42.740103519485714,-10.115201625700543" fill="none" id="id7" stroke="none" /><text fill="#e1ed5e" style="font-size:6.75px; font-family:Arial;" text-anchor="middle"><textPath startOffset="22.20632615414155" xlink:href="#id7">July</textPath></text><line stroke="#e1ed5e" stroke-width="0.3" x1="58.666819895761336" x2="56.23545636021788" y1="174.27360380694188" y2="178.64263932499728" /><path d="M 58.180547188652646 175.14741091055294 a86.0,86.0 0 0,1 -31.652253787137756,-30.449443065178592" fill="none" id="id8" stroke="none" /><text fill="#e1ed5e" style="font-size:6.75px; font-family:Arial;" text-anchor="middle"><textPath startOffset="22.20632615414155" xlink:href="#id8">August</textPath></text><line stroke="#e1ed5e" stroke-width="0.3" x1="26.63291911575756" x2="22.317208475507996" y1="142.92168965132927" y2="145.44649492493687" /><path d="M 25.769776987707644 143.4266507060508 a86.0,86.0 0 0,1 -11.730757126820373,-40.83630448921669" fill="none" id="id9" stroke="none" /><text fill="#e1ed5e" style="font-size:6.75px; font-family:Arial;" text-anchor="middle"><textPath startOffset="21.46611528233685" xlink:href="#id9">September</textPath></text><line stroke="#e1ed5e" stroke-width="0.3" x1="15.007084014347285" x2="10.007500721073583" y1="101.09737516637583" y2="101.16192664675087" /><path d="M 14.007167355692545 101.11028546245083 a86.0,86.0 0 0,1 10.666146001902534,-42.60595125391555" fill="none" id="id10" stroke="none" /><text fill="#e1ed5e" style="font-size:6.75px; font-family:Arial;" text-anchor="middle"><textPath startOffset="22.20632615414155" xlink:href="#id10">October</textPath></text><path d="M 79.81627453868168 94.20196356495316 l -42.00975216625416 -12.067845163373548 a64.70871954149715,64.70871954149715 0 0,0 0.31674641782468366,-1.0679114578258508 l 41.79579985131777 12.789186007945938" fill="red" stroke="none" /><path d="M 79.91906864156998 93.8553929516997 l -56.155838678208745 -17.183244939507315 a79.72599189714984,79.72599189714984 0 0,0 0.4128459247597933,-1.3088344018110207 l 55.85173726968075 18.147329507744747" fill="red" stroke="none" /><path d="M 80.02781315780177 93.51064311812611 l -52.603989910732984 -17.092072422434217 a76.31110823534667,76.31110823534667 0 0,0 0.41666848502571596,-1.2457857356610822 l 52.3019841319355 17.995031261017623" fill="red" stroke="none" /><path d="M 80.14247586403 93.16781622104843 l -52.40830346085944 -18.031611510876033 a76.42354450343905,76.42354450343905 0 0,0 0.43869632588019003,-1.2402535887458832 l 52.09015405416944 18.931062726048527" fill="red" stroke="none" /><path d="M 80.2630227832202 92.82701384747504 l -52.13046151854387 -18.945711619879916 a76.46643135194508,76.46643135194508 0 0,0 0.46023838364481634,-1.2332100520399034 l 51.796618546397426 19.840244808949162" fill="red" stroke="none" /><path d="M 80.38941819471856 92.48833698450439 l -48.91436058853275 -18.736220934584598 a73.37996417232998,73.37996417232998 0 0,0 0.461966884430116,-1.175655331737793 l 48.584600154220944 19.575425271218155" fill="red" stroke="none" /><path d="M 80.52162464483688 92.15188598940014 l -31.70931319514682 -12.776132537530435 a55.18640235421762,55.18640235421762 0 0,0 0.3625965096978287,-0.8780562091304456 l 31.48469499856279 13.320063317114192" fill="red" stroke="none" /><path d="M 80.803312248108 91.48605970444005 l -31.76366601281323 -14.087532156402588 a55.74750409498822,55.74750409498822 0 0,0 0.39659752127939557,-0.8738500671455547 l 31.516466174570482 14.632204232390215" fill="red" stroke="none" /><path d="M 81.10775173730289 90.83032412892265 l -43.58203496035827 -21.1532861960916 a69.44435249004418,69.44435249004418 0 0,0 0.531216184974254,-1.0708994136570988 l 43.2114587624306 21.90034519824766" fill="red" stroke="none" /><path d="M 81.26839172434947 90.50648371742162 l -48.18743731943303 -24.422260709051436 a75.02292044637318,75.02292044637318 0 0,0 0.5937191273793538,-1.146876377094219 l 47.759908758893566 25.248109808405992" fill="red" stroke="none" /><path d="M 81.43458229118936 90.18545643968196 l -47.633071758691344 -25.181057868984556 a74.87945063351879,74.87945063351879 0 0,0 0.6121997718450212,-1.1343132001971261 l 47.19256388762785 25.997252052514156" fill="red" stroke="none" /><path d="M 81.6062741919709 89.86733742301443 l -14.721081489074098 -8.109490869543361 a37.80696529332905,37.80696529332905 0 0,0 0.31891500036359616,-0.5673142001548223 l 14.579308847418073 8.361688579632968" fill="red" stroke="none" /><line stroke="#e1ed5e" stroke-width="0.3" x1="26.266209847984243" x2="21.928928074336255" y1="57.711370442889674" y2="55.22380399835377" /><path d="M 25.398753493254645 57.213857153982495 a86.0,86.0 0 0,1 29.58750427330803,-30.492523968695096" fill="none" id="id11" stroke="none" /><text fill="#e1ed5e" style="font-size:6.75px; font-family:Arial;" text-anchor="middle"><textPath startOffset="21.46611528233685" xlink:href="#id11">November</textPath></text><path d="M 81.96595687620814 89.24020034530311 l -28.119966253927743 -16.77744702683633 a53.74469775185494,53.74469775185494 0 0,0 0.4808466492121818,-0.7903854611913381 l 27.827003806429342 17.259000261234746" fill="red" stroke="none" /><path d="M 82.15384107792192 88.93136811851018 l -53.53847676623425 -33.20589564446946 a84.0,84.0 0 0,0 0.7726896150161493,-1.222209409143138 l 52.95895955497213 34.12255270132681" fill="red" stroke="none" /><path d="M 82.54541684631803 88.32363383020206 l -45.09717162527177 -30.16807015570675 a75.25741742396943,75.25741742396943 0 0,0 0.7295509030702488,-1.0705259284024573 l 44.57119625653278 30.939874107379623" fill="red" stroke="none" /><path d="M 82.7489923806493 88.02491185347247 l -41.26821839330665 -28.647054352677625 a71.23663575960197,71.23663575960197 0 0,0 0.7079136614598428,-1.0012936705595972 l 40.76899211204293 29.353174523569006" fill="red" stroke="none" /><path d="M 83.17141714833178 87.43820079747576 l -43.51529496731959 -32.482259643383735 a75.30173190270293,75.30173190270293 0 0,0 0.7843000242816631,-1.0320468973392045 l 42.949719002813815 33.22649131660396" fill="red" stroke="none" /><path d="M 83.39014120810768 87.1503855733568 l -48.68740897440687 -37.665246923037905 a82.5559470596836,82.5559470596836 0 0,0 0.8792047944094473,-1.1165008042552225 l 48.03185009940345 38.497740121246174" fill="red" stroke="none" /><path d="M 83.6137871275137 86.86637796730984 l -40.42151995300471 -32.3980268766676 a72.80281286583224,72.80281286583224 0 0,0 0.7921691676629941,-0.971105732418095 l 39.857852293265324 33.089016778693775" fill="red" stroke="none" /><path d="M 83.84228863543731 86.58626213691792 l -36.27043809157393 -30.110833011076473 a68.14029002854808,68.14029002854808 0 0,0 0.7569717360747338,-0.896015774336188 l 35.74675574201207 30.730707735041776" fill="red" stroke="none" /><path d="M 84.31358615837235 86.03803664274999 l -32.26290687840553 -28.7161570632085 a64.19158293838657,64.19158293838657 0 0,0 0.7417378961391471,-0.8190455109093241 l 31.763825341650335 29.267255361387377" fill="red" stroke="none" /><path d="M 84.5562425177563 85.77008943001954 l -39.57396588238755 -36.46353525385841 a74.81159892504355,74.81159892504355 0 0,0 0.8807558071386038,-0.9395288861327226 l 38.94044275327849 37.13933355686918" fill="red" stroke="none" /><path d="M 84.80347519578584 85.50635884689758 l -38.6982916208123 -36.908382621441554 a74.47697151204582,74.47697151204582 0 0,0 0.8927864409879396,-0.9200949055818158 l 38.05724091612124 37.569041722573495" fill="red" stroke="none" /><path d="M 85.05521093208273 85.24692304244772 l -38.36200643827007 -37.869897705340264 a74.90521950778802,74.90521950778802 0 0,0 0.9137159818335371,-0.9097921950295612 l 37.70445465626922 38.52462575101993" fill="red" stroke="none" /><path d="M 85.57189188830299 84.74124197986013 l -37.57424345402396 -39.737454433819096 a75.68902134818387,75.68902134818387 0 0,0 0.9543741017277104,-0.8869867161088644 l 36.88466146850139 40.37834573600261" fill="red" stroke="none" /><path d="M 85.83668400450813 84.49514656593479 l -36.474312959303084 -39.929129359411704 a75.08059612517062,75.08059612517062 0 0,0 0.9617074001150182,-0.8634303993534357 l 35.781594571592095 40.551058767534414" fill="red" stroke="none" /><path d="M 86.37877921826538 84.01681056812374 l -35.15770820869236 -41.25418119965315 a75.20306184101936,75.20306184101936 0 0,0 0.9924743708017355,-0.8311687435115308 l 34.442376300931514 41.85325110055849" fill="red" stroke="none" /><path d="M 86.65592168130627 83.78471172551755 l -36.200962662289456 -43.99022782715968 a77.9706050692977,77.9706050692977 0 0,0 1.0436796236594816,-0.8439163392798833 l 35.43837964006547 44.6068502637037" fill="red" stroke="none" /><line stroke="#e1ed5e" stroke-width="0.3" x1="56.762969772571076" x2="54.21961505331055" y1="26.818313649435495" y2="22.513508569990535" /><path d="M 56.25429882871897 25.957352633546506 a86.0,86.0 0 0,1 42.265352541879196,-11.944610805530505" fill="none" id="id12" stroke="none" /><text fill="#e1ed5e" style="font-size:6.75px; font-family:Arial;" text-anchor="middle"><textPath startOffset="22.20632615414155" xlink:href="#id12">December</textPath></text><path d="M 92.91201910852362 80.23233633223022 l -9.711357682256851 -27.08399688987867 a49.77244090381778,49.77244090381778 0 0,0 0.8089633229604595,-0.2822314189696775 l 9.243712355233107 27.247149162020555" fill="red" stroke="none" /><path d="M 93.59665428221793 80.00007090966166 l -10.713468711318546 -33.461978156654254 a56.13520163574998,56.13520163574998 0 0,0 0.9227948909758819,-0.2867168645615615 l 10.135888447631936 33.64143515609834" fill="red" stroke="none" /></svg>