<?xml version="1.0" encoding="utf-8" ?>
<svg baseProfile="full" height="200mm" version="1.1" viewBox="0,0,200,200" width="200mm" xmlns="http://www.w3.org/2000/svg" xmlns:ev="http://www.w3.org/2001/xml-events" xmlns:xlink="http://www.w3.org/1999/xlink"><defs /><rect fill="#1a1a1a" height="200" width="200" x="0" y="0" /><text alignment-baseline="middle" fill="#e1ed5e" style="dominant-baseline: central; font-size:9.0px; font-family:Arial;" text-anchor="middle" x="100.0" y="100.0">2025</text><line stroke="#e1ed5e" stroke-width="0.3" x1="100.0" x2="100.0" y1="15.0" y2="10.0" /><path d="M 100.0 14.0 a86.0,86.0 0 0,1 42.46469731375804,11.215312516191453" fill="none" id="id85" stroke="none" /><text fill="#e1ed5e" style="font-size:6.75px; font-family:Arial;" text-anchor="middle"><textPath startOffset="22.20632615414155" xlink:href="#id85">January</textPath></text><path d="M 100.0 79.0 l 0.0 -36.92399237635758 a57.92399237635758,57.92399237635758 0 0,0 0.9970663107420961,0.008582064521625772 l -0.6355858314695677 36.918521688444514" fill="#5aff2a" stroke="none" /><path d="M 101.08401301168833 79.027996857942 l 1.302571419677597 -25.200372700035203 a46.23401427684546,46.23401427684546 0 0,0 0.794427951694145,0.04792206353482239 l -1.736161420211354 25.174217367120075" fill="#e6ff1a" stroke="none" /><path d="M 101.44485096284872 79.0497635885617 l 1.0201055355796818 -14.79145786280582 a35.82659236004283,35.82659236004283 0 0,0 0.6148693032512206,0.04772569180728373 l -1.2745650281932435 14.771706908810073" fill="#ff8a0c" stroke="none" /><path d="M 101.80526077348638 79.07773832637324 l 0.8543709644174508 -9.901823130721047 a30.938614141665926,30.938614141665926 0 0,0 0.5301918967731428,0.05034810913078286 l -1.0246879882808377 9.885649477075086" fill="#ff4206" stroke="none" /><path d="M 102.88285421437855 79.19881850522331 l 1.2793150399675886 -9.23087411171769 a30.31910316703636,30.31910316703636 0 0,0 0.516335798957904,0.07609447486645006 l -1.4380198193541485 9.207485152690271" fill="#ff3805" stroke="none" /><path d="M 103.2404852339499 79.25152402106235 l 1.4134579944917058 -9.050218448365229 a30.1599299923811,30.1599299923811 0 0,0 0.5122460082465959,0.08452498045385358 l -1.569033208877177 9.024547204971752" fill="#ff3605" stroke="none" /><path d="M 103.59715602781102 79.31037775812273 l 6.089676847970434 -35.02575717747904 a56.55120011994577,56.55120011994577 0 0,0 0.9576134604828064,0.1749977389920349 l -6.691685429556141 34.91574395713627" fill="#6aff28" stroke="none" /><path d="M 103.95276090670814 79.375362276772 l 4.597918251636495 -23.990926964513946 a45.42755470499195,45.42755470499195 0 0,0 0.7667167296770895,0.15379616307672042 l -5.0102013907807095 23.908226845360016" fill="#f1ff19" stroke="none" /><path d="M 105.71112130821622 79.79150937346287 l 4.134378336413911 -14.62927179252547 a36.20225895741123,36.20225895741123 0 0,0 0.5982160951776848,0.17463568234779014 l -4.385584649315023 14.555937781258976" fill="#ff8f0d" stroke="none" /><path d="M 106.0581310904928 79.89281104454417 l 6.898768727948743 -22.89730022358619 a44.91399940392162,44.91399940392162 0 0,0 0.738331884014087,0.22940331037862782 l -7.291885984673548 22.77515677832504" fill="#f7ff18" stroke="none" /><path d="M 106.74666289553966 80.11325718540242 l 3.1543366199891434 -9.297853188109157 a30.818345757806462,30.818345757806462 0 0,0 0.5008979053399816,0.17475344378492916 l -3.3139165293923987 9.24217889115202" fill="#ff4006" stroke="none" /><path d="M 107.08798089147638 80.2323363322302 l 1.924833873105 -5.368167494021681 a26.702824535519518,26.702824535519518 0 0,0 0.43133666829723394,0.15886493513375732 l -2.0169528671748105 5.334239291081599" fill="#ff0000" stroke="none" /><path d="M 108.43124777332544 80.76684994638697 l 7.499194477643541 -17.106973552131336 a39.678502668223715,39.678502668223715 0 0,0 0.6231752234497026,0.27960055764012753 l -7.792551819560024 16.97535266397468" fill="#ffc011" stroke="none" /><path d="M 109.08828744355905 81.06846463323043 l 8.042603901069409 -16.75330375932613 a39.58377422273925,39.58377422273925 0 0,0 0.6117177188309857,0.30016722796947987 l -8.329792886910825 16.61238137122182" fill="#ffbf11" stroke="none" /><path d="M 109.73455568895987 81.39251694778311 l 2.9646583924309367 -5.6669079262995705 a27.395548829378765,27.395548829378765 0 0,0 0.41596221177728315,0.22219260784777 l -3.061765650736531 5.615036591950046" fill="#ff0b01" stroke="none" /><path d="M 110.05341064243156 81.56283822128135 l 8.656470972612347 -15.875284660234884 a39.08201185552009,39.08201185552009 0 0,0 0.5878602902742825,0.32714361507480644 l -8.928455351958664 15.723925647599899" fill="#ffb811" stroke="none" /><path d="M 110.36928655335952 81.73862282372117 l 11.738315114644502 -20.67237689106862 a44.77257260073212,44.77257260073212 0 0,0 0.6669050954972533,0.38631447705737326 l -12.092416942607084 20.467258256621196" fill="#f9ff18" stroke="none" /><line stroke="#e1ed5e" stroke-width="0.3" x1="143.23703022742887" x2="145.7803849466894" y1="26.81831364943548" y2="22.513508569990506" /><path d="M 143.74570117128098 25.957352633546492 a86.0,86.0 0 0,1 28.547481713284135,27.462654790039103" fill="none" id="id86" stroke="none" /><text fill="#e1ed5e" style="font-size:6.75px; font-family:Arial;" text-anchor="middle"><textPath startOffset="19.985693538727396" xlink:href="#id86">February</textPath></text><path d="M 110.68208982089419 81.91981866633111 l 9.19782265465757 -15.56795573333007 a39.08206811461169,39.08206811461169 0 0,0 0.5762519437595197,0.34718534838810383 l -9.464436664634727 15.407323775483352" fill="#ffb811" stroke="none" /><path d="M 110.99172775467656 82.1063720568725 l 10.578824991151405 -17.22145623435635 a41.21113784588242,41.21113784588242 0 0,0 0.6012525402345218,0.3765042855358435 l -10.87369668375819 17.03680760749756" fill="#ffd513" stroke="none" /><path d="M 111.90073688211348 82.69761687909136 l 7.801017395358289 -11.341834799341543 a34.765648877486214,34.765648877486214 0 0,0 0.4901440973710604,0.34337726325417184 l -7.995092632313001 11.205872693323435" fill="#ff7b0b" stroke="none" /><path d="M 112.48926042617603 83.11751280151076 l 12.989226408581215 -17.558321396000654 a42.840665121251185,42.840665121251185 0 0,0 0.5890669918719225,0.4436730456384571 l -13.28953955421152 17.33213176085635" fill="#ffeb16" stroke="none" /><path d="M 113.06298171725822 83.55741782278167 l 39.188945151774654 -49.32774653165496 a84.0,84.0 0 0,0 1.1243864057420354,0.9091756109434814 l -40.032234956081176 48.64586482344735" fill="#4dd2ff" stroke="none" /><path d="M 113.6212207817346 84.01681056812373 l 14.873266960929902 -17.452344919493793 a43.930294661867514,43.930294661867514 0 0,0 0.5713159952109985,0.49543960120567493 l -15.171476754787665 17.193740324868447" fill="#fffa17" stroke="none" /><path d="M 114.16331599549186 84.49514656593476 l 7.273827335406083 -7.962798173539731 a31.784930173989466,31.784930173989466 0 0,0 0.4007809011525571,0.37248216894078984 l -7.409816120353487 7.8364114185243015" fill="#ff4e07" stroke="none" /><path d="M 114.42810811169701 84.74124197986012 l 12.561441710910065 -13.284624565259405 a39.28308146064237,39.28308146064237 0 0,0 0.4873286172874142,0.468809743720535 l -12.788253571809898 13.066431734776568" fill="#ffbb11" stroke="none" /><path d="M 114.68862486808459 84.99185889309783 l 15.758460619433505 -16.10124860073846 a43.529520358787465,43.529520358787465 0 0,0 0.530985940562335,0.528705718186784 l -16.033282360163163 15.82760703190156" fill="#fff517" stroke="none" /><path d="M 115.19652480421416 85.50635884689758 l 13.241060286293273 -12.62862257974344 a39.297753571596125,39.297753571596125 0 0,0 0.4626518502881198,0.49352473641997857 l -13.456479458551854 12.398828426445407" fill="#ffbb11" stroke="none" /><line stroke="#e1ed5e" stroke-width="0.3" x1="172.23445277983987" x2="176.4835382374775" y1="55.19839476539836" y2="52.563006222186495" /><path d="M 173.08426987136738 54.67131705675599 a86.0,86.0 0 0,1 12.851231095245387,41.99856678651699" fill="none" id="id87" stroke="none" /><text fill="#e1ed5e" style="font-size:6.75px; font-family:Arial;" text-anchor="middle"><textPath startOffset="22.20632615414155" xlink:href="#id87">March</textPath></text><line stroke="#e1ed5e" stroke-width="0.3" x1="184.98032266829074" x2="189.97916517819016" y1="98.17113171792111" y2="98.06355123074" /><path d="M 185.9800911702706 98.14961562048488 a86.0,86.0 0 0,1 -9.607161424134198,41.387399972396054" fill="none" id="id88" stroke="none" /><text fill="#e1ed5e" style="font-size:6.75px; font-family:Arial;" text-anchor="middle"><textPath startOffset="21.466115282336823" xlink:href="#id88">April</textPath></text><line stroke="#e1ed5e" stroke-width="0.3" x1="174.80103733775053" x2="179.2010983576182" y1="140.37084112569926" y2="142.7455964860345" /><path d="M 175.68104954172406 140.8457921977663 a86.0,86.0 0 0,1 -30.038265399797805,32.042727171017184" fill="none" id="id89" stroke="none" /><text fill="#e1ed5e" style="font-size:6.75px; font-family:Arial;" text-anchor="middle"><textPath startOffset="22.206326154141568" xlink:href="#id89">May</textPath></text><line stroke="#e1ed5e" stroke-width="0.3" x1="143.8653032363475" x2="146.44561519142675" y1="172.8068346515853" y2="177.08958963109032" /><path d="M 144.38136562736335 173.6633856474863 a86.0,86.0 0 0,1 -40.68145358897372,12.25698825130547" fill="none" id="id90" stroke="none" /><text fill="#e1ed5e" style="font-size:6.75px; font-family:Arial;" text-anchor="middle"><textPath startOffset="21.466115282336833" xlink:href="#id90">June</textPath></text><line stroke="#e1ed5e" stroke-width="0.3" x1="102.19456741930631" x2="102.32365962044197" y1="184.97166512339345" y2="189.96999836594603" /><path d="M 102.22038585953345 185.97133177190398 a86.0,86.0 0 0,1 -42.740103519485714,-10.115201625700543" fill="none" id="id91" stroke="none" /><text fill="#e1ed5e" style="font-size:6.75px; font-family:Arial;" text-anchor="middle"><textPath startOffset="22.20632615414155" xlink:href="#id91">July</textPath></text><line stroke="#e1ed5e" stroke-width="0.3" x1="58.666819895761336" x2="56.23545636021788" y1="174.27360380694188" y2="178.64263932499728" /><path d="M 58.180547188652646 175.14741091055294 a86.0,86.0 0 0,1 -31.652253787137756,-30.449443065178592" fill="none" id="id92" stroke="none" /><text fill="#e1ed5e" style="font-size:6.75px; font-family:Arial;" text-anchor="middle"><textPath startOffset="22.20632615414155" xlink:href="#id92">August</textPath></text><line stroke="#e1ed5e" stroke-width="0.3" x1="26.63291911575756" x2="22.317208475507996" y1="142.92168965132927" y2="145.44649492493687" /><path d="M 25.769776987707644 143.4266507060508 a86.0,86.0 0 0,1 -11.730757126820373,-40.83630448921669" fill="none" id="id93" stroke="none" /><text fill="#e1ed5e" style="font-size:6.75px; font-family:Arial;" text-anchor="middle"><textPath startOffset="21.46611528233685" xlink:href="#id93">September</textPath></text><line stroke="#e1ed5e" stroke-width="0.3" x1="15.007084014347285" x2="10.007500721073583" y1="101.09737516637583" y2="101.16192664675087" /><path d="M 14.007167355692545 101.11028546245083 a86.0,86.0 0 0,1 10.666146001902534,-42.60595125391555" fill="none" id="id94" stroke="none" /><text fill="#e1ed5e" style="font-size:6.75px; font-family:Arial;" text-anchor="middle"><textPath startOffset="22.20632615414155" xlink:href="#id94">October</textPath></text><line stroke="#e1ed5e" stroke-width="0.3" x1="26.266209847984243" x2="21.928928074336255" y1="57.711370442889674" y2="55.22380399835377" /><path d="M 25.398753493254645 57.213857153982495 a86.0,86.0 0 0,1 29.58750427330803,-30.492523968695096" fill="none" id="id95" stroke="none" /><text fill="#e1ed5e" style="font-size:6.75px; font-family:Arial;" text-anchor="middle"><textPath startOffset="21.46611528233685" xlink:href="#id95">November</textPath></text><line stroke="#e1ed5e" stroke-width="0.3" x1="56.762969772571076" x2="54.21961505331055" y1="26.818313649435495" y2="22.513508569990535" /><path d="M 56.25429882871897 25.957352633546506 a86.0,86.0 0 0,1 42.265352541879196,-11.944610805530505" fill="none" id="id96" stroke="none" /><text fill="#e1ed5e" style="font-size:6.75px; font-family:Arial;" text-anchor="middle"><textPath startOffset="22.20632615414155" xlink:href="#id96">December</textPath></text></svg>