<?xml version="1.0" encoding="utf-8" ?>
<svg baseProfile="full" height="200mm" version="1.1" viewBox="0,0,200,200" width="200mm" xmlns="http://www.w3.org/2000/svg" xmlns:ev="http://www.w3.org/2001/xml-events" xmlns:xlink="http://www.w3.org/1999/xlink"><defs /><rect fill="#1a1a1a" height="200" width="200" x="0" y="0" /><text alignment-baseline="middle" fill="#e1ed5e" style="dominant-baseline: central; font-size:9.0px; font-family:Arial;" text-anchor="middle" x="100.0" y="100.0">2024</text><line stroke="#e1ed5e" stroke-width="0.3" x1="100.0" x2="100.0" y1="15.0" y2="10.0" /><path d="M 100.0 14.0 a86.0,86.0 0 0,1 42.35913384403234,11.155469271406648" fill="none" id="id73" stroke="none" /><text fill="#e1ed5e" style="font-size:6.75px; font-family:Arial;" text-anchor="middle"><textPath startOffset="22.145653131862478" xlink:href="#id73">January</textPath></text><path d="M 100.0 79.0 l 0.0 -31.286580344072085 a52.286580344072085,52.286580344072085 0 0,0 0.8975686799323421,0.007704547609993931 l -0.5370757550834874 31.281970194656527" fill="#87ff25" stroke="none" /><path d="M 101.08105385017728 79.02784411241856 l 0.6000522115852713 -11.640852599517272 a32.65630781595598,32.65630781595598 0 0,0 0.559597943146313,0.033664022655405114 l -0.7997945068640465 11.628836599037175" fill="#ff840c" stroke="none" /><path d="M 101.80034050326958 79.07731436759882 l 1.9902837328027565 -23.130113878507007 a44.21558522565739,44.21558522565739 0 0,0 0.7556663258416957,0.07156238672052527 l -2.387049622029465 23.0925397362813" fill="#e4ff1a" stroke="none" /><path d="M 102.51750503828377 79.15144685158666 l 1.0855119230100023 -8.989595919751805 a30.05489762147619,30.05489762147619 0 0,0 0.5116805933561634,0.06624729701231509 l -1.2396703382569574 8.969637026539093" fill="#ff6008" stroke="none" /><path d="M 102.87502721639298 79.19773525538626 l 1.2507371095010433 -9.049710670355369 a30.135732402726497,30.135732402726497 0 0,0 0.5118409129608394,0.07522298799538163 l -1.4059031280695649 9.026906609061106" fill="#ff6109" stroke="none" /><path d="M 103.58742460773223 79.30868818359171 l 1.389324492159217 -8.013254472157866 a29.132802086616366,29.132802086616366 0 0,0 0.4920187149740101,0.08966219987400609 l -1.5266779406842808 7.988224098352494" fill="#ff5307" stroke="none" /><path d="M 104.29559338865022 79.4440306129975 l 3.574317108349504 -17.104401280810933 a38.47387438337722,38.47387438337722 0 0,0 0.6453306921952283,0.14064682077896853 l -3.867410217163866 17.040523001898247" fill="#ffd213" stroke="none" /><path d="M 104.64783097203109 79.52079915486377 l 4.723272638330581 -20.81161074677343 a42.34086329770231,42.34086329770231 0 0,0 0.7074308340027982,0.16695175059036482 l -5.079835626073264 20.72746285253684" fill="#fbff18" stroke="none" /><path d="M 104.9986988182912 79.60360301121754 l 2.856861528692256 -11.656969943451534 a33.00194176192562,33.00194176192562 0 0,0 0.549081131661934,0.13957427650340104 l -3.0565479535795848 11.606210435112866" fill="#ff890c" stroke="none" /><path d="M 106.04205211174951 79.88797359093562 l 4.345261641143351 -14.46396278360875 a36.10256660755419,36.10256660755419 0 0,0 0.5920122375565323,0.18340690450627126 l -4.592914511571513 14.387239291295833" fill="#ffb310" stroke="none" /><path d="M 106.38641147887787 79.99465700312896 l 3.1017539048533824 -9.716199929131214 a31.199285188145424,31.199285188145424 0 0,0 0.508811703742066,0.16725651330461755 l -3.268088346243191 9.661522494424576" fill="#ff700a" stroke="none" /><path d="M 106.72888874123014 80.10723608172694 l 2.904608295338963 -8.586958310098678 a30.064910499763617,30.064910499763617 0 0,0 0.48747278519774456,0.16956833925128786 l -3.051586852581726 8.5358315382788" fill="#ff6008" stroke="none" /><path d="M 107.06938296918511 80.22567764915836 l 12.830102466511335 -35.888080059180645 a59.11254150060502,59.11254150060502 0 0,0 0.9525869198619289,0.34980311167699424 l -13.444278538027389 35.66254609849493" fill="#3fff2d" stroke="none" /><path d="M 108.07796709384702 80.6158196554323 l 5.844033336849994 -14.023552562804147 a36.1925229018733,36.1925229018733 0 0,0 0.571436720731053,0.24391235635227387 l -6.083905132751476 13.921165556792472" fill="#ffb410" stroke="none" /><path d="M 109.06512990194946 81.05736502329252 l 8.840795827338548 -18.473863041373377 a41.4803146101838,41.4803146101838 0 0,0 0.6396654639949028,0.3128924324850792 l -9.156621540595518 18.319376858791077" fill="#fff817" stroke="none" /><path d="M 110.34350942703115 81.72400993836675 l 6.268715361605241 -11.07621938725189 a33.72711389904876,33.72711389904876 0 0,0 0.5014218569815859,0.2894960441058807 l -6.457929686447224 10.966976445869836" fill="#ff930d" stroke="none" /><line stroke="#e1ed5e" stroke-width="0.3" x1="143.13028292997686" x2="145.6673583964461" y1="26.7553504044142" y2="22.446841604673864" /><path d="M 143.63769802327073 25.89364864446614 a86.0,86.0 0 0,1 29.32050498858742,28.57503671076993" fill="none" id="id74" stroke="none" /><text fill="#e1ed5e" style="font-size:6.75px; font-family:Arial;" text-anchor="middle"><textPath startOffset="20.669276256404974" xlink:href="#id74">February</textPath></text><path d="M 110.65571695917076 81.90426304109057 l 9.50877732669948 -16.14798271801942 a39.73964226206594,39.73964226206594 0 0,0 0.5848676994919242,0.35119624893097423 l -9.784577782748839 15.982372468552525" fill="#ffe215" stroke="none" /><path d="M 111.5731344415666 82.4767994020092 l 11.254084030592582 -17.040117611216786 a41.42106793416396,41.42106793416396 0 0,0 0.5899616747664156,0.39695254393584384 l -11.544941993455998 16.844415393223823" fill="#fff717" stroke="none" /><path d="M 112.16784306229584 82.88440491214696 l 8.266962164048325 -11.628517583769298 a35.267623649992956,35.267623649992956 0 0,0 0.4904198011800999,0.3550261159577723 l -8.465362975602392 11.484890696438452" fill="#ffa80f" stroke="none" /><path d="M 112.45986205192187 83.09580414077388 l 12.812655583043234 -17.382828040151715 a42.59460242197512,42.59460242197512 0 0,0 0.5848583950909885,0.43888864311283443 l -13.109166967044988 17.160320369774865" fill="#f8ff18" stroke="none" /><path d="M 113.31354834802062 83.75963576809568 l 7.157845711688275 -8.731407918826902 a32.29036046711031,32.29036046711031 0 0,0 0.4256571684028719,0.35509834890347325 l -7.306677214253041 8.607247386011558" fill="#ff7f0b" stroke="none" /><path d="M 114.13192950727249 84.46653392183569 l 12.124368094122447 -13.32680441211581 a39.01677045201397,39.01677045201397 0 0,0 0.4915559943371368,0.4549768898535685 l -12.35135385977355 13.116709776129866" fill="#ffd914" stroke="none" /><path d="M 114.65682725009322 84.96080404539774 l 19.407465894326442 -19.913769712007714 a48.80661713661552,48.80661713661552 0 0,0 0.5949946827665241,0.5899092886852136 l -19.74645249722293 19.57768041309384" fill="#aeff20" stroke="none" /><path d="M 115.8921839302757 86.27271002978787 l 12.502661599728727 -10.799501310323363 a37.52107065625613,37.52107065625613 0 0,0 0.416850941292301,0.491049360685551 l -12.68620710452814 10.58328516718826" fill="#ffc512" stroke="none" /><path d="M 116.1254893667686 86.54754324733833 l 12.271010383657778 -10.236913295655114 a36.98036575484421,36.98036575484421 0 0,0 0.4024752485232655,0.49095436163836526 l -12.444932451419671 10.024756652318253" fill="#ffbe11" stroke="none" /><path d="M 116.7966241395341 87.39550010848427 l 21.50473141563789 -16.137551364116025 a47.88631691563957,47.88631691563957 0 0,0 0.48775173703924696,0.6617289067271309 l -21.778585172260964 15.76601614812002" fill="#b9ff1f" stroke="none" /><path d="M 117.01052211995028 87.68569379921539 l 11.49294857884604 -8.320008460163367 a35.188389895022944,35.188389895022944 0 0,0 0.3500153979100569,0.49234049078966224 l -11.634079075286056 8.1214907426642" fill="#ffa70f" stroke="none" /><path d="M 117.62189284568427 88.57770195909679 l 12.509188042492212 -8.10830455742114 a35.90719250155195,35.90719250155195 0 0,0 0.33082888059208604,0.5201179495072682 l -12.646534614710188 7.892372933235201" fill="#ffb010" stroke="none" /><line stroke="#e1ed5e" stroke-width="0.3" x1="172.87174338648825" x2="177.1583165268699" y1="56.24261187166439" y2="53.66864786411523" /><path d="M 173.72905801456457 55.72781907015455 a86.0,86.0 0 0,1 12.242430191666344,42.057860355516425" fill="none" id="id75" stroke="none" /><text fill="#e1ed5e" style="font-size:6.75px; font-family:Arial;" text-anchor="middle"><textPath startOffset="22.145653131862474" xlink:href="#id75">March</textPath></text><path d="M 118.18653347947321 89.5 l 32.74253434188983 -18.903911016240663 a58.80782203248132,58.80782203248132 0 0,0 0.49725271755854733,0.8785979060908065 l -33.06222042446975 18.33905634005074" fill="#42ff2d" stroke="none" /><path d="M 118.53625476483649 90.13048839642627 l 13.05985144961296 -6.953635297860624 a35.79570085334287,35.79570085334287 0 0,0 0.2841359284589975,0.5448681075465985 l -13.177295447046903 6.728420947209528" fill="#ffaf10" stroke="none" /><path d="M 118.8641267826498 90.77261029715802 l 7.16969065416725 -3.5070549767335786 a28.98147221296203,28.98147221296203 0 0,0 0.2147675338664449,0.44878154454299285 l -7.228837445993608 3.3834609301254823" fill="#ff5107" stroke="none" /><path d="M 119.4528033332814 92.08871423366111 l 28.994120763968777 -11.791656502024784 a52.300194918520056,52.300194918520056 0 0,0 0.3310884386665725,0.8345591484156348 l -29.192267877601473 11.292196336395586" fill="#87ff25" stroke="none" /><path d="M 120.16314734710363 94.1308016681162 l 30.086107210565295 -8.75762732937089 a52.33480307143756,52.33480307143756 0 0,0 0.24368456958595047,0.8647505699945278 l -30.23201027222583 8.239868835473349" fill="#86ff25" stroke="none" /><path d="M 120.592083275326 95.88100663000786 l 8.956367070576142 -1.7915242518042405 a30.13378728938349,30.13378728938349 0 0,0 0.0971078625453997,0.5081093707144002 l -8.9858012254037 1.6375123160565257" fill="#ff6109" stroke="none" /><path d="M 120.77682067341334 96.94652285012252 l 62.330462020240034 -9.160431449632455 a84.0,84.0 0 0,0 0.19742193377914985,1.4284467671996575 l -62.478528470574396 8.089096374232712" fill="#4dd2ff" stroke="none" /><path d="M 120.86939407059847 97.66154086499901 l 15.798244264623042 -1.7702262218351617 a36.89711366006948,36.89711366006948 0 0,0 0.06512798703384824,0.6300541952054092 l -15.826304644138556 1.4987675043468212" fill="#ffbd11" stroke="none" /><path d="M 120.93736805541906 98.37931529534042 l 7.585146700949635 -0.5871383264739614 a28.6078368732079,28.6078368732079 0 0,0 0.03369736018472024,0.489952221531873 l -7.594108022299422 0.45684268078775414" fill="#ff4c07" stroke="none" /><path d="M 120.96210409425399 98.7389718711861 l 8.2363486536114 -0.49547828234330643 a29.251238565943915,29.251238565943915 0 0,0 0.02585030924812008,0.5014890934479144 l -8.243640552316092 0.35401739551866146" fill="#ff5507" stroke="none" /><path d="M 120.98066250479742 99.09900007780936 l 22.288052516823388 -0.9571448746600345 a43.30859500963172,43.30859500963172 0 0,0 0.02552178185575874,0.743038832023806 l -22.301198985675995 0.5743997780721085" fill="#efff19" stroke="none" /><path d="M 120.99303781780057 99.45929381324524 l 12.75564884894861 -0.3285402669474336 a33.75987916340472,33.75987916340472 0 0,0 0.009948824829690457,0.5794691695695661 l -12.759409105376967 0.1095241814088012" fill="#ff930d" stroke="none" /><line stroke="#e1ed5e" stroke-width="0.3" x1="184.99686870605535" x2="189.99668451229388" y1="99.2704041080226" y2="99.22748670261217" /><path d="M 185.99683186730306 99.26182062694052 a86.0,86.0 0 0,1 -10.086455211305974,41.156179273409016" fill="none" id="id76" stroke="none" /><text fill="#e1ed5e" style="font-size:6.75px; font-family:Arial;" text-anchor="middle"><textPath startOffset="21.40746469413373" xlink:href="#id76">April</textPath></text><path d="M 120.99922638620191 100.18025310272382 l 11.961214848127382 0.10267264369976695 a32.96165550059135,32.96165550059135 0 0,0 -0.009713593318406613,0.5657681133311041 l -11.957689823210307 -0.30798767299994206" fill="#ff880c" stroke="none" /><path d="M 120.99303781780057 100.54070618675476 l 8.028353707726303 0.20678191297984744 a29.031016250506426,29.031016250506426 0 0,0 -0.01710799585236538,0.49808063278071263 l -8.023621024877093 -0.3445688103246708" fill="#ff5207" stroke="none" /><path d="M 120.98066250479742 100.90099992219065 l 15.811792472049675 0.6790264027055289 a36.82636591371304,36.82636591371304 0 0,0 -0.03254470559281737,0.6313585941126858 l -15.797806177000284 -0.9503567901949455" fill="#ffbc11" stroke="none" /><path d="M 120.93736805541906 101.62068470465957 l 28.60786241014446 2.21442947931206 a49.69343983555479,49.69343983555479 0 0,0 -0.07313543814308447,0.8499446510683503 l -28.565633349303635 -2.7051951777560674" fill="#a4ff21" stroke="none" /><path d="M 120.9064616781168 101.97986365728391 l 9.69289064662282 0.9179268218955892 a30.73625794326257,30.73625794326257 0 0,0 -0.05425331171538718,0.5248515762094897 l -9.675704942425766 -1.0841829203880102" fill="#ff6a09" stroke="none" /><path d="M 120.86939407059847 102.33845913500097 l 10.93756384873728 1.2255768428260223 a32.00601388073248,32.00601388073248 0 0,0 -0.06586824509854781,0.545483559256729 l -10.91491351737907 -1.4131540790061599" fill="#ff7b0b" stroke="none" /><path d="M 120.7213421655516 103.40968896794604 l 17.451688436463087 2.8716686910736877 a38.68637640543343,38.68637640543343 0 0,0 -0.11345274054727322,0.6543652585841206 l -17.39982087842358 -3.1708269825783963" fill="#ffd413" stroke="none" /><path d="M 120.65975698304385 103.76489593502545 l 11.7881894401659 2.1482008012492955 a32.98232769372157,32.98232769372157 0 0,0 -0.10628744781899803,0.556140839789404 l -11.749575700064742 -2.350244206072014" fill="#ff890c" stroke="none" /><path d="M 120.592083275326 104.11899336999214 l 2.6590884203637613 0.5318921561872807 a23.711763354927232,23.711763354927232 0 0,0 -0.08326474810396578,0.39845196185558646 l -2.6495659614354308 -0.5774605693282763" fill="#ff0400" stroke="none" /><path d="M 120.51834098615036 104.47187691870673 l 12.425790248239277 2.708143150818047 a33.71748019925964,33.71748019925964 0 0,0 -0.12810898550216418,0.5644718278167011 l -12.377470401179448 -2.921049312573765" fill="#ff930d" stroke="none" /><path d="M 120.43855184770803 104.8234425847677 l 10.112089064904215 2.3864254855263862 a31.389868712092817,31.389868712092817 0 0,0 -0.12826867983397233,0.5233799855169406 l -10.069632858553947 -2.5596612956514266" fill="#ff730a" stroke="none" /><path d="M 120.26092885502905 105.52220625578681 l 7.994227242291776 2.178862183636133 a29.28583789466579,29.28583789466579 0 0,0 -0.1363625423904684,0.483902556729049 l -7.955646207826728 -2.3157726642681906" fill="#ff5507" stroke="none" /><path d="M 120.05942366710727 106.21446072829308 l 14.275799068098278 4.422679043325338 a35.94518413914612,35.94518413914612 0 0,0 -0.18766002283496172,0.5878423487165765 l -14.197774329486062 -4.667090425733298" fill="#ffb110" stroke="none" /><path d="M 119.83427380445688 106.89939002012753 l 29.51592230018724 10.267169938281874 a52.25067115714876,52.25067115714876 0 0,0 -0.3019586936534006,0.8446322077851254 l -29.335323436489894 -10.772337102447922" fill="#87ff25" stroke="none" /><path d="M 119.4528033332814 107.91128576633889 l 6.8600019349683965 2.7899030661725153 a28.405618520178376,28.405618520178376 0 0,0 -0.18757738850973818,0.4501174472727677 l -6.811098701922173 -2.9072530228865605" fill="#ff4906" stroke="none" /><path d="M 119.16976305983485 108.57439118712176 l 7.627416886378984 3.4116465564512364 a29.355646030365627,29.355646030365627 0 0,0 -0.20970490232242134,0.458243057283785 l -7.567727519201506 -3.5420785959497105" fill="#ff5608" stroke="none" /><path d="M 118.8641267826498 109.22738970284198 l 38.75154672367862 18.955323367321196 a64.13915457490052,64.13915457490052 0 0,0 -0.49228354766231336,0.9848968629997505 l -38.420443262804575 -19.617752086484693" fill="#34ff5a" stroke="none" /><line stroke="#e1ed5e" stroke-width="0.3" x1="174.33088141563837" x2="178.70328620479359" y1="141.23008692659167" y2="143.65538615756765" /><path d="M 175.20536237346943 141.71514677278685 a86.0,86.0 0 0,1 -30.301960400862466,31.631185727798858" fill="none" id="id77" stroke="none" /><text fill="#e1ed5e" style="font-size:6.75px; font-family:Arial;" text-anchor="middle"><textPath startOffset="22.145653131862474" xlink:href="#id77">May</textPath></text><path d="M 118.36410011445183 110.18625677009912 l 16.188634097653985 8.97956244238258 a39.51227742889494,39.51227742889494 0 0,0 -0.3340981973043153,0.5903195019657633 l -16.032102535328292 -9.256138714447466" fill="#ffdf14" stroke="none" /><path d="M 118.00360718960297 110.81064883170644 l 6.601635095305495 3.9640921943482175 a28.700364462599264,28.700364462599264 0 0,0 -0.257253715412706,0.4202046107593832 l -6.532613415437384 -4.076833921232158" fill="#ff4d07" stroke="none" /><path d="M 117.62189284568427 111.42229804090321 l 29.707208799025132 19.25585383121374 a56.40206436633244,56.40206436633244 0 0,0 -0.5336053230481136,0.8079464697432492 l -29.37227903705629 -19.762980179296054" fill="#5bff2a" stroke="none" /><path d="M 116.79662413953412 112.60449989151573 l 6.68910046865991 5.019625695684601 a29.36305609239848,29.36305609239848 0 0,0 -0.30600222688838347,0.40056673780034335 l -6.601946264417222 -5.133713346725822" fill="#ff5608" stroke="none" /><path d="M 116.57777611688842 112.89097897827486 l 5.965981858020507 4.6391835777154125 a28.55744426363663,28.55744426363663 0 0,0 -0.30425042556467063,0.38441047362372 l -5.885465001814275 -4.740913995253815" fill="#ff4b07" stroke="none" /><path d="M 116.1254893667686 113.45245675266167 l 28.372169531712252 23.66907291453125 a57.94868085019569,57.94868085019569 0 0,0 -0.643797251425801,0.7583915433744306 l -27.961677716779338 -24.152631240355237" fill="#4bff2c" stroke="none" /><path d="M 115.89218393027572 113.72728997021213 l 6.474800650472243 5.592778589670433 a29.555829347084465,29.555829347084465 0 0,0 -0.33495049429210694,0.3811121764902446 l -6.377839092221551 -5.703103043971971" fill="#ff5908" stroke="none" /><path d="M 114.39649973595853 115.28858382429668 l 14.592699013142735 15.496940657590331 a42.286193512064415,42.286193512064415 0 0,0 -0.532746089892796,0.493101827367461 l -14.324523151935972 -15.745160231090171" fill="#fcff18" stroke="none" /><path d="M 112.7482090630111 116.68781488649013 l 5.14822676317868 6.739194093300164 a29.48062355209103,29.48062355209103 0 0,0 -0.40479284220439593,0.3037640952888023 l -5.031780932063517 -6.826577215852982" fill="#ff5808" stroke="none" /><path d="M 112.45986205192187 116.90419585922612 l 25.60685500936361 34.74061675910134 a64.1580986174475,64.1580986174475 0 0,0 -0.8921611016473497,0.6458558360904024 l -25.006712897342293 -35.17507336656482" fill="#34ff5a" stroke="none" /><path d="M 110.96478420261333 117.91015095944535 l 3.4974995284475705 5.712902632425291 a27.698489340072342,27.698489340072342 0 0,0 -0.4076521784694946,0.24478342037249512 l -3.3989145934206393 -5.77210005333371" fill="#ff3f05" stroke="none" /><line stroke="#e1ed5e" stroke-width="0.3" x1="143.1302829299769" x2="145.66735839644613" y1="173.24464959558577" y2="177.55315839532614" /><path d="M 143.63769802327073 174.10635135553383 a86.0,86.0 0 0,1 -40.68552437913181,11.842963189579606" fill="none" id="id78" stroke="none" /><text fill="#e1ed5e" style="font-size:6.75px; font-family:Arial;" text-anchor="middle"><textPath startOffset="21.407464694133747" xlink:href="#id78">June</textPath></text><path d="M 110.65571695917076 118.09573695890943 l 9.001282911694906 15.286146252465139 a38.739485936974745,38.739485936974745 0 0,0 -0.575940919082842,0.33251964466980055 l -8.737549524751666 -15.438412794411112" fill="#ffd513" stroke="none" /><path d="M 110.34350942703117 118.27599006163325 l 5.378998130721107 9.504174291338098 a31.92075775074391,31.92075775074391 0 0,0 -0.4792002094944482,0.26580427833511755 l -5.215053733070564 -9.595111485106358" fill="#ff7a0b" stroke="none" /><path d="M 109.71004243097381 118.62028667847754 l 4.94780703022337 9.488072373264199 a31.700668753336267,31.700668753336267 0 0,0 -0.48467722810338587,0.24747964613156495 l -4.784202580406402 -9.5716099710686" fill="#ff770b" stroke="none" /><path d="M 109.3889696526874 118.78422872680471 l 3.9811563347591807 7.96497954042049 a29.904521595296973,29.904521595296973 0 0,0 -0.4611558485408588,0.2255744343355995 l -3.8438402369562525 -8.032147724853314" fill="#ff5e08" stroke="none" /><path d="M 109.06512990194946 118.94263497670748 l 4.931792318244638 10.30554914004574 a32.42483779089201,32.42483779089201 0 0,0 -0.5041464518862829,0.2359659953294425 l -4.754157152486849 -10.388691366945714" fill="#ff810b" stroke="none" /><path d="M 108.73861861582097 119.09545874513695 l 3.1343027766118725 6.849017218488301 a28.532123920556945,28.532123920556945 0 0,0 -0.4471209319198882,0.19999150569911045 l -3.0162684418363575 -6.901812475097262" fill="#ff4b06" stroke="none" /><path d="M 108.4095320186766 119.2426549942271 l 10.08012018124391 23.065287642313688 a46.17173646952052,46.17173646952052 0 0,0 -0.7289965872270111,0.3111652942705985 l -9.682688518846469 -23.23492758624369" fill="#cdff1d" stroke="none" /><path d="M 108.07796709384702 119.3841803445677 l 6.097523279321906 14.631836144963374 a36.8515115719268,36.8515115719268 0 0,0 -0.5860189470397047,0.2383288040849225 l -5.84544987109176 -14.734352205627587" fill="#ffbd11" stroke="none" /><path d="M 106.72888874123015 119.89276391827305 l 2.4441819363893904 7.225789592266741 a28.627978799779306,28.627978799779306 0 0,0 -0.46687770504891046,0.1534719750191277 l -2.319781493692746 -7.266682488687889" fill="#ff4c07" stroke="none" /><path d="M 106.38641147887787 120.00534299687104 l 2.717571969017329 8.512755486971251 a29.93600600871261,29.93600600871261 0 0,0 -0.4908925754053107,0.15207977468810754 l -2.571038760740394 -8.558151849466004" fill="#ff5f08" stroke="none" /><path d="M 106.0420521117495 120.11202640906438 l 6.395782474516701 21.289479742150895 a43.229439515039246,43.229439515039246 0 0,0 -0.712544650404084,0.20741136299562335 l -6.02937781173101 -21.396134799449037" fill="#f0ff19" stroke="none" /><path d="M 103.58742460773223 120.69131181640829 l 3.8397406056245815 22.146603441884167 a43.47700273458536,43.47700273458536 0 0,0 -0.7364641891673862,0.12118490206999756 l -3.4589989134041232 -22.209254342449835" fill="#edff19" stroke="none" /><path d="M 103.2317021107853 120.74984581791261 l 4.1040357438817 26.350853512316494 a47.668531834629015,47.668531834629015 0 0,0 -0.8096270741882374,0.11898729886615755 l -3.6510835640857766 -26.417421884481534" fill="#bbff1f" stroke="none" /><path d="M 102.875027216393 120.80226474461374 l 1.2332215461588945 8.922976779379665 a30.007793846845033,30.007793846845033 0 0,0 -0.5108786579226964,0.0661434704151464 l -1.0798650663454226 -8.942831845995206" fill="#ff6008" stroke="none" /><path d="M 102.15924093988457 120.88869738790638 l 0.9879291772824792 9.557318613104965 a30.60824349877378,30.60824349877378 0 0,0 -0.5231100931298894,0.049539069694914034 l -0.8237195207675745 -9.572869438305062" fill="#ff6809" stroke="none" /><path d="M 101.44090949804482 120.95050786540614 l 0.6181130324548392 8.987227834729959 a30.008458684716018,30.008458684716018 0 0,0 -0.5142244448330779,0.030934465669216857 l -0.46374423548929616 -8.996514278223867" fill="#ff6008" stroke="none" /><path d="M 101.08105385017728 120.97215588758144 l 0.7691731608946417 14.921753835094188 a35.941565007273795,35.941565007273795 0 0,0 -0.6164393256814609,0.026472557019931293 l -0.5129080746123512 -14.93275896053995" fill="#ffb110" stroke="none" /><path d="M 100.72087961077811 120.9876233191556 l 1.1865216917049228 34.54428444526391 a55.5646556696315,55.5646556696315 0 0,0 -0.9535601005513691,0.02456032567966374 l -0.59334827708281 -34.55956248829362" fill="#64ff29" stroke="none" /><line stroke="#e1ed5e" stroke-width="0.3" x1="101.45913802915013" x2="101.54496967792366" y1="184.9874750549273" y2="189.98673829345242" /><path d="M 101.47630435890484 185.9873277026323 a86.0,86.0 0 0,1 -42.54439059252881,-10.42667462771756" fill="none" id="id79" stroke="none" /><text fill="#e1ed5e" style="font-size:6.75px; font-family:Arial;" text-anchor="middle"><textPath startOffset="22.145653131862474" xlink:href="#id79">July</textPath></text><path d="M 99.63950707515114 120.99690560180557 l -0.15459781142884643 9.004547465607727 a30.00587450188382,30.00587450188382 0 0,0 -0.5149389366734799,-0.013263000394547158 l 0.30915006217307023 -9.000566747863134" fill="#ff6008" stroke="none" /><path d="M 98.55909050195518 120.95050786540614 l -0.7247478528264778 10.537674719807436 a31.56256824596392,31.56256824596392 0 0,0 -0.5402174110534297,-0.041816244189225193 l 0.9055342586551436 -10.523680708623157" fill="#ff750a" stroke="none" /><path d="M 98.19965949673042 120.92268563240118 l -0.905434508261135 10.522521457841565 a31.56140471147121,31.56140471147121 0 0,0 -0.5394000919585359,-0.05108174952063479 l 1.0859341636046862 -10.505427952815745" fill="#ff750a" stroke="none" /><path d="M 97.48249496171623 120.84855314841334 l -2.1668855415780612 17.944920742210808 a39.07527519554067,39.07527519554067 0 0,0 -0.6652513094345871,-0.08613010080151412 l 2.4746146729034426 -17.905079045208897" fill="#ffd914" stroke="none" /><path d="M 96.76829788921471 120.74984581791261 l -1.5759346254834827 10.118630794824732 a31.240618101744307,31.240618101744307 0 0,0 -0.5291900322532451,-0.0870780184268453 l 1.7494021607897914 -10.090086777902219" fill="#ff710a" stroke="none" /><path d="M 96.05791012581884 120.62667999033965 l -6.096061488906195 31.89716966034924 a53.47447302139989,53.47447302139989 0 0,0 -0.9001625784497537,-0.1800577262132725 l 6.642720552886907 -31.787822537473104" fill="#7aff26" stroke="none" /><path d="M 93.95794788825049 120.11202640906438 l -2.370309427713885 7.889989183498179 a29.238343043284104,29.238343043284104 0 0,0 -0.4794522526793994,-0.14853553346367973 l 2.5054023132649177 -7.84813706222785" fill="#ff5507" stroke="none" /><path d="M 93.61358852112213 120.00534299687104 l -5.598727880119582 17.537935342621655 a39.40991390413345,39.40991390413345 0 0,0 -0.642714258258369,-0.21127294261680965 l 5.898964876025694 -17.439241478602824" fill="#ffde14" stroke="none" /><path d="M 93.27111125876986 119.89276391827306 l -3.6931040211284354 10.918005816886536 a32.52570467817232,32.52570467817232 0 0,0 -0.5273721287183765,-0.1834474020901838 l 3.879981921891834 -10.852999982227761" fill="#ff830c" stroke="none" /><path d="M 92.59220618246901 119.65005319985036 l -2.6074680609655556 6.916618817552491 a28.39178635759156,28.39178635759156 0 0,0 -0.4545764805133391,-0.17583994807758152 l 2.725816803972423 -6.870838981336869" fill="#ff4906" stroke="none" /><path d="M 92.25597844496254 119.51999308798841 l -3.6212940705927443 9.1280266622659 a30.82011412829542,30.82011412829542 0 0,0 -0.49010664851170094,-0.19932210725253072 l 3.7774551802948864 -9.064517298434078" fill="#ff6b09" stroke="none" /><path d="M 90.93487009805054 118.94263497670748 l -10.488501584903279 21.916934354433735 a45.29733888706902,45.29733888706902 0 0,0 -0.6985275682990476,-0.34168483731790084 l 10.863189402464396 -21.733655767018615" fill="#d7ff1c" stroke="none" /><line stroke="#e1ed5e" stroke-width="0.3" x1="58.13341422392154" x2="55.67067388415222" y1="173.97424548756322" y2="178.32567169271397" /><path d="M 57.64086615596768 174.84453072859336 a86.0,86.0 0 0,1 -31.369924170532247,-30.572349798747897" fill="none" id="id80" stroke="none" /><text fill="#e1ed5e" style="font-size:6.75px; font-family:Arial;" text-anchor="middle"><textPath startOffset="22.145653131862474" xlink:href="#id80">August</textPath></text><path d="M 89.34428304082925 118.09573695890944 l -6.205793477396151 10.538794040660774 a33.23021064886291,33.23021064886291 0 0,0 -0.48906521925048024,-0.2936696121748181 l 6.3857914532040585 -10.430710427950038" fill="#ff8c0c" stroke="none" /><path d="M 89.03521579738668 117.91015095944536 l -18.724708513435303 30.58540414022087 a56.86198063874549,56.86198063874549 0 0,0 -0.8281158755901535,-0.5168055535535954 l 19.24698851781517 -30.259462789825726" fill="#56ff2b" stroke="none" /><path d="M 88.4268655584334 117.5232005979908 l -3.829219918397576 5.797927009549165 a27.948300712513273,27.948300712513273 0 0,0 -0.3980685944997058,-0.26783831561632804 l 3.9281848009942877 -5.7313390198757155" fill="#ff4206" stroke="none" /><path d="M 87.54013794807813 116.9041958592261 l -6.326120666362754 8.582597650573453 a31.6621191663295,31.6621191663295 0 0,0 -0.4347465441124881,-0.3262419116234788 l 6.4725201993860075 -8.472736711685958" fill="#ff770a" stroke="none" /><path d="M 86.68645165197938 116.24036423190432 l -14.171670366641974 17.287133565933885 a43.35355067784973,43.35355067784973 0 0,0 -0.5714940729924705,-0.47676068158136553 l 14.466338773796338 -17.041310700440647" fill="#efff19" stroke="none" /><path d="M 85.86807049272751 115.53346607816431 l -10.056025964266295 11.053334091192905 a35.943220962213104,35.943220962213104 0 0,0 -0.4528336280802537,-0.4191360457375585 l 10.244289363660515 -10.87908029932297" fill="#ffb110" stroke="none" /><path d="M 85.34317274990678 115.03919595460226 l -10.337351970001254 10.60703379222498 a35.81114484505136,35.81114484505136 0 0,0 -0.43656868712997093,-0.43283735325099676 l 10.517912577261187 -10.428016428745323" fill="#ffaf10" stroke="none" /><path d="M 85.08716467003676 114.78537596483092 l -11.575090309218943 11.476158507886836 a37.29984447056835,37.29984447056835 0 0,0 -0.4469111039912855,-0.4585701634144491 l 11.770388214361038 -11.27576565240465" fill="#ffc212" stroke="none" /><path d="M 84.83555147118756 114.52719865689866 l -10.682304441875948 10.23340601181464 a35.79304656896498,35.79304656896498 0 0,0 -0.4212401263012534,-0.4473424165061631 l 10.856400401913454 -10.048522135363987" fill="#ffaf10" stroke="none" /><path d="M 84.58840730492382 114.26474011684316 l -2.2465333553008335 2.079357734870869 a24.061150225984758,24.061150225984758 0 0,0 -0.2779662078672773,-0.30553355495867207 l 2.2818972640099906 -2.040486604354523" fill="#ff0901" stroke="none" /><path d="M 84.3458050057657 113.99807769240083 l -3.0068821047919667 2.688772519460139 a25.03371263893726,25.03371263893726 0 0,0 -0.28370222076700063,-0.32280104873448984 l 3.0525953895175597 -2.636759192914349" fill="#ff1802" stroke="none" /><path d="M 84.1078160697243 113.72728997021213 l -4.7649138768841395 4.1158191195149 a27.296377631518574,27.296377631518574 0 0,0 -0.3032568237141019,-0.3572357758067744 l 4.834865264105353 -4.033416561258571" fill="#ff3905" stroke="none" /><path d="M 83.4222238831116 112.89097897827486 l -8.775816926635411 6.82412832220584 a32.11682014281748,32.11682014281748 0 0,0 -0.334700122948731,-0.43813320495817015 l 8.891669026938438 -6.672474204006799" fill="#ff7d0b" stroke="none" /><path d="M 83.20337586046588 112.60449989151573 l -31.927336890302332 23.958868819539106 a60.91719223616239,60.91719223616239 0 0,0 -0.6204792567589857,-0.841799278285196 l 32.33391816664515 -23.40726323198503" fill="#30ff32" stroke="none" /><path d="M 82.18462484594161 111.11811171558189 l -4.363954554452269 2.723430398661575 a26.144042426893332,26.144042426893332 0 0,0 -0.23434030111325685,-0.38277727051116944 l 4.41006282002093 -2.6481160120258482" fill="#ff2803" stroke="none" /><path d="M 81.99639281039703 110.81064883170644 l -26.70329712999959 16.034562678519894 a52.14760468967762,52.14760468967762 0 0,0 -0.4542460881667682,-0.7714091653875089 l 26.97461692829613 -15.573802344838825" fill="#89ff25" stroke="none" /><line stroke="#e1ed5e" stroke-width="0.3" x1="26.387840678322732" x2="22.057713659400548" y1="142.50000000000003" y2="145.00000000000006" /><path d="M 25.521815274538298 143.00000000000003 a86.0,86.0 0 0,1 -11.493303480769221,-40.785679425670985" fill="none" id="id81" stroke="none" /><text fill="#e1ed5e" style="font-size:6.75px; font-family:Arial;" text-anchor="middle"><textPath startOffset="21.40746469413373" xlink:href="#id81">September</textPath></text><path d="M 81.81346652052679 110.50000000000001 l -15.108464075250422 8.722875800887632 a38.44575160177525,38.44575160177525 0 0,0 -0.32508013053100887,-0.5743854420718018 l 15.255977570802811 -8.462233588716709" fill="#ffd113" stroke="none" /><path d="M 81.4637452351635 109.86951160357371 l -6.612652708338829 3.520865108045407 a28.491573062458407,28.491573062458407 0 0,0 -0.2261578729391672,-0.43368754139416066 l 6.672118650252945 -3.406831323546743" fill="#ff4a06" stroke="none" /><path d="M 81.1358732173502 109.22738970284198 l -9.882006858220661 4.833784748034357 a32.00088789763125,32.00088789763125 0 0,0 -0.2371429485986213,-0.4955375555774181 l 9.963529064779195 -4.663434690391834" fill="#ff7b0b" stroke="none" /><path d="M 80.83023694016515 108.57439118712176 l -14.389725721250231 6.4363412851932456 a36.763587645973665,36.763587645973665 0 0,0 -0.2527341157894368,-0.5783051166945283 l 14.498093719056637 -6.188374098722868" fill="#ffbb11" stroke="none" /><path d="M 80.68587082218212 108.24405325689762 l -28.875772501658847 12.325350221388065 a52.396249706731346,52.396249706731346 0 0,0 -0.3460002703588756,-0.8302746918855709 l 29.08309861655421 -11.827843020061215" fill="#86ff25" stroke="none" /><path d="M 80.41425534168474 107.57618678355246 l -8.915862198830533 3.4488470330423104 a30.5596623688214,30.5596623688214 0 0,0 -0.18505958887165389,-0.49089254588384734 l 8.973752471516622 -3.295286206964318" fill="#ff6709" stroke="none" /><path d="M 80.28708602549918 107.23885506374661 l -5.804718005503114 2.131572855342983 a27.183716840303013,27.183716840303013 0 0,0 -0.15709577396727478,-0.43942483918676867 l 5.840453949514332 -2.031613059775293" fill="#ff3705" stroke="none" /><path d="M 80.16572619554312 106.89939002012753 l -2.2912414010760513 0.7970126969173397 a23.425905273717916,23.425905273717916 0 0,0 -0.1288587415228182,-0.3809479726143607 l 2.3045855641712367 -0.7575630498288173" fill="#ff0000" stroke="none" /><path d="M 79.94057633289273 106.21446072829308 l -17.12048392784042 5.303969684502914 a38.92325484775486,38.92325484775486 0 0,0 -0.19225063001169979,-0.6399398211802302 l 17.209010877855754 -5.009292259731961" fill="#ffd814" stroke="none" /><path d="M 79.83685265289637 105.86919833188381 l -24.803350547619775 7.2198938565080075 a46.832790512976956,46.832790512976956 0 0,0 -0.21806575603402012,-0.7738384385482839 l 24.92363479572837 -6.7930474940567285" fill="#c5ff1e" stroke="none" /><path d="M 79.73907114497094 105.5222062557868 l -5.703801202468192 1.5545963814100248 a26.9118624870992,26.9118624870992 0 0,0 -0.11765676511677227,-0.4467619012686198 l 5.729647448389697 -1.4564539757686024" fill="#ff3304" stroke="none" /><path d="M 79.2786578344484 103.40968896794605 l -49.991580394035175 8.226095529811065 a71.66386047232149,71.66386047232149 0 0,0 -0.18932400221979936,-1.2155959061265016 l 50.125425888393245 -7.366711441753114" fill="#3dffb0" stroke="none" /><path d="M 79.13060592940153 102.33845913500099 l -7.39511552438133 0.8286381192418195 a28.44139602168883,28.44139602168883 0 0,0 -0.05020259547645075,-0.48566457111132577 l 7.408250512339446 -0.7015690258475624" fill="#ff4906" stroke="none" /><path d="M 79.0935383218832 101.97986365728391 l -8.945648309467263 0.8471621956620295 a29.985672343371608,29.985672343371608 0 0,0 -0.044130881100293416,-0.5128677326680378 l 8.958872813265296 -0.6934734156183298" fill="#ff5f08" stroke="none" /><path d="M 79.06263194458094 101.62068470465958 l -5.4052504404496 0.41840056928376723 a26.421419681260396,26.421419681260396 0 0,0 -0.03112196491951164,-0.4525065395972931 l 5.411636366534178 -0.3255506055321308" fill="#ff2c04" stroke="none" /><path d="M 79.03789590574601 101.26102812881392 l -34.86045321266904 2.097118299132349 a55.92347496102361,55.92347496102361 0 0,0 -0.049421467016274034,-0.9587632570646967 l 34.89131626914189 -1.4983832486909217" fill="#60ff29" stroke="none" /><line stroke="#e1ed5e" stroke-width="0.3" x1="15.003131293944662" x2="10.003315487706104" y1="100.72959589197737" y2="100.7725132973878" /><path d="M 14.003168132696942 100.73817937305945 a86.0,86.0 0 0,1 10.791469493833604,-42.45332614584628" fill="none" id="id82" stroke="none" /><text fill="#e1ed5e" style="font-size:6.75px; font-family:Arial;" text-anchor="middle"><textPath startOffset="22.145653131862435" xlink:href="#id82">October</textPath></text><path d="M 79.00077361379809 100.18025310272382 l -3.0482281938457274 0.026165372935450362 a24.048340490905968,24.048340490905968 0 0,0 0.0,-0.4128369513185347 l 3.0482281938457274 0.02616537293544924" fill="#ff0901" stroke="none" /><path d="M 79.00077361379809 99.81974689727619 l -23.098754587278748 -0.19827502722427603 a44.09960554792553,44.09960554792553 0 0,0 0.012995877400246868,-0.7569447059189545 l 23.091947278279836 0.5947666491122829" fill="#e6ff1a" stroke="none" /><path d="M 79.00696218219943 99.45929381324524 l -22.382507924674215 -0.5764940079180392 a43.389930914124534,43.389930914124534 0 0,0 0.02556971315463454,-0.7444342994930424 l 22.36931352452273 0.9606345719752202" fill="#eeff19" stroke="none" /><path d="M 79.03789590574601 98.7389718711861 l -11.82833666693307 -0.7115633615316426 a32.84972028040272,32.84972028040272 0 0,0 0.0386939026939445,-0.5626008530256129 l 11.814378803074062 0.9145076387115804" fill="#ff870c" stroke="none" /><path d="M 79.06263194458094 98.37931529534042 l -37.51035606988612 -2.9035387918809996 a58.6225643730674,58.6225643730674 0 0,0 0.08627671871142202,-1.0026662510319089 l 37.454985728476956 3.5470260902885893" fill="#44ff2d" stroke="none" /><path d="M 79.0935383218832 98.0201363427161 l -3.451878911893592 -0.3268965218612949 a24.467323082491838,24.467323082491838 0 0,0 0.04318786328791128,-0.4178034004392608 l 3.4457586561240166 0.38610444458346843" fill="#ff1001" stroke="none" /><path d="M 79.17382384314186 97.30363454192245 l -10.473077664780575 -1.3559495820253404 a31.560490284144976,31.560490284144976 0 0,0 0.07417539312993524,-0.5366961942574457 l 10.448257755095431 1.5355340844828531" fill="#ff750a" stroke="none" /><path d="M 79.22317932658666 96.9465228501225 l -9.030490164317564 -1.3271710721468633 a30.12749339427752,30.12749339427752 0 0,0 0.07959182757755802,-0.5110366283725631 l 9.00637684460174 1.4819958824508763" fill="#ff6109" stroke="none" /><path d="M 79.34024301695615 96.23510406497455 l -8.755202966993757 -1.595489631742082 a29.899391336392213,29.899391336392213 0 0,0 0.09635250810668318,-0.5041570371086486 l 8.726524166604914 1.745549233884045" fill="#ff5e08" stroke="none" /><path d="M 79.407916724674 95.88100663000787 l -19.094408945426117 -3.8194165591962665 a40.47265764675771,40.47265764675771 0 0,0 0.14212125828064806,-0.6801016693475517 l 19.0260299763211 4.146634679829227" fill="#ffeb16" stroke="none" /><path d="M 79.48165901384962 95.52812308129327 l -9.241065603381859 -2.0140472372455336 a30.45799554661894,30.45799554661894 0 0,0 0.11572462968310955,-0.5099040710109433 l 9.205130112141088 2.172385642195485" fill="#ff6609" stroke="none" /><line stroke="#e1ed5e" stroke-width="0.3" x1="26.387840678322718" x2="22.05771365940052" y1="57.49999999999999" y2="54.99999999999999" /><path d="M 25.521815274538284 56.99999999999999 a86.0,86.0 0 0,1 29.574782752854787,-30.34633250058573" fill="none" id="id83" stroke="none" /><text fill="#e1ed5e" style="font-size:6.75px; font-family:Arial;" text-anchor="middle"><textPath startOffset="21.40746469413373" xlink:href="#id83">November</textPath></text><line stroke="#e1ed5e" stroke-width="0.3" x1="56.869717070023135" x2="54.33264160355391" y1="26.7553504044142" y2="22.446841604673864" /><path d="M 56.362301976729285 25.89364864446614 a86.0,86.0 0 0,1 42.16139366436587,-11.88097634709845" fill="none" id="id84" stroke="none" /><text fill="#e1ed5e" style="font-size:6.75px; font-family:Arial;" text-anchor="middle"><textPath startOffset="22.145653131862474" xlink:href="#id84">December</textPath></text></svg>